<svg width="678" height="698" viewBox="0 0 678 698" fill="none" xmlns="http://www.w3.org/2000/svg">
<path d="M678 533.83H0V534.179H678V533.83Z" fill="#EBEBEB"/>
<path d="M610.065 556.292H565.154V556.641H610.065V556.292Z" fill="#EBEBEB"/>
<path d="M449.134 560.089H437.351V560.438H449.134V560.089Z" fill="#EBEBEB"/>
<path d="M563.798 543.337H537.776V543.686H563.798V543.337Z" fill="#EBEBEB"/>
<path d="M129.701 545.682H71.1357V546.031H129.701V545.682Z" fill="#EBEBEB"/>
<path d="M150.367 545.682H141.783V546.031H150.367V545.682Z" fill="#EBEBEB"/>
<path d="M305.304 551.574H178.273V551.922H305.304V551.574Z" fill="#EBEBEB"/>
<path d="M321.372 471.569H59.5422C57.491 471.565 55.5251 470.724 54.076 469.229C52.6269 467.735 51.813 465.709 51.813 463.598V84.6814C51.8308 82.5818 52.6526 80.5743 54.0998 79.0949C55.547 77.6155 57.5027 76.7836 59.5422 76.78H321.372C323.426 76.78 325.395 77.6198 326.847 79.1147C328.299 80.6096 329.115 82.6371 329.115 84.7512V463.598C329.115 465.712 328.299 467.739 326.847 469.234C325.395 470.729 323.426 471.569 321.372 471.569ZM59.5422 77.0592C57.5809 77.0629 55.7012 77.8676 54.3157 79.2966C52.9302 80.7257 52.152 82.6623 52.152 84.6814V463.598C52.152 465.617 52.9302 467.553 54.3157 468.982C55.7012 470.411 57.5809 471.216 59.5422 471.22H321.372C323.335 471.216 325.216 470.412 326.604 468.983C327.991 467.555 328.772 465.618 328.776 463.598V84.6814C328.772 82.661 327.991 80.7244 326.604 79.2958C325.216 77.8672 323.335 77.0629 321.372 77.0592H59.5422Z" fill="#EBEBEB"/>
<path d="M614.688 471.569H352.845C350.792 471.565 348.825 470.724 347.374 469.23C345.923 467.736 345.106 465.711 345.102 463.598V84.6814C345.123 82.5806 345.948 80.5731 347.398 79.094C348.847 77.615 350.804 76.7836 352.845 76.78H614.688C616.726 76.7873 618.678 77.6208 620.122 79.0998C621.566 80.5788 622.386 82.5843 622.404 84.6814V463.598C622.404 465.707 621.592 467.73 620.146 469.224C618.7 470.718 616.737 471.561 614.688 471.569ZM352.845 77.0592C350.882 77.0629 349.001 77.8672 347.614 79.2958C346.226 80.7244 345.445 82.661 345.441 84.6814V463.598C345.445 465.618 346.226 467.555 347.614 468.983C349.001 470.412 350.882 471.216 352.845 471.22H614.688C616.651 471.216 618.532 470.412 619.92 468.983C621.307 467.555 622.089 465.618 622.092 463.598V84.6814C622.089 82.661 621.307 80.7244 619.92 79.2958C618.532 77.8672 616.651 77.0629 614.688 77.0592H352.845Z" fill="#EBEBEB"/>
<path d="M363.109 533.83H410.705V351.331H363.109V533.83Z" fill="#E6E6E6"/>
<path d="M371.029 533.83H363.11V517.4H379.341L371.029 533.83Z" fill="#F0F0F0"/>
<path d="M556.828 533.83H604.423V351.331H556.828V533.83Z" fill="#E6E6E6"/>
<path d="M363.109 527.521H563.743V351.331H363.109V527.521Z" fill="#F0F0F0"/>
<path d="M369.266 407.451H557.601V359.135H369.266V407.451Z" fill="#E6E6E6"/>
<path d="M454.531 374.128H472.322C480.051 374.128 487.441 368.167 492.757 357.641H434.096C439.412 368.195 446.802 374.128 454.531 374.128Z" fill="#F0F0F0"/>
<path d="M555.824 533.83H563.744V517.4H547.512L555.824 533.83Z" fill="#F0F0F0"/>
<path d="M369.266 463.584H557.601V415.268H369.266V463.584Z" fill="#E6E6E6"/>
<path d="M454.531 430.275H472.322C480.051 430.275 487.441 424.314 492.757 413.788H434.096C439.412 424.384 446.802 430.275 454.531 430.275Z" fill="#F0F0F0"/>
<path d="M369.266 519.717H557.601V471.401H369.266V519.717Z" fill="#E6E6E6"/>
<path d="M454.531 486.408H472.322C480.051 486.408 487.441 480.447 492.757 469.922H434.096C439.412 480.447 446.802 486.408 454.531 486.408Z" fill="#F0F0F0"/>
<path d="M105.754 309.94H287.513V120.6L105.754 120.6L105.754 309.94Z" fill="#E6E6E6"/>
<path d="M93.1303 309.94H284.164V120.6L93.1303 120.6L93.1303 309.94Z" fill="#F0F0F0"/>
<path d="M268.176 293.467V137.073H109.158V293.467H268.176Z" fill="white"/>
<path d="M187.562 157.748L158.381 187.846C151.329 195.124 147.369 204.984 147.369 215.263C147.369 225.543 151.329 235.403 158.381 242.681L187.562 272.736C187.704 272.883 187.873 273 188.06 273.079C188.246 273.159 188.445 273.2 188.647 273.2C188.848 273.2 189.048 273.159 189.234 273.079C189.42 273 189.589 272.883 189.732 272.736L218.926 242.681C225.978 235.403 229.938 225.543 229.938 215.263C229.938 204.984 225.978 195.124 218.926 187.846L189.745 157.748C189.454 157.454 189.062 157.289 188.654 157.289C188.245 157.289 187.854 157.454 187.562 157.748ZM160.55 240.391C154.076 233.708 150.44 224.654 150.44 215.214C150.44 205.775 154.076 196.721 160.55 190.037V240.391ZM216.757 240.391V190.093C223.231 196.777 226.867 205.831 226.867 215.27C226.867 224.709 223.231 233.763 216.757 240.447V240.391Z" fill="#F0F0F0"/>
<path d="M551.689 286.18H450.138L444.348 347.911H545.898L551.689 286.18Z" fill="#E6E6E6"/>
<path d="M545.898 347.911L545.492 351.331H443.927L444.348 347.911H545.898Z" fill="#E6E6E6"/>
<path d="M548.57 286.18H447.019L441.215 347.911H542.766L548.57 286.18Z" fill="#F0F0F0"/>
<path d="M540.719 343.891L544.963 290.368C544.974 290.19 544.95 290.011 544.892 289.843C544.833 289.675 544.742 289.521 544.624 289.391C544.506 289.26 544.364 289.155 544.205 289.083C544.046 289.011 543.875 288.974 543.702 288.972H450.341C450.021 288.971 449.713 289.094 449.476 289.316C449.24 289.539 449.094 289.844 449.067 290.173L444.768 343.681C444.757 343.861 444.782 344.04 444.841 344.209C444.9 344.378 444.992 344.533 445.112 344.664C445.231 344.795 445.375 344.899 445.536 344.97C445.696 345.041 445.868 345.078 446.043 345.077H539.403C539.729 345.093 540.048 344.978 540.293 344.757C540.539 344.536 540.691 344.225 540.719 343.891Z" fill="white"/>
<path d="M516.31 347.911L515.904 351.331H404.074L404.481 347.911H516.31Z" fill="#F0F0F0"/>
<path d="M379.802 253.179L570.496 253.179V122.667L379.802 122.667V253.179Z" fill="#E6E6E6"/>
<path d="M375.571 253.179L566.266 253.179V122.667L375.571 122.667V253.179Z" fill="#F5F5F5"/>
<path d="M558.658 244.384V131.475H383.178V244.384H558.658Z" fill="white"/>
<path d="M386.365 244.37V131.461H383.165V244.37H386.365Z" fill="#E6E6E6"/>
<path d="M378.717 229.405L563.12 229.405V217.594L378.717 217.594V229.405Z" fill="#F5F5F5"/>
<path d="M367.272 108.12H578.808C579.117 108.124 579.411 108.252 579.629 108.476C579.847 108.7 579.971 109.004 579.975 109.321C579.975 109.639 579.852 109.945 579.633 110.17C579.414 110.395 579.118 110.521 578.808 110.521H367.272C367.118 110.523 366.965 110.494 366.822 110.434C366.679 110.375 366.549 110.286 366.439 110.175C366.329 110.063 366.242 109.93 366.183 109.783C366.123 109.637 366.093 109.48 366.093 109.321C366.096 109.001 366.222 108.696 366.443 108.471C366.664 108.246 366.962 108.12 367.272 108.12Z" fill="#E6E6E6"/>
<path d="M363.177 109.321C363.177 109.917 363.349 110.499 363.67 110.995C363.991 111.49 364.448 111.877 364.982 112.105C365.517 112.334 366.105 112.394 366.673 112.279C367.24 112.164 367.762 111.878 368.173 111.458C368.583 111.038 368.863 110.502 368.977 109.918C369.092 109.334 369.036 108.728 368.816 108.177C368.596 107.625 368.223 107.153 367.743 106.82C367.263 106.487 366.698 106.308 366.12 106.305C365.734 106.304 365.352 106.38 364.995 106.531C364.638 106.682 364.313 106.903 364.04 107.184C363.767 107.464 363.55 107.797 363.401 108.164C363.253 108.53 363.177 108.924 363.177 109.321Z" fill="#E6E6E6"/>
<path d="M568.91 116.077C569.326 116.078 569.726 115.909 570.022 115.609C570.319 115.309 570.489 114.9 570.496 114.472V110.982C570.496 110.549 570.329 110.133 570.032 109.827C569.734 109.521 569.331 109.349 568.91 109.349C568.702 109.349 568.497 109.391 568.305 109.473C568.113 109.556 567.939 109.676 567.793 109.828C567.647 109.98 567.531 110.16 567.453 110.358C567.375 110.556 567.335 110.768 567.337 110.982V114.472C567.344 114.898 567.512 115.304 567.806 115.604C568.1 115.904 568.496 116.074 568.91 116.077Z" fill="#E6E6E6"/>
<path d="M384.928 116.077C385.333 116.06 385.717 115.884 386.002 115.586C386.286 115.288 386.45 114.89 386.46 114.472V110.982C386.46 110.549 386.293 110.133 385.995 109.827C385.698 109.521 385.294 109.349 384.873 109.349C384.666 109.349 384.46 109.391 384.268 109.473C384.076 109.556 383.902 109.676 383.756 109.828C383.61 109.98 383.494 110.16 383.416 110.358C383.338 110.556 383.299 110.768 383.3 110.982V114.472C383.304 114.688 383.349 114.901 383.433 115.098C383.517 115.296 383.638 115.475 383.789 115.624C383.94 115.773 384.119 115.89 384.314 115.968C384.51 116.046 384.718 116.083 384.928 116.077Z" fill="#E6E6E6"/>
<path opacity="0.4" d="M367.652 236.12L563.12 236.12V109.321L367.652 109.321V236.12Z" fill="#E0E0E0"/>
<path d="M547.16 109.321C547.16 109.917 547.331 110.5 547.653 110.996C547.975 111.492 548.433 111.878 548.968 112.107C549.503 112.335 550.092 112.395 550.66 112.278C551.228 112.162 551.75 111.875 552.16 111.453C552.569 111.031 552.848 110.494 552.961 109.909C553.074 109.324 553.016 108.718 552.795 108.167C552.573 107.616 552.198 107.145 551.716 106.814C551.234 106.482 550.668 106.305 550.089 106.305C549.312 106.305 548.567 106.623 548.018 107.189C547.468 107.754 547.16 108.521 547.16 109.321Z" fill="#E6E6E6"/>
<path d="M270.522 524.784H286.197V384.807H270.522V524.784Z" fill="#F0F0F0"/>
<path d="M100.48 533.649H280.177V524.784H100.48V533.649Z" fill="#F0F0F0"/>
<path d="M270.522 384.807H94.459V524.784H270.522V384.807Z" fill="#F5F5F5"/>
<path d="M248.541 402.034H116.44C111.108 402.034 106.785 406.484 106.785 411.974V437.995C106.785 443.484 111.108 447.935 116.44 447.935H248.541C253.874 447.935 258.196 443.484 258.196 437.995V411.974C258.196 406.484 253.874 402.034 248.541 402.034Z" fill="#F0F0F0"/>
<path d="M248.541 461.643H116.44C111.108 461.643 106.785 466.093 106.785 471.583V497.604C106.785 503.094 111.108 507.544 116.44 507.544H248.541C253.874 507.544 258.196 503.094 258.196 497.604V471.583C258.196 466.093 253.874 461.643 248.541 461.643Z" fill="#F0F0F0"/>
<path d="M149.689 428.139H215.292C216.103 428.139 216.88 427.809 217.455 427.22C218.029 426.631 218.353 425.833 218.357 424.998C218.353 424.163 218.029 423.362 217.455 422.771C216.881 422.181 216.104 421.847 215.292 421.843H149.689C148.877 421.847 148.1 422.181 147.526 422.771C146.952 423.362 146.628 424.163 146.625 424.998C146.628 425.833 146.953 426.631 147.527 427.22C148.101 427.809 148.879 428.139 149.689 428.139Z" fill="#F5F5F5"/>
<path d="M149.689 487.748H215.292C216.103 487.748 216.88 487.418 217.455 486.829C218.029 486.241 218.353 485.442 218.357 484.607C218.353 483.772 218.029 482.972 217.455 482.381C216.881 481.79 216.104 481.456 215.292 481.453H149.689C148.877 481.456 148.1 481.79 147.526 482.381C146.952 482.972 146.628 483.772 146.625 484.607C146.628 485.442 146.953 486.241 147.527 486.829C148.101 487.418 148.879 487.748 149.689 487.748Z" fill="#F5F5F5"/>
<path d="M339 596.874C484.204 596.874 601.915 589.799 601.915 581.071C601.915 572.343 484.204 565.268 339 565.268C193.796 565.268 76.085 572.343 76.085 581.071C76.085 589.799 193.796 596.874 339 596.874Z" fill="#F5F5F5"/>
<path d="M397.104 141.624H146.516L165.988 492.956H416.563L397.104 141.624Z" fill="#263238"/>
<path d="M401.973 141.624H151.384L170.856 492.956H421.445L401.973 141.624Z" fill="#A8DADC"/>
<path opacity="0.5" d="M384.711 153.434H162.842L178.748 471.457H406.379L384.711 153.434Z" fill="black"/>
<path d="M162.842 153.434C179.331 259.447 168.022 365.459 184.538 471.457H412.142C395.653 365.459 406.962 259.447 390.446 153.434H162.842Z" fill="white"/>
<g opacity="0.3">
<path d="M209.38 248.725C214.406 248.767 219.226 250.793 222.844 254.385C226.462 257.977 228.603 262.862 228.825 268.032C228.926 270.519 228.535 273.001 227.675 275.327C226.814 277.653 225.503 279.775 223.821 281.563C222.139 283.351 220.121 284.768 217.89 285.727C215.659 286.686 213.262 287.168 210.844 287.143C205.849 287.101 201.061 285.081 197.474 281.502C193.886 277.923 191.774 273.059 191.576 267.92C191.471 265.441 191.853 262.965 192.699 260.641C193.545 258.317 194.837 256.192 196.498 254.393C198.164 252.611 200.166 251.196 202.381 250.236C204.595 249.276 206.977 248.791 209.38 248.809M209.244 244.775C206.322 244.756 203.426 245.351 200.734 246.524C198.042 247.696 195.611 249.422 193.589 251.595C191.567 253.768 189.997 256.343 188.975 259.162C187.952 261.981 187.499 264.985 187.643 267.99C187.88 274.195 190.428 280.067 194.757 284.39C199.087 288.712 204.867 291.153 210.899 291.206C213.835 291.231 216.745 290.642 219.454 289.475C222.163 288.308 224.613 286.587 226.657 284.417C228.7 282.246 230.295 279.671 231.343 276.848C232.392 274.024 232.873 271.011 232.757 267.99C232.466 261.759 229.866 255.879 225.493 251.561C221.119 247.242 215.304 244.814 209.244 244.775Z" fill="#A8DADC"/>
</g>
<path d="M335.23 422.876H263.362C262.824 422.867 262.291 422.976 261.797 423.195C261.304 423.415 260.861 423.74 260.499 424.15C260.137 424.559 259.865 425.044 259.699 425.57C259.533 426.097 259.478 426.654 259.538 427.204C259.669 428.381 260.209 429.469 261.06 430.267C261.91 431.065 263.012 431.52 264.162 431.546H336.03C336.568 431.556 337.102 431.447 337.595 431.226C338.089 431.006 338.531 430.678 338.891 430.267C339.251 429.855 339.521 429.368 339.682 428.84C339.844 428.312 339.893 427.754 339.827 427.204C339.699 426.032 339.163 424.948 338.318 424.152C337.472 423.356 336.375 422.903 335.23 422.876Z" fill="#E0E0E0"/>
<path d="M373.673 404.659H261.911C261.37 404.648 260.834 404.756 260.336 404.974C259.838 405.192 259.391 405.516 259.023 405.925C258.656 406.333 258.377 406.817 258.204 407.345C258.031 407.872 257.968 408.432 258.02 408.986C258.117 410.159 258.634 411.253 259.471 412.055C260.308 412.858 261.405 413.311 262.549 413.328H374.256C374.798 413.344 375.336 413.241 375.837 413.028C376.337 412.814 376.788 412.493 377.16 412.087C377.531 411.681 377.815 411.198 377.992 410.671C378.17 410.144 378.236 409.584 378.188 409.028C378.1 407.851 377.589 406.751 376.753 405.942C375.918 405.134 374.819 404.676 373.673 404.659Z" fill="#E0E0E0"/>
<g opacity="0.3">
<path d="M211.672 323.872C216.661 323.909 221.444 325.929 225.02 329.512C228.595 333.094 230.688 337.961 230.859 343.095C230.95 345.58 230.554 348.059 229.695 350.383C228.835 352.707 227.529 354.829 225.855 356.622C224.18 358.408 222.169 359.824 219.945 360.784C217.721 361.744 215.331 362.228 212.919 362.206C207.918 362.171 203.121 360.154 199.526 356.575C195.93 352.996 193.812 348.128 193.61 342.983C193.527 340.494 193.935 338.014 194.807 335.691C195.679 333.368 196.998 331.25 198.685 329.465C200.372 327.68 202.392 326.265 204.624 325.304C206.855 324.343 209.253 323.856 211.672 323.872ZM211.672 319.824C208.734 319.805 205.822 320.398 203.112 321.566C200.402 322.734 197.948 324.453 195.899 326.621C193.851 328.789 192.248 331.361 191.188 334.182C190.128 337.003 189.633 340.016 189.732 343.039C189.972 349.261 192.534 355.147 196.883 359.474C201.232 363.8 207.034 366.234 213.082 366.269C216.011 366.28 218.913 365.681 221.611 364.508C224.309 363.334 226.749 361.61 228.783 359.439C230.816 357.268 232.402 354.696 233.444 351.878C234.486 349.059 234.963 346.053 234.846 343.039C234.643 336.838 232.117 330.957 227.797 326.63C223.477 322.302 217.699 319.863 211.672 319.824Z" fill="#A8DADC"/>
</g>
<path d="M295.337 263.132H256.894C255.764 263.122 254.681 262.667 253.869 261.859C253.056 261.051 252.576 259.952 252.528 258.79C252.509 258.229 252.601 257.669 252.798 257.145C252.994 256.621 253.291 256.142 253.67 255.738C254.05 255.335 254.504 255.014 255.007 254.794C255.51 254.575 256.05 254.463 256.596 254.463H295.025C296.155 254.472 297.239 254.925 298.055 255.729C298.872 256.534 299.359 257.629 299.418 258.79C299.438 259.354 299.347 259.917 299.151 260.444C298.955 260.971 298.657 261.451 298.276 261.857C297.895 262.262 297.438 262.584 296.933 262.803C296.428 263.023 295.885 263.134 295.337 263.132Z" fill="#E0E0E0"/>
<path d="M339.705 263.132H313.67C312.539 263.123 311.454 262.667 310.64 261.86C309.825 261.052 309.342 259.954 309.29 258.79C309.272 258.229 309.363 257.669 309.56 257.145C309.756 256.621 310.053 256.142 310.432 255.738C310.812 255.335 311.267 255.014 311.769 254.794C312.272 254.575 312.812 254.463 313.358 254.463H339.407C340.535 254.472 341.618 254.926 342.432 255.73C343.247 256.535 343.731 257.63 343.787 258.79C343.807 259.354 343.716 259.917 343.52 260.444C343.323 260.971 343.026 261.451 342.644 261.857C342.263 262.262 341.806 262.584 341.301 262.803C340.796 263.023 340.253 263.134 339.705 263.132Z" fill="#E0E0E0"/>
<path d="M360.696 281.35H257.504C256.375 281.343 255.292 280.888 254.481 280.079C253.67 279.27 253.194 278.17 253.152 277.008C253.133 276.447 253.225 275.887 253.422 275.363C253.618 274.838 253.915 274.36 254.294 273.956C254.674 273.552 255.128 273.231 255.631 273.012C256.134 272.793 256.674 272.68 257.22 272.681H360.398C361.523 272.687 362.603 273.141 363.412 273.947C364.22 274.753 364.695 275.85 364.737 277.008C364.757 277.569 364.667 278.128 364.474 278.652C364.28 279.176 363.986 279.654 363.609 280.059C363.232 280.464 362.78 280.787 362.28 281.009C361.779 281.231 361.241 281.346 360.696 281.35Z" fill="#E0E0E0"/>
<g opacity="0.3">
<path d="M214.614 398.921C219.672 399.023 224.516 401.042 228.219 404.591C231.922 408.141 234.223 412.971 234.683 418.158C234.926 420.588 234.677 423.044 233.951 425.37C233.225 427.696 232.038 429.842 230.466 431.671C228.88 433.469 226.939 434.897 224.774 435.86C222.608 436.823 220.268 437.299 217.909 437.255C212.807 437.17 207.91 435.17 204.14 431.63C200.37 428.09 197.985 423.255 197.433 418.032C197.201 415.584 197.474 413.113 198.236 410.781C198.998 408.45 200.231 406.311 201.854 404.505C203.487 402.712 205.465 401.289 207.662 400.328C209.859 399.366 212.227 398.887 214.614 398.921ZM214.424 394.887C211.52 394.828 208.637 395.402 205.963 396.571C203.29 397.74 200.887 399.477 198.911 401.669C196.936 403.861 195.432 406.458 194.5 409.29C193.568 412.122 193.227 415.125 193.501 418.102C194.545 430.917 205.841 441.317 218.289 441.317C230.737 441.317 239.659 430.917 238.629 418.102C238.091 411.841 235.322 406.006 230.856 401.72C226.39 397.434 220.542 395 214.438 394.887H214.424Z" fill="#A8DADC"/>
</g>
<path d="M378.324 347.786H259.253C258.708 347.785 258.167 347.898 257.665 348.117C257.162 348.336 256.707 348.657 256.328 349.061C255.948 349.465 255.651 349.943 255.455 350.468C255.259 350.992 255.167 351.551 255.185 352.113C255.234 353.271 255.713 354.366 256.523 355.171C257.333 355.977 258.412 356.431 259.538 356.441H378.663C379.209 356.441 379.749 356.328 380.251 356.109C380.754 355.89 381.209 355.569 381.588 355.165C381.968 354.761 382.265 354.283 382.461 353.759C382.657 353.234 382.749 352.675 382.731 352.113C382.688 350.943 382.204 349.836 381.381 349.028C380.558 348.219 379.461 347.774 378.324 347.786Z" fill="#E0E0E0"/>
<path d="M350.106 329.554H258.738C258.191 329.553 257.65 329.667 257.146 329.887C256.643 330.107 256.187 330.429 255.808 330.834C255.428 331.239 255.131 331.719 254.936 332.245C254.741 332.771 254.65 333.332 254.67 333.895C254.709 335.052 255.181 336.149 255.987 336.955C256.793 337.762 257.872 338.216 258.996 338.223H350.377C350.923 338.223 351.463 338.11 351.965 337.891C352.468 337.672 352.923 337.351 353.302 336.947C353.682 336.543 353.979 336.065 354.175 335.541C354.371 335.017 354.463 334.457 354.445 333.895C354.413 332.732 353.942 331.628 353.131 330.817C352.321 330.007 351.235 329.553 350.106 329.554Z" fill="#E0E0E0"/>
<path d="M211.441 281.601L209.841 278.893C206.329 272.988 198.993 267.725 196.471 266.175L198.369 262.713C203.35 265.817 207.787 269.763 211.495 274.384C217.258 266.413 225.679 258.218 237.083 249.368L239.537 252.634C227.333 262.085 218.682 270.782 213.136 279.06C212.58 279.912 212.01 280.764 211.441 281.601Z" fill="#A8DADC"/>
<path d="M213.475 356.706C212.946 355.799 212.404 354.891 211.861 353.998C208.336 348.093 201.013 342.83 198.518 341.266L200.444 337.804C205.399 340.917 209.812 344.861 213.502 349.475C219.278 341.517 227.767 333.309 239.347 324.458L241.747 327.725C229.381 337.176 220.675 345.873 215.156 354.151L213.475 356.706Z" fill="#A8DADC"/>
<path d="M218.126 431.978L216.336 429.27C212.431 423.365 204.864 418.102 202.261 416.552L204.024 413.09C209.148 416.216 213.764 420.15 217.706 424.747C223.021 416.79 231.103 408.581 242.331 399.745L244.866 403.011C232.879 412.462 224.648 421.159 219.645 429.438L218.126 431.978Z" fill="#A8DADC"/>
<path d="M303.879 180.084C301.493 185.445 299.048 190.801 296.543 196.152C301.706 198.795 306.119 202.763 309.359 207.673C312.598 212.583 314.555 218.269 315.039 224.184H333.061C331.867 205.212 320.016 188.697 303.879 180.084Z" fill="#A8DADC"/>
<path d="M235.225 224.212H253.246C252.805 218.964 253.733 213.69 255.936 208.936C258.139 204.181 261.536 200.12 265.776 197.171C262.268 191.81 258.707 186.45 255.091 181.089C241.937 189.856 234.073 205.924 235.225 224.212Z" fill="#263238"/>
<path d="M279.498 173.858C270.852 173.77 262.369 176.283 255.09 181.089C258.706 186.45 262.268 191.81 265.776 197.171C270.474 194.01 275.974 192.349 281.587 192.397C286.779 192.428 291.89 193.724 296.503 196.18C298.998 190.819 301.443 185.463 303.839 180.112C296.326 176.058 287.98 173.913 279.498 173.858Z" fill="#A8DADC"/>
<path opacity="0.5" d="M279.498 173.858C270.852 173.77 262.369 176.283 255.09 181.089C258.706 186.45 262.268 191.81 265.776 197.171C270.474 194.01 275.974 192.349 281.587 192.397C286.779 192.428 291.89 193.724 296.503 196.18C298.998 190.819 301.443 185.463 303.839 180.112C296.326 176.058 287.98 173.913 279.498 173.858Z" fill="#263238"/>
<path d="M301.52 211.508C301.52 211.508 283.323 219.172 281.397 220.568C280.937 220.927 280.551 221.376 280.263 221.89C279.974 222.405 279.788 222.973 279.716 223.562C279.644 224.152 279.688 224.75 279.844 225.321C279.999 225.893 280.265 226.427 280.624 226.892C281.303 227.885 282.331 228.567 283.49 228.794C284.65 229.02 285.849 228.774 286.835 228.106C288.828 226.627 301.547 211.508 301.52 211.508ZM282.4 225.468C282.223 225.239 282.093 224.977 282.016 224.695C281.939 224.414 281.918 224.119 281.953 223.829C281.988 223.539 282.08 223.259 282.222 223.006C282.364 222.753 282.554 222.531 282.78 222.355C283.268 222.031 283.858 221.913 284.429 222.025C284.999 222.137 285.506 222.47 285.845 222.955C286.022 223.184 286.152 223.447 286.229 223.728C286.306 224.01 286.327 224.304 286.292 224.594C286.257 224.884 286.165 225.164 286.023 225.417C285.881 225.67 285.691 225.892 285.465 226.068C284.983 226.397 284.397 226.524 283.828 226.423C283.258 226.322 282.747 226 282.4 225.524V225.468Z" fill="#263238"/>
<path d="M323.094 202.643C323.183 203.484 323.097 204.334 322.841 205.137C322.586 205.94 322.167 206.678 321.613 207.302C321.058 207.925 320.381 208.42 319.627 208.753C318.872 209.086 318.057 209.249 317.236 209.233C315.497 209.197 313.83 208.508 312.551 207.294C311.272 206.08 310.469 204.425 310.294 202.643C310.201 201.808 310.282 200.961 310.533 200.161C310.784 199.36 311.198 198.624 311.747 198.001C312.297 197.379 312.969 196.884 313.719 196.551C314.469 196.217 315.28 196.053 316.097 196.068C317.841 196.099 319.515 196.783 320.803 197.994C322.091 199.205 322.906 200.858 323.094 202.643Z" fill="white"/>
<path d="M315.161 201.136C315.174 201.268 315.161 201.402 315.12 201.529C315.08 201.656 315.014 201.772 314.927 201.871C314.84 201.97 314.734 202.049 314.615 202.102C314.497 202.156 314.369 202.183 314.239 202.183C313.961 202.181 313.693 202.072 313.488 201.879C313.282 201.686 313.154 201.421 313.127 201.136C313.112 201.003 313.124 200.868 313.163 200.74C313.203 200.612 313.269 200.495 313.356 200.396C313.443 200.296 313.551 200.218 313.67 200.165C313.79 200.112 313.919 200.086 314.049 200.089C314.327 200.091 314.595 200.199 314.8 200.392C315.006 200.586 315.134 200.851 315.161 201.136Z" fill="#263238"/>
<path d="M320.016 201.136C320.03 201.27 320.015 201.405 319.974 201.532C319.933 201.66 319.866 201.777 319.777 201.876C319.689 201.975 319.581 202.054 319.461 202.107C319.341 202.16 319.211 202.185 319.08 202.183C318.804 202.175 318.539 202.064 318.335 201.872C318.131 201.68 318.001 201.419 317.968 201.136C317.953 201.002 317.965 200.865 318.006 200.737C318.046 200.608 318.113 200.49 318.202 200.39C318.291 200.291 318.4 200.212 318.521 200.16C318.642 200.108 318.773 200.084 318.904 200.089C319.182 200.091 319.45 200.199 319.655 200.392C319.861 200.586 319.989 200.851 320.016 201.136Z" fill="#263238"/>
<path d="M316.992 206.608C315.65 206.597 314.361 206.075 313.371 205.142C313.279 205.046 313.227 204.915 313.227 204.779C313.227 204.643 313.279 204.513 313.371 204.416C313.417 204.367 313.472 204.328 313.532 204.302C313.593 204.275 313.658 204.261 313.724 204.261C313.79 204.261 313.855 204.275 313.916 204.302C313.976 204.328 314.031 204.367 314.076 204.416C314.879 205.178 315.928 205.606 317.019 205.617C317.526 205.629 318.029 205.53 318.496 205.328C318.964 205.126 319.384 204.825 319.731 204.444C319.823 204.344 319.949 204.286 320.083 204.282C320.149 204.28 320.215 204.292 320.276 204.316C320.338 204.34 320.395 204.377 320.443 204.423C320.491 204.47 320.53 204.526 320.557 204.588C320.584 204.65 320.599 204.717 320.6 204.785C320.602 204.853 320.591 204.921 320.568 204.985C320.544 205.048 320.509 205.107 320.463 205.156C320.017 205.636 319.476 206.014 318.878 206.264C318.28 206.514 317.637 206.631 316.992 206.608Z" fill="#263238"/>
<path d="M286.957 183.016C287.069 183.846 287.004 184.692 286.768 185.495C286.531 186.297 286.128 187.037 285.587 187.664C285.045 188.29 284.378 188.788 283.631 189.124C282.884 189.459 282.076 189.623 281.261 189.605C279.507 189.563 277.826 188.875 276.522 187.666C275.219 186.457 274.379 184.807 274.156 183.016C274.035 182.189 274.091 181.345 274.321 180.543C274.551 179.74 274.949 179 275.486 178.373C276.024 177.746 276.689 177.249 277.433 176.915C278.178 176.581 278.985 176.419 279.797 176.441C281.554 176.483 283.239 177.168 284.551 178.373C285.863 179.577 286.716 181.223 286.957 183.016Z" fill="white"/>
<path d="M278.983 181.48C279.001 181.611 278.99 181.745 278.953 181.871C278.916 181.998 278.853 182.115 278.768 182.214C278.683 182.314 278.579 182.393 278.461 182.447C278.344 182.501 278.217 182.528 278.088 182.527C277.808 182.52 277.54 182.411 277.332 182.219C277.123 182.027 276.988 181.765 276.949 181.48C276.929 181.349 276.937 181.214 276.974 181.086C277.01 180.959 277.073 180.841 277.158 180.741C277.244 180.641 277.349 180.561 277.468 180.508C277.586 180.455 277.715 180.429 277.844 180.433C278.124 180.437 278.394 180.546 278.603 180.738C278.812 180.93 278.947 181.194 278.983 181.48Z" fill="#263238"/>
<path d="M283.824 181.48C283.842 181.612 283.831 181.747 283.793 181.875C283.756 182.002 283.691 182.12 283.605 182.22C283.518 182.319 283.412 182.398 283.293 182.451C283.174 182.505 283.045 182.53 282.916 182.527C282.637 182.517 282.37 182.407 282.162 182.216C281.954 182.024 281.818 181.764 281.776 181.48C281.759 181.348 281.769 181.213 281.807 181.085C281.845 180.958 281.909 180.84 281.996 180.74C282.082 180.641 282.188 180.562 282.307 180.509C282.426 180.456 282.555 180.43 282.685 180.433C282.965 180.44 283.233 180.549 283.441 180.741C283.65 180.933 283.786 181.195 283.824 181.48Z" fill="#263238"/>
<path d="M283.96 185.668H277.614C277.493 185.648 277.383 185.584 277.304 185.488C277.225 185.392 277.182 185.27 277.182 185.144C277.182 185.019 277.225 184.897 277.304 184.801C277.383 184.705 277.493 184.641 277.614 184.621H283.96C284.08 184.641 284.19 184.705 284.269 184.801C284.348 184.897 284.392 185.019 284.392 185.144C284.392 185.27 284.348 185.392 284.269 185.488C284.19 185.584 284.08 185.648 283.96 185.668Z" fill="#263238"/>
<path d="M254.751 202.643C254.84 203.484 254.754 204.334 254.499 205.137C254.243 205.94 253.824 206.678 253.27 207.302C252.716 207.925 252.039 208.42 251.284 208.753C250.529 209.086 249.714 209.249 248.893 209.233C247.154 209.197 245.487 208.508 244.208 207.294C242.929 206.08 242.126 204.425 241.951 202.643C241.858 201.808 241.94 200.961 242.19 200.161C242.441 199.36 242.855 198.624 243.404 198.001C243.954 197.379 244.626 196.884 245.377 196.551C246.127 196.217 246.937 196.053 247.754 196.068C249.498 196.102 251.169 196.787 252.457 197.998C253.745 199.208 254.561 200.859 254.751 202.643Z" fill="white"/>
<path d="M246.792 201.136C246.805 201.268 246.791 201.402 246.751 201.529C246.711 201.656 246.645 201.772 246.558 201.871C246.471 201.97 246.365 202.049 246.246 202.102C246.128 202.156 245.999 202.183 245.87 202.183C245.592 202.181 245.324 202.072 245.119 201.879C244.913 201.686 244.785 201.421 244.758 201.136C244.742 201.003 244.755 200.868 244.794 200.74C244.834 200.612 244.899 200.495 244.987 200.396C245.074 200.296 245.181 200.218 245.301 200.165C245.421 200.112 245.55 200.086 245.68 200.089C245.958 200.091 246.226 200.199 246.431 200.392C246.637 200.586 246.765 200.851 246.792 201.136Z" fill="#263238"/>
<path d="M251.646 201.136C251.662 201.269 251.65 201.404 251.61 201.531C251.571 201.659 251.505 201.777 251.418 201.876C251.33 201.975 251.223 202.054 251.103 202.107C250.984 202.16 250.855 202.186 250.724 202.183C250.448 202.175 250.183 202.064 249.979 201.872C249.775 201.68 249.645 201.419 249.612 201.136C249.597 201.003 249.609 200.868 249.649 200.74C249.688 200.612 249.754 200.495 249.841 200.396C249.929 200.296 250.036 200.218 250.156 200.165C250.275 200.112 250.404 200.086 250.535 200.089C250.814 200.088 251.083 200.195 251.289 200.389C251.495 200.583 251.623 200.849 251.646 201.136Z" fill="#263238"/>
<path d="M245.436 206.608C245.373 206.609 245.311 206.597 245.253 206.573C245.195 206.549 245.142 206.514 245.097 206.468C245.004 206.372 244.952 206.241 244.952 206.105C244.952 205.97 245.004 205.839 245.097 205.743C245.537 205.261 246.069 204.879 246.659 204.619C247.249 204.36 247.886 204.229 248.528 204.235C249.871 204.25 251.161 204.777 252.148 205.715C252.196 205.761 252.234 205.818 252.259 205.88C252.285 205.943 252.299 206.01 252.299 206.078C252.299 206.145 252.285 206.212 252.259 206.275C252.234 206.337 252.196 206.394 252.148 206.441C252.05 206.534 251.922 206.585 251.789 206.585C251.656 206.585 251.527 206.534 251.429 206.441C250.627 205.67 249.571 205.241 248.473 205.24C247.968 205.228 247.466 205.325 246.999 205.525C246.532 205.724 246.11 206.022 245.761 206.399C245.682 206.508 245.566 206.583 245.436 206.608Z" fill="#263238"/>
<path d="M348.139 154.342C343.908 145.17 334.037 139.097 323.392 139.097H301.696C300.206 139.165 298.726 138.826 297.404 138.115C296.083 137.405 294.967 136.347 294.17 135.049C291.146 129.214 283.933 125.054 275.742 125.054C267.552 125.054 260.826 129.242 258.44 135.049C257.45 137.506 254.616 139.097 251.361 139.097H229.665C219.021 139.097 209.814 145.17 206.613 154.342C206.495 154.662 206.448 155.006 206.478 155.347C206.513 156.063 206.814 156.738 207.319 157.232C207.823 157.725 208.493 158 209.19 157.999H345.983C346.401 158 346.812 157.89 347.177 157.679C347.541 157.469 347.847 157.165 348.064 156.797C348.28 156.429 348.401 156.01 348.415 155.58C348.428 155.149 348.333 154.723 348.139 154.342ZM276.624 141.624C275.005 141.59 273.458 140.933 272.286 139.784C271.114 138.634 270.403 137.075 270.291 135.412C270.237 134.611 270.344 133.808 270.607 133.052C270.869 132.296 271.281 131.604 271.816 131.021C272.351 130.437 272.998 129.974 273.716 129.66C274.434 129.347 275.207 129.19 275.986 129.2C277.615 129.217 279.178 129.866 280.362 131.018C281.546 132.17 282.264 133.739 282.373 135.412C282.428 136.218 282.319 137.026 282.053 137.786C281.788 138.545 281.371 139.24 280.83 139.824C280.289 140.409 279.635 140.871 278.911 141.181C278.187 141.491 277.408 141.642 276.624 141.624Z" fill="#263238"/>
<path d="M488.729 571.117C487.668 571.252 486.596 570.979 485.719 570.35C485.604 570.202 485.533 570.023 485.516 569.834C485.499 569.645 485.537 569.456 485.624 569.289C485.689 569.145 485.785 569.019 485.905 568.92C486.025 568.82 486.166 568.751 486.316 568.716C487.916 568.256 491.618 570.294 491.74 570.392C491.786 570.412 491.824 570.448 491.849 570.494C491.873 570.539 491.883 570.591 491.875 570.643C491.873 570.689 491.856 570.734 491.827 570.769C491.797 570.805 491.757 570.829 491.713 570.838C490.728 571.019 489.73 571.112 488.729 571.117ZM486.939 569.135C486.791 569.112 486.64 569.112 486.492 569.135C486.399 569.153 486.312 569.192 486.237 569.25C486.162 569.308 486.1 569.384 486.058 569.47C485.922 569.777 486.058 569.931 486.058 570.015C486.6 570.671 489.123 570.685 490.94 570.419C489.692 569.748 488.337 569.313 486.939 569.135Z" fill="#A8DADC"/>
<path d="M491.713 570.838H491.618C490.357 570.28 487.726 568.046 487.78 566.902C487.78 566.622 487.943 566.287 488.594 566.218C489.081 566.175 489.566 566.325 489.95 566.636C490.964 567.731 491.651 569.102 491.929 570.587C491.946 570.622 491.955 570.66 491.955 570.699C491.955 570.738 491.946 570.776 491.929 570.81C491.898 570.833 491.862 570.848 491.824 570.853C491.787 570.857 491.748 570.853 491.713 570.838ZM488.824 566.65H488.689C488.268 566.65 488.255 566.86 488.255 566.916C488.255 567.614 490.031 569.359 491.346 570.112C491.089 568.921 490.511 567.827 489.679 566.957C489.433 566.767 489.131 566.669 488.824 566.678V566.65Z" fill="#A8DADC"/>
<path d="M502.642 570.601H492.676L489.109 546.841H499.076L502.642 570.601Z" fill="#FFC3BD"/>
<path d="M492.608 569.414H503.456C503.66 569.42 503.858 569.49 504.023 569.615C504.188 569.74 504.311 569.913 504.378 570.112L507.334 579.228C507.396 579.433 507.412 579.649 507.381 579.861C507.349 580.072 507.271 580.274 507.151 580.449C507.032 580.624 506.875 580.769 506.693 580.872C506.511 580.975 506.308 581.034 506.1 581.043C502.167 581.043 496.472 580.75 491.536 580.75C485.773 580.75 486.289 581.071 479.522 581.071C475.454 581.071 473.841 576.813 475.454 576.422C483.061 574.677 483.943 574.482 490.207 570.21C490.909 569.697 491.747 569.42 492.608 569.414Z" fill="#263238"/>
<path opacity="0.2" d="M489.109 546.855L490.954 559.098H500.92L499.076 546.855H489.109Z" fill="black"/>
<path d="M501.503 314.728L494.723 321.778L505.11 325.561C505.11 325.561 509.178 319.81 506.317 315.873L501.503 314.728Z" fill="#FFC3BD"/>
<path d="M492.445 331.634L502.818 333.197L505.137 325.561L494.75 321.778L492.445 331.634Z" fill="#FFC3BD"/>
<path d="M506.032 227.925C506.913 229.879 507.618 231.541 508.323 233.355C509.029 235.17 509.679 236.915 510.357 238.702C511.646 242.29 512.798 245.947 513.87 249.647C514.96 253.39 515.865 257.187 516.582 261.024L517.097 263.956L517.517 266.943C517.666 267.934 517.761 268.967 517.843 269.986C517.924 271.005 518.06 271.927 518.06 273.211V275.026V276.631L517.978 278.209L517.829 279.703C517.653 281.713 517.395 283.597 517.151 285.51C516.609 289.279 515.985 292.965 515.293 296.678C513.856 303.979 512.283 311.113 510.385 318.302L498.031 315.789C498.818 308.697 499.632 301.494 500.282 294.402C500.594 290.857 500.933 287.325 501.123 283.863C501.204 282.16 501.299 280.428 501.299 278.795V277.567V276.436V275.305L501.204 274.384C501.143 273.648 501.043 272.917 500.906 272.192C500.784 271.41 500.676 270.629 500.499 269.833L499.998 267.446L499.415 265.045C498.574 261.834 497.625 258.609 496.54 255.384C495.455 252.159 494.248 248.949 492.974 245.766C492.35 244.16 491.699 242.569 491.021 241.005C490.343 239.442 489.665 237.809 489 236.454L506.032 227.925Z" fill="#263238"/>
<path d="M459.209 309.73C459.209 309.73 460.864 388.242 465.339 419.512C470.003 452.039 487.035 556.725 487.035 556.725H503.903C503.903 556.725 497.855 457.092 495.93 425.082C493.828 390.182 494.289 309.73 494.289 309.73H459.209Z" fill="#A8DADC"/>
<path d="M482.98 549.801C482.899 549.801 484.716 557.018 484.716 557.018H505.246L505.097 550.582L482.98 549.801Z" fill="#263238"/>
<path d="M455.408 182.456C455.46 181.586 455.054 180.853 454.501 180.818C453.948 180.783 453.457 181.46 453.405 182.329C453.353 183.199 453.759 183.932 454.313 183.967C454.866 184.002 455.356 183.326 455.408 182.456Z" fill="#263238"/>
<path d="M454.992 183.965C453.893 186.626 452.452 189.124 450.708 191.392C451.277 191.817 451.931 192.108 452.623 192.244C453.314 192.379 454.026 192.355 454.708 192.173L454.992 183.965Z" fill="#ED847E"/>
<path d="M458.572 177.571C458.467 177.571 458.364 177.543 458.274 177.487C457.789 177.094 457.218 176.828 456.611 176.712C456.005 176.595 455.379 176.631 454.789 176.817C454.728 176.842 454.664 176.854 454.599 176.852C454.534 176.851 454.47 176.836 454.41 176.809C454.351 176.782 454.298 176.742 454.253 176.693C454.209 176.645 454.174 176.587 454.152 176.524C454.13 176.46 454.121 176.392 454.125 176.324C454.13 176.257 454.147 176.191 454.176 176.13C454.205 176.069 454.245 176.014 454.294 175.969C454.344 175.925 454.401 175.89 454.463 175.868C455.207 175.619 455.997 175.56 456.768 175.697C457.538 175.833 458.264 176.16 458.884 176.65C458.987 176.733 459.054 176.853 459.071 176.986C459.089 177.119 459.056 177.254 458.979 177.362C458.931 177.426 458.87 177.479 458.799 177.515C458.729 177.552 458.651 177.571 458.572 177.571Z" fill="#263238"/>
<path d="M481.787 191.978C480.105 199.488 478.207 213.239 483.143 218.237C483.143 218.237 480.892 225.845 467.345 225.845C452.429 225.845 460.498 218.237 460.498 218.237C468.634 216.24 468.701 210.042 467.481 204.207L481.787 191.978Z" fill="#FFC3BD"/>
<path d="M488.39 221.755C489.855 218.697 491.468 215.179 488.39 214.091C485.027 212.876 466.437 211.648 459.914 213.909C458.172 214.366 456.677 215.517 455.759 217.109C454.841 218.701 454.575 220.603 455.019 222.397L488.39 221.755Z" fill="#A8DADC"/>
<path d="M502.656 221.182C511.239 225.259 515.605 256.166 515.605 256.166L498.316 261.75C495.228 253.572 492.722 245.174 490.818 236.622C488.16 223.723 493.869 217.022 502.656 221.182Z" fill="#263238"/>
<path d="M396.399 269.274L388.426 262.211L381.253 272.96C381.253 272.96 387.694 278.279 394.813 276.101L396.399 269.274Z" fill="#FFC3BD"/>
<path d="M377.917 258.79L376.819 269.414L381.253 272.96L388.426 262.211L377.917 258.79Z" fill="#FFC3BD"/>
<path d="M483.617 180.545C482.614 191.21 482.546 197.492 477.122 202.964C475.375 204.746 473.19 206.005 470.802 206.606C468.413 207.208 465.911 207.13 463.562 206.38C461.214 205.629 459.107 204.236 457.469 202.348C455.83 200.461 454.721 198.15 454.26 195.663C452.362 186.087 454.26 170.256 464.606 166.012C466.809 165.035 469.222 164.67 471.604 164.955C473.987 165.241 476.255 166.166 478.18 167.638C480.106 169.11 481.622 171.077 482.576 173.342C483.53 175.608 483.89 178.091 483.617 180.545Z" fill="#FFC3BD"/>
<path d="M462.396 183.965C461.488 176.594 461.637 173.802 465.461 172.169C461.488 171.359 458.043 171.247 456.403 168.86C454.762 166.473 454.369 160.372 462.342 157.58C461.61 158.976 463.929 161.88 471.265 159.256C478.6 156.631 489.286 156.352 490.249 164.03C494.127 162.634 500.622 174.961 492.961 183.965C486.574 191.503 482.316 196.71 481.055 200.717C480.996 200.905 480.899 201.077 480.77 201.223C480.642 201.37 480.484 201.486 480.309 201.565C480.133 201.645 479.943 201.685 479.752 201.683C479.56 201.681 479.371 201.637 479.197 201.554C476.553 200.284 471.82 201.373 469.705 201.959C469.407 202.039 469.092 202.012 468.811 201.882C468.53 201.753 468.3 201.529 468.159 201.247C466.79 198.344 463.088 190.051 462.396 183.965Z" fill="#263238"/>
<path d="M488.811 164.965C488.811 164.965 491.957 160.4 497.991 163.793C494.889 163.644 491.784 164.04 488.811 164.965Z" fill="#263238"/>
<path d="M489.326 165.942C489.326 165.942 493.706 163.15 490.289 157.888C490.498 160.612 490.171 163.352 489.326 165.942Z" fill="#263238"/>
<path d="M467.467 184.272C466.991 186.911 465.72 189.329 463.833 191.182C461.325 193.625 459.155 191.894 459.087 188.753C459.019 185.961 460.24 181.243 463.155 179.986C466.071 178.73 467.982 181.117 467.467 184.272Z" fill="#FFC3BD"/>
<path opacity="0.3" d="M460.606 353.355C461.582 376.78 463.115 403.974 465.338 419.512C466.193 425.431 467.44 433.723 468.932 443.342C474.925 409.67 478.505 366.282 460.606 353.355Z" fill="black"/>
<path d="M453.134 571.117C451.86 571.117 450.626 570.936 450.233 570.35C450.13 570.193 450.075 570.008 450.075 569.819C450.075 569.63 450.13 569.445 450.233 569.289C450.415 569.008 450.689 568.805 451.006 568.716C452.673 568.256 456.091 570.294 456.24 570.392C456.282 570.415 456.314 570.453 456.332 570.499C456.349 570.545 456.35 570.596 456.335 570.643C456.325 570.691 456.302 570.735 456.268 570.77C456.234 570.805 456.192 570.828 456.145 570.838C455.151 571.017 454.144 571.11 453.134 571.117ZM451.629 569.135C451.476 569.112 451.321 569.112 451.168 569.135C451.071 569.154 450.979 569.194 450.897 569.252C450.815 569.309 450.746 569.384 450.694 569.47C450.517 569.777 450.572 569.931 450.626 570.015C451.073 570.671 453.582 570.685 455.453 570.419C454.273 569.737 452.973 569.301 451.629 569.135Z" fill="#A8DADC"/>
<path d="M456.159 570.838H456.064C454.884 570.28 452.565 568.046 452.796 566.902C452.796 566.622 453.04 566.287 453.691 566.218C453.933 566.186 454.178 566.207 454.412 566.279C454.645 566.352 454.862 566.473 455.047 566.636C456.281 567.711 456.403 570.475 456.403 570.587C456.402 570.63 456.391 570.673 456.373 570.711C456.354 570.75 456.327 570.784 456.294 570.81C456.252 570.832 456.205 570.842 456.159 570.838ZM453.867 566.65H453.731C453.297 566.65 453.27 566.86 453.257 566.916C453.121 567.614 454.681 569.359 455.887 570.112C455.813 568.957 455.391 567.855 454.681 566.957C454.45 566.768 454.162 566.669 453.867 566.678V566.65Z" fill="#A8DADC"/>
<path d="M467.115 570.601H457.162L456.972 546.841H466.939L467.115 570.601Z" fill="#FFC3BD"/>
<path d="M457.257 569.414H468.105C468.299 569.412 468.488 569.48 468.637 569.608C468.786 569.736 468.886 569.915 468.918 570.112L470.586 579.228C470.624 579.453 470.614 579.683 470.555 579.903C470.497 580.123 470.392 580.327 470.248 580.5C470.104 580.673 469.925 580.812 469.723 580.906C469.522 580.999 469.302 581.046 469.081 581.043C465.162 581.043 459.494 580.75 454.572 580.75C448.795 580.75 443.805 581.071 437.039 581.071C432.971 581.071 431.967 576.813 433.689 576.422C441.541 574.677 447.914 574.482 454.789 570.21C455.526 569.719 456.379 569.444 457.257 569.414Z" fill="#263238"/>
<path opacity="0.2" d="M456.985 546.855L457.067 559.098H467.033L466.952 546.855H456.985Z" fill="black"/>
<path d="M441.432 309.73C441.432 309.73 437.364 386.413 437.446 417.683C437.446 450.21 453.446 556.725 453.446 556.725H470.315C470.315 556.725 465.922 452.109 467.82 420.196C469.84 385.296 479.631 309.758 479.631 309.758L441.432 309.73Z" fill="#A8DADC"/>
<path d="M450.436 549.801C450.355 549.801 451.128 557.018 451.128 557.018H471.658L472.444 550.582L450.436 549.801Z" fill="#263238"/>
<path d="M445.067 221.084C445.067 221.084 428.089 265.24 435.48 341.559H497.476C498.127 333.183 491.645 260.228 500.893 220.554C495.027 219.385 489.093 218.611 483.129 218.237C475.587 217.79 468.026 217.79 460.484 218.237C455.281 218.776 450.127 219.728 445.067 221.084Z" fill="#263238"/>
<path opacity="0.2" d="M436.293 261.052C435.371 268.032 434.612 276.003 434.124 284.784C446.165 273.393 450.287 245.012 450.287 245.012L436.293 261.052Z" fill="black"/>
<path d="M451.453 242.108C449.012 248.641 446.544 254.937 443.832 261.261C441.12 267.585 438.314 273.825 435.154 280.079L433.92 282.411L433.296 283.583C433.039 284.058 433.066 284.086 432.361 285.3C431.145 287.269 429.46 288.884 427.466 289.991C425.817 290.884 424.017 291.443 422.164 291.638C419.616 291.878 417.048 291.666 414.57 291.01C412.611 290.511 410.69 289.867 408.821 289.084C405.465 287.654 402.216 285.974 399.098 284.058C397.566 283.151 396.101 282.173 394.65 281.266C393.199 280.359 391.884 279.2 390.325 278.083L397.647 266.524C402.902 269.505 408.418 271.968 414.122 273.881C415.333 274.266 416.571 274.556 417.824 274.747C418.54 274.904 419.279 274.904 419.994 274.747C420.075 274.747 419.818 274.663 419.37 274.9C418.825 275.186 418.359 275.609 418.014 276.129C417.729 276.617 418.096 275.891 418.218 275.612L418.706 274.509L419.682 272.318C422.258 266.399 424.645 260.27 426.964 254.17C429.283 248.069 431.534 241.703 433.608 235.547L451.453 242.108Z" fill="#263238"/>
<path d="M458.192 225.719C461.366 234.849 438.91 271.606 438.91 271.606L425.594 258.023C425.594 258.023 428.998 246.478 433.486 232.574C437.907 218.907 455.169 216.994 458.192 225.719Z" fill="#263238"/>
</svg>
