<svg width="500" height="500" viewBox="0 0 500 500" fill="none" xmlns="http://www.w3.org/2000/svg">
<path d="M76.67 206.63C87.94 155.54 138.67 117.33 175.94 117.19C217.94 117.03 253.73 149.19 281.94 152.03C306.82 154.54 337.63 117.96 381.94 127.19C417.94 134.69 437.94 188.51 431.94 222.65C420.81 286.01 391.94 323.85 351.62 331.16C333.96 334.37 325.62 328.78 316.94 330.41C278.31 337.64 252.18 386.07 168.94 390.41C104.94 393.68 52.23 317.41 76.67 206.63Z" fill="#1D3557"/>
<path opacity="0.9" d="M76.67 206.63C87.94 155.54 138.67 117.33 175.94 117.19C217.94 117.03 253.73 149.19 281.94 152.03C306.82 154.54 337.63 117.96 381.94 127.19C417.94 134.69 437.94 188.51 431.94 222.65C420.81 286.01 391.94 323.85 351.62 331.16C333.96 334.37 325.62 328.78 316.94 330.41C278.31 337.64 252.18 386.07 168.94 390.41C104.94 393.68 52.23 317.41 76.67 206.63Z" fill="#457B9D"/>
<path d="M250 427.01C357.082 427.01 443.89 421.942 443.89 415.69C443.89 409.438 357.082 404.37 250 404.37C142.917 404.37 56.1099 409.438 56.1099 415.69C56.1099 421.942 142.917 427.01 250 427.01Z" fill="#F5F5F5"/>
<path d="M363.45 145.83H330.89L307.89 409.08H340.45C345.02 408.992 349.4 407.235 352.763 404.14C356.127 401.045 358.242 396.827 358.71 392.28L378.8 162.62C379.034 160.48 378.808 158.315 378.139 156.269C377.47 154.223 376.373 152.343 374.921 150.755C373.468 149.166 371.694 147.905 369.716 147.056C367.738 146.207 365.602 145.789 363.45 145.83Z" fill="#1D3557"/>
<path d="M356.81 145.83H246.61C242.04 145.916 237.659 147.67 234.294 150.763C230.928 153.856 228.811 158.073 228.34 162.62L208.25 392.28C208.019 394.418 208.245 396.581 208.913 398.626C209.581 400.67 210.677 402.549 212.126 404.137C213.576 405.726 215.347 406.988 217.322 407.841C219.296 408.693 221.43 409.115 223.58 409.08H333.77C338.334 408.982 342.705 407.221 346.062 404.128C349.419 401.034 351.531 396.821 352 392.28L372.09 162.62C372.323 160.486 372.099 158.327 371.434 156.286C370.77 154.245 369.679 152.369 368.234 150.782C366.789 149.194 365.024 147.932 363.054 147.078C361.085 146.224 358.956 145.799 356.81 145.83Z" fill="#1D3557"/>
<path opacity="0.3" d="M356.81 145.83H246.61C242.04 145.916 237.659 147.67 234.294 150.763C230.928 153.856 228.811 158.073 228.34 162.62L208.25 392.28C208.019 394.418 208.245 396.581 208.913 398.626C209.581 400.67 210.677 402.549 212.126 404.137C213.576 405.726 215.347 406.988 217.322 407.841C219.296 408.693 221.43 409.115 223.58 409.08H333.77C338.334 408.982 342.705 407.221 346.062 404.128C349.419 401.034 351.531 396.821 352 392.28L372.09 162.62C372.323 160.486 372.099 158.327 371.434 156.286C370.77 154.245 369.679 152.369 368.234 150.782C366.789 149.194 365.024 147.932 363.054 147.078C361.085 146.224 358.956 145.799 356.81 145.83Z" fill="white"/>
<path opacity="0.4" d="M356.34 151.21H327.28C326.414 151.217 325.57 151.484 324.857 151.976C324.144 152.468 323.594 153.163 323.28 153.97C322.134 156.936 320.13 159.493 317.525 161.315C314.919 163.137 311.829 164.142 308.65 164.2H291.51C288.516 164.26 285.595 163.275 283.249 161.413C280.904 159.551 279.281 156.93 278.66 154C278.495 153.207 278.057 152.498 277.424 151.994C276.79 151.489 276 151.223 275.19 151.24H246.14C243.034 151.295 240.056 152.486 237.769 154.589C235.482 156.692 234.045 159.559 233.73 162.65L213.63 392.31C213.469 393.764 213.62 395.236 214.073 396.627C214.526 398.018 215.27 399.297 216.257 400.378C217.243 401.458 218.448 402.316 219.792 402.894C221.136 403.473 222.588 403.757 224.05 403.73H334.25C337.357 403.673 340.336 402.479 342.622 400.375C344.909 398.271 346.345 395.402 346.66 392.31L366.75 162.65C366.914 161.195 366.766 159.722 366.315 158.329C365.864 156.936 365.121 155.656 364.136 154.573C363.15 153.49 361.945 152.63 360.601 152.05C359.257 151.47 357.804 151.184 356.34 151.21Z" fill="white"/>
<path d="M328.88 276H251.76C251.23 276.009 250.704 275.905 250.217 275.695C249.731 275.485 249.294 275.174 248.937 274.782C248.579 274.391 248.309 273.928 248.144 273.424C247.979 272.92 247.923 272.387 247.98 271.86L248.37 267.44C248.485 266.319 249.006 265.279 249.835 264.517C250.664 263.754 251.744 263.321 252.87 263.3H330C330.53 263.291 331.056 263.395 331.543 263.605C332.029 263.815 332.466 264.126 332.823 264.518C333.181 264.909 333.451 265.372 333.616 265.876C333.781 266.38 333.837 266.913 333.78 267.44L333.4 271.86C333.283 272.983 332.758 274.025 331.925 274.788C331.093 275.55 330.009 275.982 328.88 276Z" fill="white"/>
<path d="M327.22 295H250.09C249.56 295.009 249.035 294.905 248.549 294.695C248.062 294.485 247.626 294.174 247.269 293.782C246.913 293.39 246.644 292.927 246.48 292.423C246.316 291.92 246.262 291.387 246.32 290.86L246.7 286.44C246.817 285.32 247.338 284.281 248.167 283.519C248.996 282.757 250.074 282.323 251.2 282.3H328.33C328.86 282.291 329.386 282.395 329.873 282.605C330.359 282.815 330.796 283.126 331.153 283.518C331.511 283.909 331.781 284.372 331.946 284.876C332.111 285.38 332.167 285.913 332.11 286.44L331.72 290.86C331.603 291.98 331.082 293.019 330.253 293.781C329.424 294.543 328.346 294.977 327.22 295Z" fill="white"/>
<path opacity="0.1" d="M305.45 155.51C305.323 156.754 304.744 157.909 303.822 158.755C302.901 159.601 301.701 160.08 300.45 160.1C299.862 160.111 299.279 159.996 298.739 159.763C298.199 159.531 297.714 159.186 297.318 158.752C296.921 158.318 296.622 157.804 296.44 157.245C296.257 156.686 296.196 156.094 296.26 155.51C296.387 154.266 296.966 153.111 297.888 152.265C298.809 151.419 300.009 150.94 301.26 150.92C301.848 150.909 302.431 151.024 302.971 151.257C303.511 151.489 303.996 151.834 304.392 152.268C304.789 152.702 305.088 153.216 305.27 153.775C305.453 154.334 305.514 154.925 305.45 155.51Z" fill="black"/>
<path opacity="0.1" d="M303.37 155.51C303.3 156.189 302.983 156.819 302.48 157.282C301.978 157.744 301.323 158.007 300.64 158.02C300.319 158.026 300 157.964 299.704 157.837C299.409 157.71 299.144 157.521 298.927 157.284C298.71 157.046 298.547 156.765 298.447 156.459C298.348 156.153 298.315 155.83 298.35 155.51C298.419 154.83 298.735 154.198 299.238 153.736C299.741 153.273 300.397 153.011 301.08 153C301.401 152.995 301.72 153.059 302.015 153.186C302.309 153.314 302.574 153.503 302.79 153.74C303.006 153.977 303.17 154.257 303.27 154.563C303.37 154.868 303.404 155.191 303.37 155.51Z" fill="black"/>
<g opacity="0.8">
<path d="M342.77 163.17C342.598 163.173 342.426 163.138 342.268 163.07C342.11 163.001 341.968 162.899 341.851 162.772C341.735 162.644 341.647 162.493 341.594 162.329C341.54 162.165 341.522 161.992 341.54 161.82L341.76 159.36C341.797 158.997 341.966 158.659 342.235 158.412C342.504 158.165 342.855 158.026 343.22 158.02C343.392 158.018 343.562 158.052 343.72 158.12C343.877 158.188 344.019 158.289 344.135 158.415C344.251 158.541 344.339 158.691 344.393 158.854C344.448 159.017 344.467 159.189 344.45 159.36L344.23 161.82C344.194 162.185 344.025 162.523 343.756 162.772C343.487 163.02 343.136 163.162 342.77 163.17Z" fill="white"/>
<path d="M353.53 163.17C353.357 163.172 353.186 163.138 353.028 163.07C352.869 163.001 352.727 162.899 352.611 162.772C352.495 162.644 352.407 162.493 352.353 162.329C352.3 162.165 352.282 161.992 352.3 161.82L352.81 156.05C352.847 155.687 353.016 155.349 353.285 155.102C353.554 154.855 353.905 154.716 354.27 154.71C354.442 154.708 354.612 154.742 354.769 154.81C354.927 154.878 355.069 154.978 355.185 155.105C355.301 155.231 355.389 155.381 355.443 155.544C355.497 155.707 355.517 155.879 355.5 156.05L354.99 161.82C354.953 162.185 354.785 162.523 354.516 162.772C354.247 163.02 353.896 163.162 353.53 163.17Z" fill="white"/>
<path d="M348.15 163.17C347.977 163.172 347.806 163.138 347.648 163.07C347.49 163.001 347.348 162.899 347.231 162.772C347.115 162.644 347.027 162.493 346.973 162.329C346.92 162.165 346.902 161.992 346.92 161.82L347.28 157.71C347.317 157.344 347.487 157.004 347.758 156.755C348.029 156.506 348.382 156.366 348.75 156.36C348.922 156.357 349.093 156.392 349.251 156.46C349.409 156.529 349.55 156.631 349.666 156.759C349.781 156.886 349.868 157.037 349.921 157.201C349.973 157.366 349.99 157.539 349.97 157.71L349.61 161.82C349.573 162.184 349.405 162.523 349.136 162.772C348.867 163.02 348.516 163.162 348.15 163.17Z" fill="white"/>
</g>
<g opacity="0.8">
<path d="M250.64 163.17H243.88C243.783 163.172 243.686 163.153 243.597 163.115C243.508 163.077 243.427 163.019 243.362 162.947C243.297 162.875 243.247 162.79 243.218 162.697C243.188 162.605 243.179 162.507 243.19 162.41L243.5 158.78C243.522 158.574 243.619 158.383 243.771 158.243C243.924 158.103 244.123 158.024 244.33 158.02H251.09C251.188 158.018 251.284 158.037 251.374 158.075C251.463 158.114 251.543 158.171 251.608 158.243C251.674 158.315 251.723 158.4 251.753 158.493C251.782 158.585 251.792 158.683 251.78 158.78L251.46 162.41C251.443 162.616 251.349 162.808 251.197 162.949C251.046 163.089 250.847 163.168 250.64 163.17Z" fill="white"/>
<path d="M253.77 162.18C253.673 162.182 253.576 162.163 253.486 162.125C253.396 162.086 253.316 162.029 253.249 161.958C253.183 161.886 253.133 161.801 253.102 161.708C253.071 161.615 253.061 161.517 253.07 161.42L253.22 159.76C253.24 159.553 253.336 159.361 253.489 159.22C253.643 159.08 253.843 159.002 254.05 159C254.148 158.998 254.244 159.017 254.334 159.055C254.423 159.094 254.503 159.151 254.569 159.223C254.634 159.295 254.683 159.38 254.713 159.473C254.743 159.565 254.752 159.663 254.74 159.76L254.6 161.42C254.579 161.626 254.482 161.817 254.329 161.957C254.176 162.097 253.978 162.176 253.77 162.18Z" fill="white"/>
</g>
<path d="M316.173 246.931C329.629 234.049 330.971 213.613 319.17 201.285C307.369 188.957 286.894 189.407 273.437 202.289C259.981 215.171 258.638 235.607 270.44 247.934C282.241 260.262 302.716 259.813 316.173 246.931Z" fill="white"/>
<path d="M294.92 223.38C286.44 223.38 279.27 226.61 278.66 233.62L277.98 241.41H308.71L309.39 233.62C310 226.61 303.41 223.38 294.92 223.38Z" fill="#1D3557"/>
<path d="M295.2 220.17C299.14 220.17 300.96 216.98 301.3 213.04C301.64 209.1 300.39 205.91 296.45 205.91C292.51 205.91 290.7 209.11 290.35 213.04C290 216.97 291.26 220.17 295.2 220.17Z" fill="#1D3557"/>
<path d="M325.36 269.38C323.27 269.38 321.5 270.18 321.36 271.91L321.19 273.84H328.78L328.95 271.91C329.09 270.18 327.46 269.38 325.36 269.38Z" fill="#1D3557"/>
<path d="M325.43 268.59C326.43 268.59 326.85 267.8 326.94 266.83C327.03 265.86 326.71 265.07 325.74 265.07C324.77 265.07 324.32 265.86 324.23 266.83C324.14 267.8 324.46 268.59 325.43 268.59Z" fill="#1D3557"/>
<path d="M302 314H272C271.187 314.015 270.379 313.856 269.632 313.535C268.885 313.213 268.214 312.736 267.666 312.135C267.117 311.535 266.703 310.824 266.45 310.051C266.197 309.277 266.112 308.459 266.2 307.65C266.378 305.931 267.179 304.335 268.452 303.166C269.725 301.996 271.382 301.332 273.11 301.3H303.11C303.923 301.287 304.73 301.447 305.476 301.769C306.223 302.091 306.893 302.568 307.441 303.168C307.989 303.769 308.404 304.479 308.657 305.251C308.911 306.024 308.997 306.842 308.91 307.65C308.734 309.37 307.934 310.967 306.661 312.137C305.387 313.307 303.729 313.97 302 314Z" fill="#1D3557"/>
<path d="M298.37 384.82H266.26C265.399 384.843 264.542 384.681 263.749 384.344C262.956 384.006 262.245 383.502 261.665 382.866C261.084 382.229 260.647 381.475 260.384 380.654C260.121 379.833 260.038 378.966 260.14 378.11L262.19 354.69C262.373 352.873 263.217 351.187 264.56 349.95C265.904 348.713 267.654 348.012 269.48 347.98H301.6C302.459 347.965 303.312 348.133 304.101 348.473C304.89 348.813 305.597 349.317 306.176 349.952C306.755 350.587 307.192 351.338 307.459 352.155C307.725 352.972 307.814 353.836 307.72 354.69L305.67 378.11C305.482 379.927 304.636 381.612 303.292 382.848C301.947 384.084 300.196 384.786 298.37 384.82Z" fill="#1D3557"/>
<g opacity="0.6">
<path d="M288.47 360.6C288.523 360.089 288.466 359.573 288.304 359.085C288.142 358.597 287.878 358.15 287.531 357.772C287.183 357.394 286.759 357.094 286.286 356.892C285.814 356.69 285.304 356.59 284.79 356.6C283.696 356.616 282.646 357.031 281.837 357.768C281.028 358.505 280.517 359.512 280.4 360.6C280.337 361.208 280.427 361.823 280.663 362.387C280.899 362.952 281.273 363.448 281.75 363.83L281.05 371.9C281.016 372.206 281.047 372.515 281.142 372.808C281.237 373.1 281.394 373.369 281.601 373.596C281.809 373.824 282.062 374.004 282.345 374.125C282.627 374.247 282.933 374.306 283.24 374.3C283.892 374.286 284.516 374.035 284.995 373.593C285.474 373.15 285.774 372.548 285.84 371.9L286.55 363.83C287.086 363.464 287.535 362.985 287.867 362.427C288.199 361.869 288.404 361.246 288.47 360.6Z" fill="white"/>
</g>
<path d="M301.88 352.86H297.74L298.74 341.27C298.915 339.661 298.745 338.034 298.243 336.496C297.741 334.958 296.917 333.544 295.826 332.349C294.736 331.154 293.404 330.204 291.918 329.563C290.433 328.921 288.828 328.604 287.21 328.63C283.772 328.697 280.477 330.02 277.946 332.348C275.415 334.676 273.823 337.849 273.47 341.27L272.47 352.86H268.33L269.33 341.27C269.796 336.73 271.907 332.518 275.266 329.429C278.624 326.339 282.998 324.586 287.56 324.5C289.707 324.463 291.838 324.884 293.81 325.734C295.783 326.584 297.552 327.844 299 329.43C300.448 331.016 301.542 332.892 302.209 334.934C302.876 336.975 303.102 339.135 302.87 341.27L301.88 352.86Z" fill="#1D3557"/>
<path d="M325.87 287.13L326 286C326.027 285.738 325.998 285.474 325.916 285.224C325.833 284.974 325.699 284.744 325.521 284.549C325.344 284.355 325.127 284.2 324.886 284.095C324.644 283.99 324.383 283.937 324.12 283.94C323.56 283.952 323.023 284.167 322.611 284.547C322.198 284.926 321.938 285.443 321.88 286L321.78 287.11C321.556 287.116 321.342 287.204 321.178 287.357C321.014 287.51 320.912 287.717 320.89 287.94L320.63 290.94C320.617 291.045 320.627 291.151 320.659 291.252C320.691 291.353 320.745 291.445 320.816 291.523C320.887 291.601 320.975 291.663 321.072 291.704C321.169 291.744 321.275 291.764 321.38 291.76H325.5C325.723 291.756 325.937 291.671 326.101 291.519C326.265 291.368 326.368 291.162 326.39 290.94L326.65 287.94C326.659 287.834 326.645 287.727 326.609 287.627C326.573 287.527 326.517 287.436 326.443 287.359C326.369 287.283 326.28 287.222 326.181 287.183C326.082 287.143 325.976 287.125 325.87 287.13ZM324 284.47C324.199 284.468 324.395 284.507 324.577 284.586C324.759 284.665 324.923 284.781 325.057 284.927C325.191 285.074 325.292 285.247 325.355 285.435C325.418 285.623 325.44 285.823 325.42 286.02L325.32 287.13H322.22L322.32 286.02C322.364 285.602 322.558 285.213 322.868 284.928C323.177 284.643 323.58 284.48 324 284.47Z" fill="#1D3557"/>
<path d="M263.85 288.32L262.41 288.02C262.37 288.012 262.332 287.995 262.3 287.97C262.267 287.945 262.241 287.913 262.223 287.876C262.204 287.84 262.195 287.799 262.194 287.758C262.194 287.717 262.203 287.677 262.22 287.64L262.82 286.22C262.845 286.159 262.847 286.09 262.827 286.028C262.806 285.965 262.764 285.911 262.708 285.876C262.651 285.841 262.584 285.828 262.519 285.838C262.454 285.847 262.394 285.88 262.35 285.93L261.26 287.05C261.234 287.083 261.2 287.11 261.162 287.129C261.124 287.147 261.082 287.157 261.04 287.157C260.998 287.157 260.956 287.147 260.918 287.129C260.88 287.11 260.846 287.083 260.82 287.05L259.93 285.93C259.74 285.69 259.33 285.93 259.4 286.22L259.75 287.64C259.76 287.681 259.762 287.725 259.755 287.767C259.747 287.809 259.731 287.849 259.708 287.885C259.685 287.92 259.654 287.951 259.618 287.974C259.582 287.997 259.542 288.013 259.5 288.02L258.01 288.32C257.69 288.38 257.65 288.83 257.96 288.89L259.4 289.19C259.44 289.198 259.478 289.215 259.511 289.24C259.543 289.265 259.569 289.297 259.587 289.334C259.604 289.371 259.613 289.412 259.612 289.453C259.611 289.494 259.6 289.534 259.58 289.57L259 291C258.975 291.061 258.973 291.13 258.993 291.192C259.014 291.255 259.056 291.309 259.112 291.344C259.169 291.379 259.236 291.392 259.301 291.382C259.367 291.373 259.426 291.34 259.47 291.29L260.56 290.17C260.588 290.14 260.622 290.116 260.66 290.099C260.698 290.082 260.739 290.074 260.78 290.074C260.821 290.074 260.862 290.082 260.9 290.099C260.938 290.116 260.972 290.14 261 290.17L261.89 291.29C262.08 291.53 262.49 291.29 262.41 291L262.06 289.58C262.045 289.495 262.064 289.408 262.113 289.337C262.161 289.266 262.236 289.217 262.32 289.2L263.81 288.9C264.12 288.83 264.16 288.38 263.85 288.32Z" fill="#263238"/>
<path d="M273.31 288.32L271.87 288.02C271.83 288.012 271.792 287.995 271.76 287.97C271.727 287.945 271.701 287.913 271.683 287.876C271.664 287.84 271.654 287.799 271.654 287.758C271.654 287.717 271.662 287.677 271.68 287.64L272.28 286.22C272.305 286.159 272.307 286.09 272.287 286.028C272.266 285.965 272.224 285.911 272.168 285.876C272.111 285.841 272.044 285.828 271.979 285.838C271.913 285.847 271.854 285.88 271.81 285.93L270.72 287.05C270.694 287.083 270.66 287.11 270.622 287.129C270.584 287.147 270.542 287.157 270.5 287.157C270.458 287.157 270.416 287.147 270.378 287.129C270.34 287.11 270.306 287.083 270.28 287.05L269.39 285.93C269.2 285.69 268.79 285.93 268.87 286.22L269.22 287.64C269.229 287.682 269.229 287.725 269.22 287.768C269.212 287.81 269.195 287.85 269.171 287.885C269.146 287.921 269.115 287.951 269.079 287.974C269.043 287.997 269.002 288.013 268.96 288.02L267.47 288.32C267.15 288.38 267.11 288.83 267.42 288.89L268.86 289.19C268.9 289.198 268.938 289.215 268.97 289.24C269.003 289.265 269.029 289.297 269.047 289.334C269.066 289.37 269.075 289.411 269.076 289.452C269.076 289.493 269.067 289.533 269.05 289.57L268.45 290.99C268.425 291.051 268.423 291.12 268.443 291.182C268.464 291.245 268.506 291.299 268.562 291.334C268.619 291.369 268.685 291.382 268.751 291.372C268.816 291.363 268.876 291.33 268.92 291.28L270.01 290.16C270.038 290.13 270.072 290.106 270.11 290.089C270.148 290.072 270.189 290.064 270.23 290.064C270.271 290.064 270.312 290.072 270.35 290.089C270.388 290.106 270.422 290.13 270.45 290.16L271.34 291.28C271.53 291.52 271.94 291.28 271.87 290.99L271.52 289.57C271.511 289.529 271.511 289.486 271.519 289.444C271.526 289.403 271.542 289.363 271.566 289.328C271.589 289.292 271.619 289.262 271.654 289.238C271.689 289.215 271.728 289.198 271.77 289.19L273.26 288.89C273.58 288.83 273.62 288.38 273.31 288.32Z" fill="#263238"/>
<path d="M282.77 288.32L281.34 288.02C281.299 288.014 281.26 287.998 281.226 287.973C281.193 287.949 281.165 287.917 281.147 287.879C281.128 287.842 281.119 287.801 281.119 287.759C281.12 287.718 281.13 287.677 281.15 287.64L281.75 286.22C281.789 286.156 281.8 286.08 281.782 286.008C281.765 285.936 281.719 285.874 281.655 285.835C281.592 285.797 281.515 285.785 281.443 285.803C281.371 285.821 281.309 285.866 281.27 285.93L280.19 287.05C280.163 287.084 280.129 287.11 280.09 287.129C280.051 287.148 280.008 287.157 279.965 287.157C279.922 287.157 279.88 287.148 279.841 287.129C279.802 287.11 279.767 287.084 279.74 287.05L278.85 285.93C278.66 285.69 278.25 285.93 278.33 286.22L278.68 287.64C278.689 287.681 278.689 287.724 278.682 287.766C278.674 287.807 278.658 287.847 278.634 287.882C278.611 287.918 278.581 287.948 278.546 287.972C278.511 287.995 278.472 288.012 278.43 288.02L276.94 288.32C276.62 288.38 276.58 288.83 276.89 288.89L278.32 289.19C278.36 289.198 278.398 289.215 278.43 289.24C278.463 289.265 278.489 289.297 278.508 289.334C278.526 289.37 278.536 289.411 278.536 289.452C278.537 289.493 278.528 289.533 278.51 289.57L277.91 290.99C277.872 291.054 277.86 291.13 277.878 291.202C277.896 291.274 277.942 291.337 278.005 291.375C278.069 291.414 278.145 291.425 278.217 291.407C278.29 291.389 278.352 291.344 278.39 291.28L279.47 290.16C279.498 290.13 279.532 290.106 279.57 290.089C279.608 290.073 279.649 290.064 279.69 290.064C279.731 290.064 279.772 290.073 279.81 290.089C279.848 290.106 279.882 290.13 279.91 290.16L280.81 291.28C281 291.52 281.41 291.28 281.33 290.99L280.98 289.57C280.965 289.487 280.983 289.401 281.029 289.33C281.076 289.259 281.148 289.209 281.23 289.19L282.72 288.89C283 288.83 283.08 288.38 282.77 288.32Z" fill="#263238"/>
<path d="M292.24 288.32L290.8 288.02C290.76 288.012 290.722 287.995 290.69 287.97C290.658 287.945 290.631 287.913 290.613 287.876C290.595 287.84 290.585 287.799 290.584 287.758C290.584 287.717 290.593 287.677 290.61 287.64L291.21 286.22C291.235 286.159 291.238 286.09 291.217 286.028C291.196 285.965 291.154 285.911 291.098 285.876C291.042 285.841 290.975 285.828 290.909 285.838C290.844 285.847 290.784 285.88 290.74 285.93L289.65 287.05C289.624 287.083 289.591 287.11 289.553 287.129C289.514 287.147 289.473 287.157 289.43 287.157C289.388 287.157 289.346 287.147 289.308 287.129C289.27 287.11 289.236 287.083 289.21 287.05L288.32 285.93C288.13 285.69 287.72 285.93 287.79 286.22L288.14 287.64C288.15 287.681 288.152 287.725 288.145 287.767C288.138 287.809 288.122 287.849 288.098 287.885C288.075 287.92 288.044 287.951 288.008 287.974C287.973 287.997 287.932 288.013 287.89 288.02L286.4 288.32C286.08 288.38 286.04 288.83 286.4 288.89L287.84 289.19C287.881 289.198 287.918 289.215 287.951 289.24C287.983 289.265 288.009 289.297 288.027 289.334C288.045 289.371 288.053 289.412 288.052 289.453C288.051 289.494 288.04 289.534 288.02 289.57L287.43 290.99C287.405 291.051 287.403 291.12 287.423 291.182C287.444 291.245 287.486 291.299 287.543 291.334C287.599 291.369 287.666 291.382 287.731 291.372C287.797 291.363 287.857 291.33 287.9 291.28L288.99 290.16C289.018 290.13 289.052 290.106 289.09 290.089C289.128 290.072 289.169 290.064 289.21 290.064C289.252 290.064 289.292 290.072 289.33 290.089C289.368 290.106 289.402 290.13 289.43 290.16L290.32 291.28C290.51 291.52 290.92 291.28 290.84 290.99L290.49 289.57C290.476 289.485 290.494 289.398 290.543 289.327C290.592 289.256 290.666 289.207 290.75 289.19L292.24 288.89C292.51 288.83 292.55 288.38 292.24 288.32Z" fill="#263238"/>
<path d="M301.7 288.32L300.26 288.02C300.22 288.012 300.182 287.995 300.15 287.97C300.117 287.945 300.091 287.913 300.073 287.876C300.054 287.84 300.045 287.799 300.044 287.758C300.044 287.717 300.053 287.677 300.07 287.64L300.67 286.22C300.695 286.159 300.697 286.09 300.677 286.028C300.656 285.965 300.614 285.911 300.558 285.876C300.501 285.841 300.435 285.828 300.369 285.838C300.304 285.847 300.244 285.88 300.2 285.93L299.11 287.05C299.084 287.083 299.05 287.11 299.012 287.129C298.974 287.147 298.932 287.157 298.89 287.157C298.848 287.157 298.806 287.147 298.768 287.129C298.73 287.11 298.696 287.083 298.67 287.05L297.78 285.93C297.59 285.69 297.18 285.93 297.26 286.22L297.61 287.64C297.619 287.682 297.619 287.725 297.61 287.768C297.602 287.81 297.585 287.85 297.561 287.885C297.537 287.921 297.505 287.951 297.469 287.974C297.433 287.997 297.392 288.013 297.35 288.02L295.86 288.32C295.54 288.38 295.5 288.83 295.81 288.89L297.25 289.19C297.29 289.198 297.328 289.215 297.36 289.24C297.393 289.265 297.419 289.297 297.438 289.334C297.456 289.37 297.466 289.411 297.466 289.452C297.466 289.493 297.458 289.533 297.44 289.57L296.84 290.99C296.815 291.051 296.813 291.12 296.833 291.182C296.854 291.245 296.896 291.299 296.952 291.334C297.009 291.369 297.076 291.382 297.141 291.372C297.207 291.363 297.266 291.33 297.31 291.28L298.4 290.16C298.428 290.13 298.462 290.106 298.5 290.089C298.538 290.072 298.579 290.064 298.62 290.064C298.661 290.064 298.702 290.072 298.74 290.089C298.778 290.106 298.812 290.13 298.84 290.16L299.73 291.28C299.92 291.52 300.33 291.28 300.26 290.99L299.91 289.57C299.901 289.529 299.901 289.486 299.909 289.444C299.917 289.403 299.933 289.363 299.956 289.328C299.979 289.292 300.009 289.262 300.044 289.238C300.079 289.215 300.119 289.198 300.16 289.19L301.65 288.89C302 288.83 302 288.38 301.7 288.32Z" fill="#263238"/>
<path d="M311.16 288.32L309.72 288.02C309.68 288.012 309.642 287.995 309.61 287.97C309.577 287.945 309.551 287.913 309.534 287.876C309.516 287.839 309.508 287.798 309.509 287.757C309.51 287.716 309.521 287.676 309.54 287.64L310.14 286.22C310.159 286.189 310.172 286.154 310.178 286.117C310.183 286.081 310.181 286.044 310.173 286.008C310.164 285.972 310.148 285.938 310.126 285.909C310.104 285.879 310.077 285.854 310.045 285.835C310.014 285.816 309.979 285.803 309.942 285.798C309.906 285.792 309.869 285.794 309.833 285.803C309.797 285.812 309.764 285.827 309.734 285.849C309.704 285.871 309.679 285.899 309.66 285.93L308.58 287.05C308.553 287.084 308.519 287.11 308.48 287.129C308.441 287.147 308.398 287.157 308.355 287.157C308.312 287.157 308.27 287.147 308.231 287.129C308.192 287.11 308.158 287.084 308.13 287.05L307.24 285.93C307.05 285.69 306.64 285.93 306.72 286.22L307.07 287.64C307.079 287.681 307.08 287.724 307.072 287.766C307.064 287.807 307.048 287.847 307.025 287.882C307.001 287.918 306.971 287.948 306.936 287.972C306.901 287.995 306.862 288.012 306.82 288.02L305.33 288.32C305.01 288.38 304.97 288.83 305.28 288.89L306.71 289.19C306.75 289.198 306.788 289.215 306.821 289.24C306.853 289.265 306.879 289.297 306.898 289.334C306.916 289.37 306.926 289.411 306.926 289.452C306.927 289.493 306.918 289.533 306.9 289.57L306.3 290.99C306.262 291.054 306.25 291.13 306.268 291.202C306.286 291.274 306.332 291.337 306.395 291.375C306.459 291.414 306.535 291.425 306.608 291.407C306.68 291.389 306.742 291.344 306.78 291.28L307.86 290.16C307.888 290.13 307.922 290.106 307.96 290.089C307.998 290.073 308.039 290.064 308.08 290.064C308.122 290.064 308.162 290.073 308.2 290.089C308.238 290.106 308.272 290.13 308.3 290.16L309.19 291.28C309.237 291.332 309.3 291.367 309.369 291.379C309.438 291.391 309.509 291.38 309.571 291.346C309.632 291.312 309.68 291.259 309.708 291.194C309.735 291.13 309.739 291.058 309.72 290.99L309.37 289.57C309.355 289.487 309.373 289.401 309.419 289.33C309.466 289.259 309.538 289.209 309.62 289.19L311.11 288.89C311.43 288.83 311.47 288.38 311.16 288.32Z" fill="#263238"/>
<path d="M288.35 267.61H270.59C270.045 267.619 269.522 267.828 269.121 268.196C268.719 268.565 268.466 269.068 268.41 269.61C268.382 269.865 268.408 270.123 268.487 270.368C268.567 270.612 268.698 270.836 268.871 271.026C269.044 271.215 269.256 271.365 269.492 271.466C269.728 271.567 269.983 271.616 270.24 271.61H288C288.545 271.601 289.068 271.392 289.47 271.024C289.871 270.655 290.124 270.152 290.18 269.61C290.207 269.355 290.18 269.097 290.099 268.854C290.019 268.611 289.889 268.387 289.716 268.198C289.543 268.009 289.331 267.859 289.096 267.757C288.861 267.656 288.606 267.606 288.35 267.61Z" fill="#263238"/>
<path d="M306.39 267.61H296.08C295.536 267.62 295.015 267.829 294.615 268.197C294.215 268.566 293.964 269.069 293.91 269.61C293.882 269.864 293.908 270.122 293.987 270.365C294.066 270.609 294.195 270.832 294.368 271.022C294.54 271.211 294.75 271.361 294.985 271.463C295.22 271.564 295.474 271.614 295.73 271.61H306C306.544 271.6 307.065 271.391 307.466 271.023C307.866 270.654 308.116 270.151 308.17 269.61C308.198 269.359 308.173 269.105 308.097 268.864C308.02 268.624 307.894 268.402 307.726 268.213C307.558 268.025 307.352 267.873 307.122 267.77C306.892 267.666 306.643 267.611 306.39 267.61Z" fill="#263238"/>
<path d="M320 358.26C313.723 360.651 308.056 364.408 303.41 369.26C300.589 367.07 297.226 365.687 293.68 365.26L293.21 365.19L293.01 367.55L293.27 367.65C297.159 369.082 300.448 371.789 302.6 375.33L302.94 375.89L303.31 375.29C307.451 368.679 313.296 363.304 320.23 359.73L320.46 359.61L320.59 358.05L320 358.26Z" fill="#263238"/>
<path opacity="0.2" d="M230.64 161.37C229.366 163.595 228.582 166.067 228.34 168.62L213.45 338.84H259.53L268.79 303.35L265.74 267.85L275 232.36L272 196.87L281.26 161.37H230.64Z" fill="black"/>
<path d="M267.95 186.87L277.21 151.37H160.68L151.43 186.87L154.47 222.36L145.22 257.85L148.26 293.35L139.01 328.84H255.53L264.79 293.35L261.74 257.85L271 222.36L267.95 186.87Z" fill="#1D3557"/>
<path opacity="0.7" d="M267.95 186.87L277.21 151.37H160.68L151.43 186.87L154.47 222.36L145.22 257.85L148.26 293.35L139.01 328.84H255.53L264.79 293.35L261.74 257.85L271 222.36L267.95 186.87Z" fill="white"/>
<path opacity="0.5" d="M267.95 186.87H151.43L160.68 151.37H277.21L267.95 186.87Z" fill="white"/>
<path opacity="0.5" d="M261.74 257.85H145.22L154.47 222.36H271L261.74 257.85Z" fill="white"/>
<path opacity="0.5" d="M255.53 328.84H139L148.26 293.35H264.79L255.53 328.84Z" fill="white"/>
<path opacity="0.2" d="M252.36 201.7C251.165 202.045 249.925 202.214 248.68 202.2C246.993 202.275 245.313 201.931 243.79 201.2C243.515 201.037 243.2 200.95 242.88 200.95C242.586 200.954 242.298 201.03 242.04 201.17H241.98C241.534 201.421 241.056 201.612 240.56 201.74C239.441 202.035 238.288 202.18 237.13 202.17C236.78 202.17 236.44 202.17 236.13 202.17C235.232 202.112 234.343 201.955 233.48 201.7C233.353 201.662 233.222 201.639 233.09 201.63C232.87 201.612 232.649 201.64 232.44 201.711C232.232 201.783 232.04 201.897 231.877 202.047C231.715 202.196 231.585 202.377 231.496 202.579C231.407 202.781 231.361 202.999 231.36 203.22V204.3H186C185.167 204.3 184.342 204.464 183.572 204.784C182.802 205.103 182.102 205.571 181.514 206.16C180.925 206.75 180.458 207.45 180.14 208.221C179.822 208.991 179.659 209.817 179.66 210.65V217.04C179.658 217.874 179.82 218.701 180.137 219.472C180.454 220.244 180.921 220.945 181.51 221.536C182.099 222.127 182.799 222.596 183.569 222.915C184.34 223.235 185.166 223.4 186 223.4H237.53H237.87C238.42 223.86 239 224.32 239.62 224.79C240.24 225.26 241.12 225.91 241.93 226.49C242.207 226.69 242.539 226.798 242.88 226.798C243.221 226.798 243.554 226.69 243.83 226.49C250.31 221.79 254.47 218.55 254.47 209.65V203.25C254.473 202.994 254.415 202.741 254.301 202.512C254.187 202.283 254.02 202.084 253.813 201.933C253.607 201.781 253.368 201.681 253.115 201.641C252.862 201.6 252.603 201.62 252.36 201.7Z" fill="black"/>
<path d="M236.54 200.79H185.02C181.513 200.79 178.67 203.633 178.67 207.14V213.53C178.67 217.037 181.513 219.88 185.02 219.88H236.54C240.047 219.88 242.89 217.037 242.89 213.53V207.14C242.89 203.633 240.047 200.79 236.54 200.79Z" fill="#1D3557"/>
<path d="M247.69 198.68C246.003 198.752 244.324 198.409 242.8 197.68C242.529 197.514 242.218 197.426 241.9 197.426C241.582 197.426 241.271 197.514 241 197.68C239.473 198.41 237.791 198.753 236.1 198.68C234.856 198.693 233.616 198.525 232.42 198.18C232.179 198.099 231.922 198.076 231.671 198.114C231.42 198.152 231.181 198.25 230.975 198.398C230.769 198.547 230.601 198.742 230.485 198.969C230.37 199.195 230.31 199.446 230.31 199.7V206.1C230.31 215.01 234.47 218.25 240.95 222.95C241.226 223.15 241.559 223.258 241.9 223.258C242.241 223.258 242.574 223.15 242.85 222.95C249.33 218.25 253.49 215.01 253.49 206.1V199.7C253.489 199.445 253.427 199.195 253.311 198.968C253.194 198.742 253.025 198.547 252.818 198.399C252.611 198.25 252.372 198.153 252.12 198.115C251.869 198.077 251.612 198.099 251.37 198.18C250.174 198.525 248.935 198.694 247.69 198.68Z" fill="#1D3557"/>
<path opacity="0.3" d="M247.69 198.68C246.003 198.752 244.324 198.409 242.8 197.68C242.529 197.514 242.218 197.426 241.9 197.426C241.582 197.426 241.271 197.514 241 197.68C239.473 198.41 237.791 198.753 236.1 198.68C234.856 198.693 233.616 198.525 232.42 198.18C232.179 198.099 231.922 198.076 231.671 198.114C231.42 198.152 231.181 198.25 230.975 198.398C230.769 198.547 230.601 198.742 230.485 198.969C230.37 199.195 230.31 199.446 230.31 199.7V206.1C230.31 215.01 234.47 218.25 240.95 222.95C241.226 223.15 241.559 223.258 241.9 223.258C242.241 223.258 242.574 223.15 242.85 222.95C249.33 218.25 253.49 215.01 253.49 206.1V199.7C253.489 199.445 253.427 199.195 253.311 198.968C253.194 198.742 253.025 198.547 252.818 198.399C252.611 198.25 252.372 198.153 252.12 198.115C251.869 198.077 251.612 198.099 251.37 198.18C250.174 198.525 248.935 198.694 247.69 198.68Z" fill="white"/>
<path opacity="0.2" d="M241 197.66C239.473 198.39 237.791 198.733 236.1 198.66C234.856 198.673 233.616 198.504 232.42 198.16C232.179 198.079 231.922 198.057 231.671 198.095C231.42 198.132 231.181 198.23 230.975 198.378C230.769 198.527 230.601 198.722 230.485 198.949C230.37 199.175 230.31 199.426 230.31 199.68V206.08C230.31 214.99 234.47 218.23 240.95 222.93C241.24 223.14 241.592 223.249 241.95 223.24V197.4C241.615 197.393 241.285 197.484 241 197.66Z" fill="white"/>
<path d="M251.19 204.36C247.292 205.887 243.82 208.333 241.07 211.49C239.152 210.076 236.904 209.178 234.54 208.88H234.23V210.41L234.4 210.47C237.029 211.419 239.295 213.167 240.88 215.47L241.13 215.83L241.34 215.44C243.639 211.168 247.14 207.663 251.41 205.36L251.56 205.29V204.29L251.19 204.36Z" fill="#263238"/>
<path d="M275.15 161.36H270.73C270.161 161.371 269.597 161.26 269.075 161.035C268.552 160.81 268.084 160.477 267.701 160.056C267.317 159.636 267.028 159.139 266.852 158.598C266.676 158.057 266.617 157.485 266.68 156.92L267.07 152.5C267.19 151.298 267.747 150.182 268.636 149.363C269.524 148.545 270.682 148.081 271.89 148.06H276.31C276.88 148.048 277.445 148.158 277.969 148.382C278.492 148.606 278.962 148.939 279.346 149.36C279.731 149.78 280.021 150.278 280.198 150.819C280.374 151.361 280.433 151.934 280.37 152.5L279.98 156.92C279.846 158.118 279.283 159.227 278.395 160.043C277.508 160.859 276.355 161.327 275.15 161.36Z" fill="#1D3557"/>
<path d="M276.99 152.49L276.03 151.43L273.61 153.65L271.59 151.43L270.44 152.49L272.47 154.71L270.06 156.93L271.02 157.98L273.43 155.76L275.46 157.98L276.6 156.93L274.57 154.71L276.99 152.49Z" fill="white"/>
<path d="M176.37 199.49C178.93 202.28 181.37 205.17 183.8 208.08C186.23 210.99 188.58 213.96 190.92 216.94C191.02 217.07 190.98 217.02 191 217.06C191.02 217.1 191 217.11 191 217.12C191.017 217.157 191.041 217.191 191.07 217.22C191.155 217.341 191.264 217.444 191.389 217.523C191.514 217.602 191.654 217.655 191.8 217.68C191.913 217.695 192.027 217.695 192.14 217.68C192.2 217.685 192.26 217.685 192.32 217.68H192.41C192.46 217.68 192.41 217.68 192.57 217.62L195.07 216.26C198.43 214.48 201.82 212.74 205.32 211.18L208.25 214.81C205.43 217.4 202.49 220.65 199.52 223.03L197.28 224.79C197.141 224.904 196.994 225.007 196.84 225.1C196.67 225.221 196.493 225.331 196.31 225.43C195.948 225.638 195.574 225.825 195.19 225.99C194.415 226.316 193.602 226.541 192.77 226.66C191.088 226.907 189.37 226.735 187.77 226.16C186.956 225.871 186.183 225.478 185.47 224.99C185.11 224.75 184.77 224.47 184.47 224.2C184.3 224.06 184.16 223.9 184 223.75L183.6 223.35C180.95 220.63 178.34 217.89 175.78 215.1C173.22 212.31 170.69 209.5 168.27 206.58L176.37 199.49Z" fill="#B55B52"/>
<path d="M204 213.38L206.33 205.89L212.47 208.95C212.47 208.95 211.57 214.41 207.11 215.36L204 213.38Z" fill="#B55B52"/>
<path d="M208.78 203.82L214.32 205.34L212.46 208.95L206.32 205.89L208.78 203.82Z" fill="#B55B52"/>
<path d="M144.09 201.53C143.43 204.71 142.61 207.86 141.76 211C140.91 214.14 139.98 217.25 139.01 220.36L138.65 221.53L138.47 222.11C138.446 222.193 138.412 222.274 138.37 222.35C138.256 222.672 138.192 223.009 138.18 223.35C138.159 224.077 138.361 224.792 138.76 225.4C138.957 225.667 139.174 225.917 139.41 226.15L140.24 227.06L141.88 228.89C142.95 230.13 144.03 231.37 145.05 232.67L141.56 236.67C140.12 235.85 138.74 234.96 137.36 234.08L135.31 232.72L134.31 232.03C133.97 231.79 133.69 231.63 133.14 231.18C131.183 229.513 129.833 227.245 129.3 224.73C129.032 223.448 128.967 222.132 129.11 220.83C129.11 220.51 129.21 220.15 129.26 219.83L129.37 219.23L129.58 218.03C130.14 214.82 130.74 211.62 131.41 208.44C132.08 205.26 132.8 202.09 133.65 198.96L144.09 201.53Z" fill="#B55B52"/>
<path d="M141.63 232.35L145.75 230.24L147.57 237.24C147.57 237.24 144.26 238.51 141.7 236.88L141.63 232.35Z" fill="#B55B52"/>
<path d="M151.45 227.99L151.64 234.43L147.03 237.44L145.43 230.37L151.45 227.99Z" fill="#B55B52"/>
<path d="M164.94 168.47C165.04 168.96 165.39 169.31 165.71 169.25C166.03 169.19 166.22 168.73 166.12 168.25C166.02 167.77 165.67 167.41 165.35 167.47C165.03 167.53 164.84 168 164.94 168.47Z" fill="#263238"/>
<path d="M165.34 169.32C166.24 170.715 167.327 171.98 168.57 173.08C168.28 173.392 167.926 173.636 167.533 173.797C167.139 173.958 166.715 174.03 166.29 174.01L165.34 169.32Z" fill="#A02724"/>
<path d="M162.57 166.09C162.512 166.089 162.456 166.072 162.408 166.04C162.36 166.008 162.322 165.964 162.299 165.911C162.276 165.858 162.268 165.8 162.277 165.743C162.286 165.686 162.311 165.633 162.35 165.59C162.663 165.236 163.055 164.96 163.495 164.787C163.935 164.613 164.409 164.545 164.88 164.59C164.919 164.597 164.956 164.612 164.989 164.633C165.022 164.655 165.05 164.683 165.072 164.715C165.095 164.748 165.11 164.784 165.118 164.823C165.127 164.861 165.127 164.901 165.12 164.94C165.114 164.978 165.1 165.015 165.08 165.048C165.059 165.081 165.032 165.109 165.001 165.132C164.969 165.154 164.933 165.17 164.895 165.178C164.857 165.187 164.818 165.187 164.78 165.18C164.407 165.144 164.031 165.198 163.683 165.337C163.335 165.476 163.025 165.697 162.78 165.98C162.727 166.042 162.651 166.082 162.57 166.09Z" fill="#263238"/>
<path d="M150.52 175.44C151.62 180.03 152.73 188.44 148.79 191.49C148.79 191.49 150.33 196.15 160.79 196.15C172.29 196.15 166.29 193.15 166.29 193.15C160.01 191.93 160.17 186.48 161.29 182.91L150.52 175.44Z" fill="#B55B52"/>
<path d="M147.56 192.34C146.88 191.07 146.12 189.61 147.68 189.15C149.4 188.65 160.43 187.72 163.68 188.66C162.68 190.43 164.37 192.66 164.37 192.66L147.56 192.34Z" fill="#263238"/>
<path d="M156.7 406.92H163.91L164.63 392.4H157.41L156.7 406.92Z" fill="#B55B52"/>
<path d="M110.91 404.92L118.22 405.31L122.66 391L115.35 390.61L110.91 404.92Z" fill="#B55B52"/>
<path d="M118 404.73L111.11 403.24C110.989 403.213 110.863 403.227 110.752 403.282C110.641 403.337 110.552 403.428 110.5 403.54L108.11 408.73C108.051 408.856 108.022 408.994 108.025 409.133C108.027 409.272 108.062 409.408 108.126 409.532C108.189 409.656 108.281 409.763 108.392 409.846C108.504 409.929 108.633 409.985 108.77 410.01C111.18 410.49 112.38 410.6 115.41 411.26C117.27 411.66 121.48 412.69 124.05 413.26C126.62 413.83 127.51 411.35 126.51 410.89C122.01 408.84 120.13 407.03 118.91 405.34C118.691 405.033 118.367 404.816 118 404.73Z" fill="#263238"/>
<path d="M163.53 406.19H156.68C156.556 406.192 156.436 406.235 156.34 406.313C156.244 406.391 156.177 406.499 156.15 406.62L154.91 412.19C154.878 412.325 154.877 412.465 154.908 412.6C154.938 412.736 154.999 412.862 155.086 412.97C155.173 413.078 155.283 413.165 155.409 413.224C155.534 413.283 155.671 413.312 155.81 413.31C158.28 413.31 161.81 413.12 164.96 413.12C168.59 413.12 171.72 413.32 175.96 413.32C178.53 413.32 179.25 410.72 178.17 410.48C173.26 409.41 169.26 409.29 165.02 406.68C164.577 406.385 164.062 406.215 163.53 406.19Z" fill="#263238"/>
<path d="M135.72 193.61C130.28 196.2 128.8 211.9 128.8 211.9L142.27 218.12C144.547 214.28 145.787 209.914 145.87 205.45C146.14 197.34 141.29 191 135.72 193.61Z" fill="#263238"/>
<path opacity="0.4" d="M143 203.29C140.57 207.07 140.8 212.91 141.64 217.84L142.24 218.12C144.515 214.279 145.755 209.914 145.84 205.45C145.84 204.97 145.84 204.45 145.84 204.02L143 203.29Z" fill="black"/>
<path d="M173.31 193.23C173.31 193.23 179.99 200.77 173.68 247.43H140.15C139.92 242.28 143.15 217.17 138.15 192.91C141.856 192.197 145.603 191.723 149.37 191.49C154.119 191.22 158.88 191.22 163.63 191.49C166.896 191.821 170.133 192.403 173.31 193.23Z" fill="#1D3557"/>
<path opacity="0.6" d="M173.31 193.23C173.31 193.23 179.99 200.77 173.68 247.43H140.15C139.92 242.28 143.15 217.17 138.15 192.91C141.856 192.197 145.603 191.723 149.37 191.49C154.119 191.22 158.88 191.22 163.63 191.49C166.896 191.821 170.133 192.403 173.31 193.23Z" fill="#FAFAFA"/>
<path opacity="0.2" d="M176.24 207.49L176.12 207.38L169.45 203.82C168.77 214.09 173.36 220.53 176.09 223.34C176.432 218.063 176.482 212.772 176.24 207.49Z" fill="black"/>
<path opacity="0.2" d="M164.63 392.4L164.26 399.89H157.04L157.41 392.4H164.63Z" fill="black"/>
<path opacity="0.2" d="M115.35 390.62L122.66 391L120.37 398.38L113.06 397.99L115.35 390.62Z" fill="black"/>
<path d="M148.2 170.78C149.81 176.78 150.45 180.39 154.2 182.89C159.78 186.65 166.72 182.33 166.94 175.96C167.13 170.23 164.47 161.36 158.02 160.15C156.596 159.868 155.123 159.956 153.743 160.406C152.363 160.855 151.121 161.651 150.136 162.717C149.151 163.784 148.455 165.085 148.116 166.496C147.778 167.908 147.806 169.383 148.2 170.78Z" fill="#B55B52"/>
<path d="M161.79 247.43C161.79 247.43 154.67 295.34 150.79 313.3C146.49 333 123.55 398 123.55 398L112.32 395.57C112.32 395.57 126.71 342.57 130.32 315.09C131.72 304.36 133.41 287.09 135.55 272.66C137.62 258.66 140.17 247.44 140.17 247.44L161.79 247.43Z" fill="#263238"/>
<path d="M126.24 394.25L124.14 398.31L111.52 395.57L112.58 391.78L126.24 394.25Z" fill="#1D3557"/>
<path opacity="0.6" d="M126.24 394.25L124.14 398.31L111.52 395.57L112.58 391.78L126.24 394.25Z" fill="white"/>
<path opacity="0.6" d="M157.29 264.5C149.06 266.11 149.93 296.8 150.92 312.58C153.3 301.42 156.77 279.96 159.14 264.72C158.567 264.438 157.914 264.36 157.29 264.5Z" fill="black"/>
<path d="M173.68 247.43C173.68 247.43 177.03 294.31 176.35 313.43C175.64 333.32 166.21 398.43 166.21 398.43H155.59C155.59 398.43 155.2 334.43 154.73 314.94C154.21 293.64 151.64 247.42 151.64 247.42L173.68 247.43Z" fill="#263238"/>
<path d="M168.25 394.21C168.3 394.21 167.65 398.62 167.65 398.62H154.73L154.38 394.68L168.25 394.21Z" fill="#1D3557"/>
<path opacity="0.6" d="M168.25 394.21C168.3 394.21 167.65 398.62 167.65 398.62H154.73L154.38 394.68L168.25 394.21Z" fill="white"/>
<path d="M169.4 202C169.4 214.58 176.09 219.76 176.09 219.76L187 209.14C184.418 204.824 181.477 200.733 178.21 196.91C171.9 189.68 169.4 193.92 169.4 202Z" fill="#263238"/>
<path opacity="0.2" d="M166.52 178.24C166.297 178.87 165.924 179.437 165.433 179.89C164.941 180.343 164.346 180.669 163.7 180.84C162.989 180.985 162.343 181.355 161.859 181.895C161.374 182.436 161.077 183.117 161.01 183.84C162.305 183.407 163.479 182.674 164.436 181.701C165.394 180.728 166.108 179.542 166.52 178.24Z" fill="black"/>
<path d="M163.7 158.83C165.94 156 162.49 155.83 162.49 155.83C163.39 152.46 159.35 154.27 159.35 154.27C156.93 150.93 155.56 155 155.56 155C153.05 152.17 152.56 156.79 152.56 156.79C150.04 153.2 148.76 158.38 148.76 158.38C146.44 154.65 145.02 159.5 145.02 159.5C140.23 157.79 142.5 162.77 142.5 162.77C138.42 162.88 141.7 166.05 141.7 166.05C136.8 166.05 141.12 168.86 141.12 168.86C137.23 171.41 142.12 172.1 142.12 172.1C138.95 177.1 144.4 175.22 144.4 175.22C142.19 180.14 147.08 177.97 147.08 177.97C146.77 182.71 149.5 181.42 150.82 180.54C151.07 181.54 151.55 182.54 152.43 182.62C154.14 182.85 154.43 179.62 154.43 179.62C154.43 179.62 156.01 180.86 157.34 180.19C158.67 179.52 158.17 177.83 158.17 177.83C158.459 178.046 158.809 178.162 159.17 178.162C159.53 178.162 159.881 178.046 160.17 177.83C160.74 177.39 160.74 174.21 160.02 173.09L162.62 172.09C162.62 172.09 164.55 171.82 163.69 169.27C163.171 167.804 163.125 166.213 163.56 164.72C166.5 163.34 164.08 161.72 164.08 161.72C167.49 159.53 163.7 158.83 163.7 158.83Z" fill="#263238"/>
<path d="M158.43 171C158.837 172.492 159.726 173.807 160.96 174.74C162.59 175.96 163.81 174.74 163.69 172.91C163.59 171.25 162.61 168.62 160.81 168.12C159.01 167.62 158 169.23 158.43 171Z" fill="#B55B52"/>
</svg>
