<svg width="500" height="500" viewBox="0 0 500 500" fill="none" xmlns="http://www.w3.org/2000/svg">
<path d="M105.85 165.21C107.333 172.648 106.577 180.359 103.676 187.367C100.775 194.375 95.8599 200.365 89.5531 204.578C83.2464 208.792 75.8314 211.039 68.2466 211.037C60.6619 211.034 53.2485 208.781 46.9448 204.563C40.641 200.345 35.7304 194.352 32.8344 187.342C29.9383 180.332 29.1872 172.62 30.676 165.183C32.1647 157.746 35.8265 150.918 41.1978 145.563C46.5691 140.207 53.4084 136.566 60.85 135.1C70.8101 133.127 81.1462 135.19 89.585 140.837C98.0239 146.483 103.874 155.25 105.85 165.21Z" fill="#F5F5F5"/>
<path d="M96.9 167C98.0195 172.668 97.4328 178.541 95.2141 183.876C92.9954 189.211 89.2443 193.768 84.4353 196.971C79.6264 200.174 73.9756 201.879 68.1977 201.87C62.4198 201.86 56.7744 200.138 51.9756 196.92C47.1767 193.702 43.4399 189.133 41.238 183.792C39.036 178.45 38.4677 172.575 39.605 166.91C40.7423 161.245 43.5341 156.045 47.6273 151.967C51.7204 147.889 56.931 145.116 62.6 144C66.3626 143.255 70.2352 143.259 73.9962 144.012C77.7572 144.765 81.3328 146.252 84.5185 148.389C87.7043 150.525 90.4376 153.268 92.5621 156.462C94.6866 159.655 96.1607 163.236 96.9 167Z" fill="#EBEBEB"/>
<path d="M96.71 166.08C96.54 166.08 96.17 164.88 95.28 162.78C94.0413 159.829 92.3548 157.087 90.28 154.65C88.8448 152.988 87.2281 151.492 85.46 150.19C83.4354 148.705 81.2271 147.488 78.89 146.57C77.6265 146.064 76.326 145.657 75 145.35C73.6288 145.022 72.2349 144.799 70.83 144.68C69.3723 144.565 67.9077 144.565 66.45 144.68C64.9528 144.793 63.4656 145.013 62 145.34C60.5319 145.683 59.0913 146.134 57.69 146.69C56.3375 147.24 55.0273 147.888 53.77 148.63C52.549 149.332 51.3823 150.124 50.28 151C49.2088 151.847 48.2057 152.776 47.28 153.78C45.5952 155.641 44.1568 157.712 43 159.94C41.9851 161.887 41.187 163.939 40.62 166.06C39.7936 169.159 39.4562 172.367 39.62 175.57C39.73 177.85 39.94 179.12 39.77 179.16C39.6 179.2 39.14 177.99 38.77 175.66C38.2507 172.336 38.3558 168.945 39.08 165.66C39.5708 163.384 40.3329 161.175 41.35 159.08C42.5241 156.665 44.0211 154.421 45.8 152.41C46.7596 151.314 47.8027 150.294 48.92 149.36C50.0786 148.374 51.3161 147.484 52.62 146.7C53.968 145.879 55.3791 145.167 56.84 144.57C59.8506 143.336 63.0428 142.603 66.29 142.4C67.8628 142.303 69.4408 142.326 71.01 142.47C72.5245 142.614 74.0256 142.875 75.5 143.25C76.9098 143.604 78.2904 144.066 79.63 144.63C84.2935 146.552 88.3771 149.653 91.48 153.63C93.5556 156.262 95.1254 159.256 96.11 162.46C96.76 164.74 96.84 166.05 96.71 166.08Z" fill="#E0E0E0"/>
<path d="M74.8501 189.08L75.9001 194.08L71.4601 195.02L70.4601 190.18C66.0101 190.85 61.4601 190.37 58.6401 188.97L59.9401 183.03C62.8678 184.276 66.0704 184.734 69.2301 184.36L67.6501 176.94C62.4701 176.79 56.6501 176.31 55.2601 169.94C54.2601 165.23 56.8201 160.46 63.6801 158.18L62.6801 153.24L67.1201 152.3L68.1201 157.14C71.3382 156.642 74.6288 156.916 77.7201 157.94L76.6601 163.88C74.3117 163.11 71.8337 162.814 69.3701 163.01L70.9701 170.56C76.1501 170.67 81.9701 171.17 83.2501 177.43C84.1801 182 81.6501 186.75 74.8501 189.08ZM66.2401 170.38L64.9001 164.07C62.6601 165.07 62.0001 166.59 62.3101 168.07C62.6201 169.55 64.1501 170.17 66.2401 170.38ZM76.1501 179.47C75.8201 177.91 74.3601 177.34 72.3001 177.08L73.6001 183.21C75.7201 182.25 76.4601 180.89 76.1501 179.47Z" fill="#E0E0E0"/>
<path d="M208.6 301.12C209.468 305.471 209.026 309.981 207.329 314.081C205.633 318.18 202.758 321.684 199.069 324.149C195.38 326.614 191.043 327.929 186.606 327.927C182.17 327.926 177.833 326.608 174.146 324.141C170.459 321.674 167.586 318.168 165.892 314.068C164.198 309.967 163.759 305.457 164.63 301.106C165.501 296.756 167.643 292.762 170.785 289.63C173.926 286.497 177.927 284.368 182.28 283.51C185.165 282.938 188.134 282.939 191.017 283.515C193.901 284.09 196.644 285.228 199.088 286.863C201.532 288.498 203.63 290.599 205.262 293.045C206.894 295.492 208.028 298.235 208.6 301.12Z" fill="#F5F5F5"/>
<path d="M203.37 302.16C204.031 305.477 203.692 308.915 202.398 312.039C201.104 315.163 198.912 317.834 196.099 319.711C193.287 321.589 189.981 322.591 186.599 322.589C183.217 322.586 179.912 321.581 177.102 319.7C174.292 317.818 172.103 315.146 170.812 312.02C169.522 308.894 169.188 305.455 169.853 302.139C170.517 298.824 172.151 295.78 174.546 293.393C176.942 291.006 179.992 289.383 183.31 288.73C185.509 288.293 187.773 288.294 189.971 288.733C192.17 289.172 194.261 290.04 196.124 291.287C197.987 292.534 199.586 294.137 200.829 296.002C202.072 297.868 202.936 299.96 203.37 302.16Z" fill="#EBEBEB"/>
<path d="M203.26 301.63C202.914 301.018 202.632 300.371 202.42 299.7C201.69 297.975 200.698 296.373 199.48 294.95C198.636 293.981 197.691 293.106 196.66 292.34C195.473 291.471 194.179 290.758 192.81 290.22C192.075 289.928 191.32 289.691 190.55 289.51C189.749 289.314 188.933 289.183 188.11 289.12C187.258 289.05 186.402 289.05 185.55 289.12C184.672 289.183 183.8 289.31 182.94 289.5C182.083 289.704 181.241 289.968 180.42 290.29C179.629 290.612 178.863 290.993 178.13 291.43C176.739 292.24 175.476 293.251 174.38 294.43C173.379 295.506 172.525 296.71 171.84 298.01C171.245 299.149 170.776 300.35 170.44 301.59C169.968 303.403 169.775 305.279 169.87 307.15C169.973 307.845 170.003 308.549 169.96 309.25C169.622 308.634 169.421 307.951 169.37 307.25C169.065 305.31 169.123 303.329 169.54 301.41C169.835 300.08 170.281 298.788 170.87 297.56C171.561 296.149 172.439 294.837 173.48 293.66C174.041 293.022 174.65 292.427 175.3 291.88C175.982 291.305 176.708 290.784 177.47 290.32C178.257 289.843 179.079 289.429 179.93 289.08C180.811 288.726 181.716 288.439 182.64 288.22C183.568 288.011 184.511 287.874 185.46 287.81C186.378 287.735 187.302 287.735 188.22 287.81C189.956 287.981 191.657 288.406 193.27 289.07C194.702 289.685 196.047 290.485 197.27 291.45C198.336 292.294 199.3 293.261 200.14 294.33C201.357 295.87 202.276 297.623 202.85 299.5C203.145 300.17 203.286 300.898 203.26 301.63Z" fill="#E0E0E0"/>
<path d="M190.47 315.08L191.09 317.99L188.49 318.54L187.89 315.71C185.572 316.121 183.185 315.875 181 315L181.75 311.52C183.466 312.245 185.34 312.514 187.19 312.3L186.27 307.96C183.27 307.87 179.81 307.59 179.02 303.87C178.43 301.12 179.93 298.33 183.94 296.99L183.33 294.1L185.93 293.55L186.53 296.38C188.411 296.092 190.333 296.253 192.14 296.85L191.52 300.32C190.147 299.875 188.7 299.702 187.26 299.81L188.19 304.23C191.19 304.3 194.6 304.59 195.38 308.23C195.93 311 194.45 313.72 190.47 315.08ZM185.47 304.14L184.68 300.45C183.37 301.06 182.99 301.93 183.17 302.79C183.35 303.65 184.22 304 185.44 304.14H185.47ZM191.27 309.46C191.07 308.55 190.22 308.22 189.01 308.06L189.78 311.65C191 311.09 191.41 310.29 191.24 309.46H191.27Z" fill="#E0E0E0"/>
<path d="M439 237.42L437.84 242.26L433.52 241.26L434.66 236.55C430.45 235.27 426.66 232.94 424.74 230.55L428.38 225.86C430.446 228.181 433.078 229.928 436.02 230.93L437.75 223.73C433.24 221.41 428.28 218.53 429.75 212.36C430.85 207.79 435.12 204.66 442.12 205.52L443.27 200.74L447.59 201.74L446.46 206.45C449.506 207.359 452.291 208.984 454.58 211.19L451.15 215.97C449.403 214.305 447.343 213.003 445.09 212.14L443.32 219.47C447.84 221.75 452.72 224.61 451.25 230.69C450.17 235.14 446 238.23 439 237.42ZM439.28 217.32L440.75 211.19C438.34 211.19 437.13 212.19 436.75 213.62C436.37 215.05 437.51 216.26 439.27 217.32H439.28ZM444.19 229.5C444.56 227.99 443.5 226.87 441.8 225.78L440.37 231.73C442.63 231.77 443.85 230.88 444.18 229.5H444.19Z" fill="#EBEBEB"/>
<path d="M453 123.39L453.38 131.96L445.72 132.3L445.35 123.96C437.75 123.83 430.35 121.78 426.02 118.67L429.82 109.14C434.351 112.016 439.55 113.666 444.91 113.93L444.35 101.14C435.76 99.45 426.14 97.03 425.65 86.08C425.29 77.97 430.88 70.74 442.92 68.83L442.54 60.33L450.2 59.99L450.57 68.33C456.33 68.54 461.99 69.82 466.32 72.33L462.91 81.92C459.211 79.9796 455.162 78.7965 451 78.44L451.57 91.44C460.16 93.05 469.57 95.44 470.1 106.27C470.48 114.25 465 121.4 453 123.39ZM443.85 89.88L443.38 79C439.38 80.1 437.85 82.39 437.96 84.92C438.07 87.45 440.44 89 443.86 89.88H443.85ZM457.85 107.75C457.74 105.07 455.45 103.75 452.11 102.75L452.57 113.32C456.36 112.27 458 110.2 457.84 107.75H457.85Z" fill="#EBEBEB"/>
<path d="M482 453.36C482 453.5 378.13 453.62 250 453.62C121.87 453.62 18 453.5 18 453.36C18 453.22 121.85 453.1 250 453.1C378.15 453.1 482 453.22 482 453.36Z" fill="#263238"/>
<path d="M407.9 42.03H92.1499C88.168 42.03 84.9399 45.2581 84.9399 49.24V282.5C84.9399 286.482 88.168 289.71 92.1499 289.71H407.9C411.882 289.71 415.11 286.482 415.11 282.5V49.24C415.11 45.2581 411.882 42.03 407.9 42.03Z" fill="white"/>
<path d="M407.9 289.71C408.998 289.699 410.079 289.439 411.061 288.948C412.043 288.458 412.901 287.751 413.57 286.88C414.594 285.544 415.121 283.893 415.06 282.21C415.06 274.59 415.06 263.36 415.01 248.9C415.01 219.97 414.96 178.11 414.92 126.39C414.92 113.457 414.92 99.9235 414.92 85.7901C414.92 78.7301 414.92 71.5335 414.92 64.2001V50.2801C414.973 49.361 414.899 48.439 414.7 47.5401C414.475 46.6483 414.077 45.8095 413.528 45.0717C412.979 44.3339 412.29 43.7115 411.5 43.2401C410.704 42.7639 409.819 42.4543 408.9 42.3301C407.959 42.253 407.014 42.2263 406.07 42.2501H314.66H92.18C90.9791 42.2424 89.7964 42.5437 88.7456 43.1251C87.6948 43.7066 86.8113 44.5485 86.18 45.5701C85.5591 46.5837 85.2144 47.7421 85.18 48.9301C85.18 50.1401 85.18 51.3801 85.18 52.6001V96.3001C85.18 115.52 85.18 134.443 85.18 153.07C85.18 190.29 85.18 226.19 85.18 260.39V273.13C85.18 275.24 85.18 277.35 85.18 279.44C85.18 280.49 85.18 281.54 85.18 282.58C85.1993 283.593 85.4382 284.589 85.88 285.5C86.3214 286.405 86.9529 287.204 87.7312 287.842C88.5095 288.481 89.4164 288.944 90.39 289.2C91.375 289.412 92.3842 289.489 93.39 289.43H108.72H155.85H240.45L362.96 289.51L396.27 289.56H404.93C406.88 289.56 407.88 289.56 407.88 289.56H404.93H396.27H362.96L240.45 289.65H155.85H93.41C92.3569 289.705 91.3011 289.621 90.27 289.4C88.7018 288.987 87.3109 288.075 86.3076 286.801C85.3044 285.527 84.7435 283.961 84.71 282.34V260.14C84.71 225.94 84.71 190.04 84.71 152.82V52.6501C84.71 51.4201 84.71 50.2101 84.71 48.9601C84.7568 47.6831 85.1322 46.4397 85.8 45.3501C86.4725 44.2568 87.4137 43.3538 88.534 42.7271C89.6543 42.1005 90.9163 41.771 92.2 41.7701H314.68H364.68H406C406.964 41.7374 407.929 41.7641 408.89 41.8501C409.868 41.9945 410.807 42.3346 411.65 42.8501C412.489 43.3492 413.221 44.0089 413.804 44.7914C414.388 45.5739 414.811 46.4638 415.05 47.4101C415.255 48.3454 415.332 49.3041 415.28 50.2601V64.2001C415.28 71.5335 415.28 78.7301 415.28 85.7901C415.28 99.9101 415.28 113.443 415.28 126.39C415.28 178.11 415.22 219.97 415.2 248.9C415.2 263.36 415.2 274.59 415.2 282.21C415.25 283.672 414.859 285.114 414.078 286.35C413.297 287.586 412.162 288.559 410.82 289.14C410.137 289.426 409.416 289.611 408.68 289.69L407.9 289.71Z" fill="#263238"/>
<path d="M391.33 79.75H262.98C258.446 79.75 254.77 83.4257 254.77 87.96V136.99C254.77 141.524 258.446 145.2 262.98 145.2H391.33C395.864 145.2 399.54 141.524 399.54 136.99V87.96C399.54 83.4257 395.864 79.75 391.33 79.75Z" fill="#1D3557"/>
<g opacity="0.2">
<path d="M332.89 109.73V112.33H330.57V109.8C328.517 109.746 326.519 109.123 324.8 108L326.08 105.17C327.409 106.1 328.956 106.668 330.57 106.82V102.94C328 102.32 325.13 101.46 325.13 98.15C325.13 95.69 326.91 93.58 330.57 93.15V90.54H332.89V93.07C334.549 93.1622 336.163 93.6453 337.6 94.48L336.44 97.33C335.347 96.7002 334.141 96.2924 332.89 96.13V100.07C335.46 100.67 338.29 101.53 338.29 104.79C338.29 107.21 336.53 109.29 332.89 109.73ZM330.57 99.49V96.2C329.34 96.47 328.86 97.2 328.86 97.91C328.86 98.62 329.55 99.16 330.57 99.49ZM334.57 105.07C334.57 104.26 333.9 103.82 332.9 103.47V106.67C334.05 106.42 334.56 105.81 334.56 105.07H334.57Z" fill="white"/>
</g>
<g opacity="0.2">
<path d="M344 126.1V128.1H342.2V126.1C340.609 126.05 339.064 125.554 337.74 124.67L338.74 122.48C339.77 123.197 340.97 123.635 342.22 123.75V120.75C340.22 120.26 338.01 119.6 338.01 117.03C338.01 115.13 339.39 113.5 342.22 113.17V111.17H344V113.17C345.283 113.236 346.532 113.61 347.64 114.26L346.74 116.47C345.9 115.976 344.967 115.66 344 115.54V118.59C346 119.05 348.18 119.72 348.18 122.25C348.18 124.14 346.82 125.76 344 126.1ZM342.2 118.17V115.62C341.25 115.83 340.88 116.35 340.88 116.95C340.88 117.55 341.41 117.92 342.2 118.17ZM345.29 122.49C345.29 121.86 344.77 121.49 344 121.25V123.73C344.9 123.53 345.29 123.07 345.29 122.49Z" fill="white"/>
</g>
<path d="M357.74 107.33C357.755 107.466 357.755 107.604 357.74 107.74C357.74 108.05 357.74 108.44 357.74 108.92C357.74 110 357.74 111.48 357.74 113.33V128.82V128.67C358.582 129.451 359.618 129.993 360.74 130.24C361.962 130.529 363.214 130.67 364.47 130.66C367.134 130.731 369.751 129.95 371.94 128.43L371.85 128.63C371.85 120.7 371.85 113.36 371.85 107.35V107.43C371.566 106.97 371.17 106.588 370.7 106.32C370.227 106.052 369.728 105.834 369.21 105.67C368.232 105.388 367.226 105.217 366.21 105.16C364.565 105.033 362.911 105.124 361.29 105.43C360.256 105.628 359.271 106.025 358.39 106.6C358.168 106.766 357.958 106.946 357.76 107.14C357.64 107.28 357.58 107.36 357.57 107.35C357.741 107.009 357.995 106.716 358.31 106.5C359.185 105.864 360.183 105.418 361.24 105.19C362.882 104.84 364.564 104.712 366.24 104.81C367.282 104.854 368.316 105.018 369.32 105.3C370.508 105.576 371.547 106.29 372.23 107.3C372.23 113.3 372.23 120.65 372.23 128.58V128.72L372.14 128.79C369.86 130.399 367.119 131.223 364.33 131.14C363.032 131.15 361.739 130.996 360.48 130.68C359.24 130.412 358.097 129.807 357.18 128.93L357.13 128.88V128.78C357.21 122.46 357.28 117.1 357.33 113.25C357.33 111.41 357.4 109.93 357.43 108.85C357.43 108.38 357.43 108 357.43 107.7C357.52 107.566 357.624 107.443 357.74 107.33Z" fill="white"/>
<path d="M372.2 107.37C371.65 107.901 371.006 108.325 370.3 108.62C368.617 109.389 366.779 109.759 364.93 109.7C363.084 109.777 361.242 109.457 359.53 108.76C358.818 108.484 358.163 108.077 357.6 107.56C357.6 107.48 358.39 107.93 359.67 108.42C361.362 108.994 363.145 109.252 364.93 109.18C366.713 109.234 368.488 108.928 370.15 108.28C371.42 107.76 372.15 107.29 372.2 107.37Z" fill="white"/>
<path d="M372.2 112.68C371.652 113.216 371.007 113.644 370.3 113.94C368.616 114.706 366.779 115.072 364.93 115.01C363.083 115.092 361.24 114.772 359.53 114.07C358.813 113.803 358.157 113.395 357.6 112.87C357.6 112.79 358.39 113.24 359.67 113.73C361.362 114.304 363.145 114.561 364.93 114.49C366.712 114.546 368.487 114.244 370.15 113.6C371.42 113.07 372.15 112.61 372.2 112.68Z" fill="white"/>
<path d="M372.2 118C371.65 118.531 371.006 118.955 370.3 119.25C368.616 120.017 366.779 120.386 364.93 120.33C363.084 120.408 361.242 120.087 359.53 119.39C358.818 119.114 358.163 118.707 357.6 118.19C357.6 118.11 358.39 118.56 359.67 119.05C361.363 119.619 363.145 119.877 364.93 119.81C366.713 119.864 368.488 119.558 370.15 118.91C371.42 118.39 372.15 117.92 372.2 118Z" fill="white"/>
<path d="M372.2 123.31C371.652 123.844 371.007 124.268 370.3 124.56C368.619 125.336 366.78 125.706 364.93 125.64C363.084 125.717 361.242 125.397 359.53 124.7C358.815 124.428 358.16 124.021 357.6 123.5C357.6 123.42 358.39 123.87 359.67 124.36C361.362 124.934 363.145 125.192 364.93 125.12C366.712 125.172 368.486 124.869 370.15 124.23C371.42 123.7 372.15 123.24 372.2 123.31Z" fill="white"/>
<path d="M372.26 96.4401C372.284 96.6461 372.284 96.8541 372.26 97.0601C372.26 97.5134 372.26 98.1134 372.26 98.8601C372.26 100.47 372.26 102.74 372.26 105.57V128.82L372.2 128.67C373.078 129.463 374.152 130.009 375.31 130.25C376.534 130.544 377.791 130.682 379.05 130.66C381.687 130.718 384.275 129.937 386.44 128.43L386.35 128.63C386.35 116.21 386.4 104.9 386.41 96.4601V96.5301C386.122 96.0531 385.711 95.6626 385.22 95.4001C384.745 95.1208 384.238 94.8993 383.71 94.7401C382.731 94.4643 381.725 94.2966 380.71 94.2401C379.064 94.1154 377.409 94.2163 375.79 94.5401C374.768 94.739 373.795 95.1402 372.93 95.7201C372.712 95.8758 372.511 96.0534 372.33 96.2501C372.2 96.3801 372.15 96.4601 372.14 96.4601C372.13 96.4601 372.14 96.3601 372.28 96.2101C372.454 95.9947 372.652 95.8001 372.87 95.6301C373.723 94.9963 374.701 94.553 375.74 94.3301C377.38 93.9659 379.063 93.8313 380.74 93.9301C381.788 93.9701 382.829 94.1312 383.84 94.4101C385.058 94.6703 386.131 95.3857 386.84 96.4101V96.4901C386.84 104.93 386.84 116.24 386.91 128.66V128.8L386.82 128.87C384.561 130.462 381.853 131.289 379.09 131.23C377.787 131.24 376.488 131.093 375.22 130.79C373.954 130.526 372.786 129.913 371.85 129.02L371.8 128.96V128.86C371.88 119.44 371.95 111.35 372 105.57C372 102.74 372.08 100.48 372.1 98.8701C372.1 98.1301 372.1 97.5401 372.15 97.0901C372.165 96.8703 372.202 96.6525 372.26 96.4401Z" fill="white"/>
<path d="M386.72 107.37C386.17 107.901 385.525 108.325 384.82 108.62C383.138 109.392 381.299 109.762 379.45 109.7C377.603 109.777 375.762 109.457 374.05 108.76C373.337 108.484 372.683 108.077 372.12 107.56C372.12 107.48 372.91 107.93 374.19 108.42C375.882 108.994 377.665 109.252 379.45 109.18C381.233 109.234 383.008 108.928 384.67 108.28C385.94 107.76 386.67 107.29 386.72 107.37Z" fill="white"/>
<path d="M386.72 112.68C386.172 113.216 385.527 113.644 384.82 113.94C383.137 114.708 381.299 115.075 379.45 115.01C377.603 115.092 375.76 114.772 374.05 114.07C373.333 113.803 372.677 113.395 372.12 112.87C372.12 112.79 372.91 113.24 374.19 113.73C375.882 114.304 377.665 114.561 379.45 114.49C381.232 114.546 383.007 114.244 384.67 113.6C385.94 113.07 386.67 112.61 386.72 112.68Z" fill="white"/>
<path d="M386.72 101.92C386.172 102.456 385.527 102.884 384.82 103.18C383.137 103.948 381.299 104.315 379.45 104.25C377.603 104.332 375.76 104.012 374.05 103.31C373.335 103.038 372.68 102.631 372.12 102.11C372.12 102.03 372.91 102.48 374.19 102.97C375.882 103.544 377.665 103.801 379.45 103.73C381.232 103.786 383.007 103.484 384.67 102.84C385.94 102.31 386.67 101.85 386.72 101.92Z" fill="white"/>
<path d="M386.72 96.4401C386.17 96.9711 385.525 97.395 384.82 97.6901C383.137 98.4575 381.299 98.8271 379.45 98.7701C377.603 98.8475 375.762 98.5269 374.05 97.8301C373.337 97.5537 372.683 97.1467 372.12 96.6301C372.12 96.5501 372.91 96.9901 374.19 97.4801C375.881 98.0578 377.664 98.3188 379.45 98.2501C381.233 98.3039 383.008 97.9978 384.67 97.3501C385.94 96.8301 386.67 96.3601 386.72 96.4401Z" fill="white"/>
<path d="M386.72 118C386.17 118.531 385.525 118.955 384.82 119.25C383.137 120.018 381.299 120.387 379.45 120.33C377.603 120.408 375.762 120.087 374.05 119.39C373.337 119.114 372.683 118.707 372.12 118.19C372.12 118.11 372.91 118.56 374.19 119.05C375.883 119.619 377.665 119.877 379.45 119.81C381.233 119.864 383.008 119.558 384.67 118.91C385.94 118.39 386.67 117.92 386.72 118Z" fill="white"/>
<path d="M386.72 123.31C386.172 123.844 385.527 124.268 384.82 124.56C383.14 125.337 381.3 125.707 379.45 125.64C377.603 125.717 375.762 125.397 374.05 124.7C373.335 124.428 372.68 124.021 372.12 123.5C372.12 123.42 372.91 123.87 374.19 124.36C375.882 124.934 377.665 125.192 379.45 125.12C381.232 125.172 383.006 124.869 384.67 124.23C385.94 123.7 386.67 123.24 386.72 123.31Z" fill="white"/>
<path d="M240.39 79.75H112.06C107.52 79.75 103.84 83.4302 103.84 87.97V136.98C103.84 141.52 107.52 145.2 112.06 145.2H240.39C244.93 145.2 248.61 141.52 248.61 136.98V87.97C248.61 83.4302 244.93 79.75 240.39 79.75Z" fill="#E0E0E0"/>
<path d="M171.32 109.68V112.28H169V109.75C166.941 109.686 164.942 109.045 163.23 107.9L164.5 105.07C165.832 105.999 167.383 106.564 169 106.71V102.84C166.43 102.22 163.55 101.36 163.55 98.05C163.55 95.59 165.34 93.48 169 93.05V90.49H171.32V93C172.976 93.0907 174.587 93.574 176.02 94.41L174.86 97.26C173.773 96.6245 172.569 96.2163 171.32 96.06V100C173.89 100.6 176.72 101.46 176.72 104.72C176.72 107.16 175 109.24 171.32 109.68ZM169 99.44V96.15C167.77 96.42 167.28 97.1 167.28 97.86C167.28 98.62 168 99.11 169 99.44ZM173 105.02C173 104.21 172.32 103.77 171.33 103.42V106.62C172.48 106.37 173 105.76 173 105V105.02Z" fill="#EBEBEB"/>
<path d="M182.43 126.05V128.05H180.63V126.05C179.036 126 177.487 125.504 176.16 124.62L177.16 122.43C178.19 123.148 179.39 123.585 180.64 123.7V120.7C178.64 120.22 176.42 119.56 176.42 116.99C176.42 115.09 177.81 113.46 180.64 113.13V111.13H182.44V113.13C183.723 113.196 184.972 113.57 186.08 114.22L185.18 116.43C184.339 115.938 183.407 115.621 182.44 115.5V118.5C184.44 118.96 186.62 119.63 186.62 122.16C186.61 124.09 185.24 125.71 182.43 126.05ZM180.63 118.12V115.57C179.68 115.78 179.3 116.3 179.3 116.9C179.3 117.5 179.84 117.87 180.63 118.12ZM183.72 122.44C183.72 121.81 183.2 121.44 182.43 121.2V123.68C183.32 123.48 183.72 123 183.72 122.44Z" fill="#EBEBEB"/>
<path d="M116.78 102.89H115.11V102.46H119V102.89H117.33V107.2H116.83L116.78 102.89Z" fill="#263238"/>
<path d="M118.91 105.42C118.908 105.06 119.013 104.707 119.212 104.406C119.411 104.106 119.694 103.871 120.026 103.732C120.359 103.592 120.725 103.555 121.079 103.624C121.433 103.693 121.758 103.865 122.013 104.12C122.269 104.374 122.443 104.698 122.514 105.051C122.585 105.405 122.55 105.771 122.412 106.104C122.275 106.437 122.042 106.722 121.742 106.923C121.443 107.123 121.09 107.23 120.73 107.23C120.49 107.238 120.25 107.197 120.026 107.109C119.802 107.022 119.599 106.889 119.428 106.719C119.258 106.549 119.124 106.347 119.034 106.123C118.945 105.9 118.903 105.661 118.91 105.42ZM122.05 105.42C122.04 105.159 121.954 104.907 121.801 104.694C121.649 104.482 121.437 104.319 121.193 104.227C120.949 104.134 120.682 104.115 120.427 104.173C120.173 104.231 119.94 104.362 119.76 104.551C119.579 104.74 119.458 104.977 119.412 105.235C119.366 105.492 119.396 105.757 119.5 105.997C119.603 106.237 119.775 106.441 119.994 106.584C120.213 106.727 120.469 106.802 120.73 106.8C120.909 106.803 121.087 106.769 121.253 106.7C121.418 106.631 121.568 106.528 121.692 106.399C121.816 106.269 121.912 106.115 121.973 105.947C122.035 105.778 122.061 105.599 122.05 105.42Z" fill="#263238"/>
<path d="M125.4 107C125.184 107.171 124.915 107.259 124.64 107.25C124.506 107.259 124.372 107.239 124.247 107.192C124.122 107.145 124.008 107.071 123.913 106.977C123.819 106.882 123.745 106.768 123.698 106.643C123.651 106.518 123.631 106.384 123.64 106.25V104H123V103.59H123.64V102.81H124.12V103.59H125.21V104H124.12V106.13C124.107 106.216 124.115 106.303 124.141 106.386C124.167 106.468 124.212 106.544 124.271 106.606C124.331 106.669 124.405 106.717 124.486 106.747C124.567 106.777 124.654 106.789 124.74 106.78C124.932 106.783 125.12 106.72 125.27 106.6L125.4 107Z" fill="#263238"/>
<path d="M129 105V107.21H128.54V106.65C128.407 106.85 128.222 107.01 128.006 107.113C127.789 107.217 127.549 107.261 127.31 107.24C126.51 107.24 126.01 106.82 126.01 106.24C126.01 105.66 126.36 105.24 127.39 105.24H128.52V105C128.52 104.39 128.17 104.06 127.52 104.06C127.086 104.053 126.663 104.202 126.33 104.48L126.12 104.12C126.531 103.794 127.045 103.624 127.57 103.64C127.758 103.614 127.949 103.63 128.13 103.688C128.311 103.746 128.476 103.844 128.613 103.975C128.751 104.106 128.857 104.266 128.924 104.443C128.991 104.621 129.017 104.811 129 105ZM128.52 106.14V105.55H127.4C126.71 105.55 126.49 105.83 126.49 106.19C126.49 106.55 126.82 106.86 127.39 106.86C127.624 106.864 127.854 106.796 128.049 106.666C128.244 106.535 128.394 106.348 128.48 106.13L128.52 106.14Z" fill="#263238"/>
<path d="M130.27 102.17H130.75V107.17H130.27V102.17Z" fill="#263238"/>
<path d="M133.54 104.83C133.524 104.335 133.656 103.846 133.92 103.427C134.183 103.007 134.565 102.675 135.018 102.474C135.471 102.273 135.973 102.212 136.461 102.298C136.949 102.384 137.4 102.614 137.757 102.957C138.114 103.301 138.36 103.744 138.463 104.228C138.567 104.712 138.524 105.217 138.34 105.677C138.156 106.136 137.838 106.531 137.429 106.809C137.019 107.088 136.535 107.238 136.04 107.24C135.715 107.255 135.391 107.204 135.087 107.089C134.783 106.974 134.505 106.799 134.271 106.573C134.037 106.348 133.852 106.077 133.726 105.777C133.6 105.477 133.537 105.155 133.54 104.83ZM138.02 104.83C138.02 104.434 137.903 104.048 137.683 103.719C137.463 103.39 137.151 103.134 136.785 102.982C136.42 102.831 136.018 102.791 135.63 102.868C135.242 102.946 134.885 103.136 134.606 103.416C134.326 103.695 134.136 104.052 134.058 104.44C133.981 104.828 134.021 105.23 134.172 105.595C134.324 105.961 134.58 106.273 134.909 106.493C135.238 106.713 135.624 106.83 136.02 106.83C136.284 106.837 136.546 106.79 136.791 106.692C137.035 106.593 137.257 106.446 137.443 106.259C137.628 106.071 137.774 105.848 137.869 105.602C137.965 105.356 138.01 105.094 138 104.83H138.02Z" fill="#263238"/>
<path d="M141.34 103.61V104.07H141.23C141.06 104.061 140.891 104.09 140.734 104.154C140.576 104.218 140.435 104.316 140.321 104.442C140.206 104.567 140.12 104.716 140.07 104.878C140.02 105.04 140.006 105.212 140.03 105.38V107.2H139.55V103.63H140V104.33C140.123 104.087 140.317 103.888 140.557 103.759C140.796 103.631 141.07 103.579 141.34 103.61Z" fill="#263238"/>
<path d="M145.42 102.17V107.17H145V106.46C144.858 106.694 144.656 106.886 144.415 107.016C144.175 107.146 143.903 107.21 143.63 107.2C143.15 107.2 142.69 107.009 142.35 106.67C142.011 106.331 141.82 105.87 141.82 105.39C141.82 104.91 142.011 104.45 142.35 104.11C142.69 103.771 143.15 103.58 143.63 103.58C143.896 103.57 144.161 103.629 144.397 103.752C144.634 103.875 144.835 104.057 144.98 104.28V102.14L145.42 102.17ZM144.95 105.42C144.94 105.159 144.854 104.907 144.701 104.694C144.549 104.482 144.337 104.319 144.093 104.227C143.849 104.134 143.582 104.115 143.327 104.173C143.073 104.231 142.84 104.362 142.66 104.551C142.479 104.74 142.358 104.978 142.312 105.235C142.266 105.492 142.296 105.757 142.4 105.997C142.503 106.237 142.675 106.441 142.894 106.584C143.113 106.727 143.369 106.802 143.63 106.8C143.813 106.81 143.997 106.782 144.168 106.716C144.34 106.65 144.496 106.548 144.625 106.418C144.755 106.288 144.855 106.131 144.92 105.959C144.984 105.787 145.012 105.604 145 105.42H144.95Z" fill="#263238"/>
<path d="M149.87 105.56H146.87C146.879 105.734 146.922 105.904 146.998 106.061C147.073 106.218 147.179 106.358 147.31 106.474C147.44 106.589 147.592 106.678 147.757 106.734C147.922 106.79 148.096 106.812 148.27 106.8C148.474 106.807 148.677 106.769 148.866 106.69C149.054 106.61 149.222 106.491 149.36 106.34L149.63 106.65C149.375 106.918 149.046 107.104 148.685 107.186C148.325 107.268 147.948 107.242 147.602 107.111C147.256 106.979 146.956 106.749 146.741 106.448C146.525 106.147 146.403 105.79 146.39 105.42C146.39 104.961 146.572 104.521 146.897 104.197C147.221 103.872 147.661 103.69 148.12 103.69C148.579 103.69 149.019 103.872 149.343 104.197C149.668 104.521 149.85 104.961 149.85 105.42L149.87 105.56ZM146.87 105.21H149.39C149.39 104.876 149.257 104.555 149.021 104.319C148.785 104.083 148.464 103.95 148.13 103.95C147.796 103.95 147.475 104.083 147.239 104.319C147.003 104.555 146.87 104.876 146.87 105.21Z" fill="#263238"/>
<path d="M152.65 103.61V104.07H152.54C152.37 104.061 152.201 104.09 152.044 104.154C151.886 104.218 151.745 104.316 151.631 104.442C151.516 104.567 151.43 104.716 151.38 104.878C151.33 105.041 151.316 105.212 151.34 105.38V107.2H150.86V103.63H151.32V104.33C151.442 104.089 151.635 103.891 151.873 103.763C152.11 103.634 152.381 103.581 152.65 103.61Z" fill="#263238"/>
<path d="M121.58 113.22V127.93H118.18V116H115.18V113.27L121.58 113.22Z" fill="#263238"/>
<path d="M135.14 125.16V127.93H124V125.73L129.68 120.37C130.98 119.12 131.21 118.37 131.21 117.65C131.21 116.5 130.41 115.82 128.86 115.82C128.278 115.806 127.701 115.934 127.178 116.192C126.656 116.449 126.204 116.83 125.86 117.3L123.38 115.7C124.053 114.798 124.938 114.076 125.957 113.598C126.975 113.12 128.096 112.901 129.22 112.96C132.5 112.96 134.69 114.65 134.69 117.32C134.69 118.75 134.29 120.05 132.23 121.96L128.85 125.16H135.14Z" fill="#263238"/>
<path d="M136.51 120.58C136.51 115.72 139.2 112.96 142.82 112.96C146.44 112.96 149.12 115.72 149.12 120.58C149.12 125.44 146.45 128.19 142.82 128.19C139.19 128.19 136.51 125.43 136.51 120.58ZM145.7 120.58C145.7 117.23 144.52 115.84 142.82 115.84C141.12 115.84 139.96 117.23 139.96 120.58C139.96 123.93 141.13 125.31 142.82 125.31C144.51 125.31 145.7 123.92 145.7 120.58Z" fill="#263238"/>
<path d="M233.84 100.21H197.77C196.019 100.21 194.6 101.629 194.6 103.38V124.27C194.6 126.021 196.019 127.44 197.77 127.44H233.84C235.591 127.44 237.01 126.021 237.01 124.27V103.38C237.01 101.629 235.591 100.21 233.84 100.21Z" fill="#F5F5F5"/>
<path d="M206.32 105.22H199.41V107.73H206.32V105.22Z" fill="#E0E0E0"/>
<path d="M207.76 112.89C206.145 113.159 204.505 113.25 202.87 113.16C201.232 113.249 199.589 113.159 197.97 112.89C199.59 112.634 201.232 112.547 202.87 112.63C204.505 112.546 206.143 112.633 207.76 112.89Z" fill="#E0E0E0"/>
<path d="M214.46 112.89C212.85 113.25 211.18 113.25 209.57 112.89C211.182 112.543 212.848 112.543 214.46 112.89Z" fill="#E0E0E0"/>
<path d="M232.67 112.89C230.246 113.25 227.783 113.25 225.36 112.89C227.784 112.543 230.246 112.543 232.67 112.89Z" fill="#E0E0E0"/>
<path d="M223.63 112.89C221.291 113.25 218.91 113.25 216.57 112.89C218.911 112.543 221.29 112.543 223.63 112.89Z" fill="#E0E0E0"/>
<path d="M205.39 119C202.992 119.347 200.557 119.347 198.16 119C200.557 118.653 202.992 118.653 205.39 119Z" fill="#E0E0E0"/>
<path d="M211.53 121.59C209.31 121.853 207.073 121.94 204.84 121.85C202.61 121.94 200.376 121.853 198.16 121.59C200.377 121.333 202.61 121.246 204.84 121.33C207.073 121.246 209.31 121.333 211.53 121.59Z" fill="#E0E0E0"/>
<path d="M232.67 121.59C230.803 121.937 228.887 121.937 227.02 121.59C227.937 121.336 228.892 121.248 229.84 121.33C230.791 121.247 231.75 121.335 232.67 121.59Z" fill="#E0E0E0"/>
<path d="M267.72 105.19H266.05V104.75H269.89V105.19H268.22V109.5H267.72V105.19Z" fill="white"/>
<path d="M269.85 107.71C269.85 107.35 269.957 106.998 270.157 106.699C270.357 106.4 270.641 106.166 270.973 106.029C271.306 105.891 271.672 105.855 272.025 105.925C272.378 105.995 272.702 106.169 272.957 106.423C273.211 106.678 273.385 107.002 273.455 107.355C273.525 107.708 273.489 108.074 273.351 108.407C273.214 108.739 272.98 109.023 272.681 109.223C272.382 109.423 272.03 109.53 271.67 109.53C271.429 109.539 271.188 109.497 270.964 109.409C270.739 109.32 270.535 109.186 270.364 109.016C270.194 108.845 270.06 108.641 269.971 108.416C269.883 108.192 269.842 107.951 269.85 107.71ZM272.99 107.71C272.978 107.45 272.89 107.198 272.736 106.987C272.583 106.776 272.371 106.615 272.126 106.524C271.882 106.433 271.616 106.416 271.362 106.474C271.108 106.533 270.876 106.665 270.697 106.854C270.517 107.043 270.397 107.281 270.352 107.538C270.306 107.795 270.337 108.06 270.441 108.299C270.545 108.538 270.716 108.742 270.935 108.884C271.153 109.027 271.409 109.102 271.67 109.1C271.851 109.105 272.031 109.071 272.199 109.002C272.366 108.933 272.517 108.83 272.642 108.699C272.768 108.568 272.864 108.413 272.926 108.242C272.987 108.072 273.013 107.891 273 107.71H272.99Z" fill="white"/>
<path d="M276.33 109.28C276.118 109.451 275.852 109.54 275.58 109.53C275.446 109.539 275.312 109.519 275.187 109.472C275.062 109.425 274.948 109.351 274.853 109.257C274.759 109.162 274.685 109.048 274.638 108.923C274.591 108.798 274.571 108.664 274.58 108.53V106.38H273.94V105.97H274.58V105.19H275V105.97H276.08V106.38H275V108.51C274.987 108.596 274.994 108.683 275.021 108.766C275.047 108.848 275.092 108.923 275.151 108.986C275.211 109.049 275.284 109.097 275.366 109.127C275.447 109.157 275.534 109.168 275.62 109.16C275.811 109.166 275.998 109.098 276.14 108.97L276.33 109.28Z" fill="white"/>
<path d="M279.9 107.29V109.5H279.44V108.94C279.307 109.139 279.122 109.299 278.906 109.403C278.689 109.507 278.449 109.551 278.21 109.53C277.4 109.53 276.91 109.11 276.91 108.53C276.91 107.95 277.26 107.53 278.28 107.53H279.42V107.32C279.44 107.184 279.428 107.045 279.385 106.915C279.342 106.784 279.269 106.665 279.172 106.568C279.075 106.471 278.956 106.398 278.825 106.355C278.695 106.312 278.556 106.3 278.42 106.32C277.986 106.316 277.565 106.465 277.23 106.74L277.01 106.39C277.421 106.062 277.934 105.889 278.46 105.9C278.651 105.875 278.844 105.893 279.027 105.954C279.21 106.014 279.376 106.115 279.515 106.248C279.653 106.382 279.759 106.545 279.826 106.725C279.893 106.905 279.918 107.099 279.9 107.29ZM279.42 108.43V107.84H278.3C277.61 107.84 277.38 108.11 277.38 108.48C277.38 108.85 277.71 109.15 278.28 109.15C278.522 109.165 278.762 109.104 278.966 108.975C279.171 108.845 279.33 108.655 279.42 108.43Z" fill="white"/>
<path d="M281.2 104.47H281.68V109.47H281.2V104.47Z" fill="white"/>
<path d="M288.14 109.5L287.06 108H286.68H285.4V109.51H284.9V104.76H286.68C287.88 104.76 288.61 105.37 288.61 106.39C288.626 106.724 288.528 107.054 288.332 107.325C288.136 107.596 287.853 107.792 287.53 107.88L288.69 109.51L288.14 109.5ZM288.14 106.38C288.14 105.62 287.64 105.19 286.69 105.19H285.4V107.56H286.66C287.61 107.56 288.11 107.12 288.11 106.38H288.14Z" fill="white"/>
<path d="M292.8 107.86H289.8C289.809 108.034 289.852 108.204 289.928 108.361C290.003 108.518 290.109 108.658 290.24 108.774C290.37 108.889 290.522 108.978 290.687 109.034C290.852 109.09 291.026 109.112 291.2 109.1C291.404 109.107 291.607 109.069 291.796 108.99C291.984 108.91 292.152 108.791 292.29 108.64L292.56 108.95C292.389 109.142 292.177 109.293 291.94 109.394C291.703 109.494 291.447 109.541 291.19 109.53C290.945 109.544 290.7 109.507 290.47 109.421C290.24 109.335 290.031 109.202 289.855 109.031C289.679 108.86 289.54 108.654 289.448 108.427C289.356 108.199 289.313 107.955 289.32 107.71C289.308 107.475 289.344 107.24 289.426 107.019C289.508 106.799 289.635 106.597 289.798 106.428C289.961 106.258 290.157 106.124 290.374 106.033C290.591 105.942 290.825 105.897 291.06 105.9C291.295 105.895 291.529 105.94 291.746 106.03C291.964 106.12 292.16 106.255 292.322 106.425C292.485 106.595 292.611 106.797 292.691 107.018C292.772 107.24 292.805 107.475 292.79 107.71C292.79 107.71 292.8 107.81 292.8 107.86ZM289.8 107.5H292.33C292.302 107.184 292.156 106.89 291.922 106.676C291.688 106.461 291.382 106.343 291.065 106.343C290.748 106.343 290.442 106.461 290.208 106.676C289.974 106.89 289.828 107.184 289.8 107.5Z" fill="white"/>
<path d="M296.71 105.93L295.13 109.5H294.63L293.06 105.93H293.56L294.89 108.93L296.24 105.93H296.71Z" fill="white"/>
<path d="M300.39 107.86H297.39C297.4 108.033 297.445 108.203 297.521 108.359C297.596 108.516 297.703 108.655 297.833 108.771C297.963 108.886 298.114 108.974 298.279 109.031C298.443 109.087 298.617 109.111 298.79 109.1C298.994 109.108 299.198 109.071 299.386 108.992C299.575 108.912 299.743 108.792 299.88 108.64L300.16 108.95C299.903 109.217 299.573 109.403 299.211 109.483C298.849 109.564 298.471 109.537 298.125 109.405C297.779 109.273 297.479 109.041 297.263 108.74C297.047 108.439 296.924 108.081 296.91 107.71C296.898 107.475 296.934 107.24 297.016 107.019C297.098 106.799 297.225 106.597 297.388 106.428C297.551 106.258 297.747 106.124 297.964 106.033C298.181 105.942 298.415 105.897 298.65 105.9C298.885 105.895 299.119 105.94 299.336 106.03C299.554 106.12 299.75 106.255 299.913 106.425C300.075 106.595 300.201 106.797 300.281 107.018C300.362 107.24 300.395 107.475 300.38 107.71C300.38 107.71 300.39 107.81 300.39 107.86ZM297.39 107.5H299.92C299.892 107.184 299.746 106.89 299.512 106.676C299.278 106.461 298.972 106.343 298.655 106.343C298.338 106.343 298.032 106.461 297.798 106.676C297.564 106.89 297.418 107.184 297.39 107.5Z" fill="white"/>
<path d="M304.66 107.43V109.5H304.18V107.5C304.18 106.74 303.79 106.36 303.11 106.36C302.939 106.347 302.767 106.372 302.607 106.433C302.447 106.494 302.302 106.59 302.183 106.713C302.064 106.836 301.973 106.983 301.917 107.145C301.861 107.307 301.842 107.48 301.86 107.65V109.52H301.38V105.95H301.84V106.61C301.986 106.385 302.188 106.203 302.427 106.082C302.666 105.961 302.933 105.905 303.2 105.92C303.4 105.906 303.6 105.935 303.787 106.007C303.974 106.079 304.143 106.19 304.282 106.334C304.422 106.478 304.527 106.651 304.593 106.84C304.658 107.03 304.681 107.231 304.66 107.43Z" fill="white"/>
<path d="M309.18 105.93V109.5H308.72V108.85C308.586 109.067 308.397 109.245 308.172 109.364C307.947 109.484 307.694 109.541 307.44 109.53C307.235 109.551 307.028 109.525 306.833 109.456C306.639 109.386 306.464 109.273 306.319 109.127C306.174 108.98 306.064 108.802 305.996 108.607C305.929 108.413 305.906 108.205 305.93 108V105.93H306.41V107.93C306.387 108.08 306.398 108.232 306.442 108.377C306.486 108.521 306.563 108.654 306.666 108.765C306.769 108.875 306.896 108.961 307.037 109.016C307.178 109.071 307.329 109.093 307.48 109.08C307.649 109.088 307.818 109.06 307.976 108.996C308.133 108.933 308.274 108.836 308.39 108.712C308.506 108.589 308.594 108.441 308.648 108.28C308.701 108.119 308.719 107.949 308.7 107.78V105.91L309.18 105.93Z" fill="white"/>
<path d="M313.63 107.86H310.63C310.639 108.034 310.682 108.204 310.758 108.361C310.833 108.518 310.939 108.658 311.07 108.774C311.2 108.889 311.352 108.978 311.517 109.034C311.682 109.09 311.856 109.112 312.03 109.1C312.234 109.107 312.437 109.069 312.626 108.99C312.814 108.91 312.983 108.791 313.12 108.64L313.39 108.95C313.133 109.217 312.803 109.403 312.441 109.483C312.079 109.564 311.701 109.537 311.355 109.405C311.009 109.273 310.709 109.041 310.493 108.74C310.277 108.439 310.154 108.081 310.14 107.71C310.128 107.474 310.164 107.238 310.247 107.017C310.329 106.796 310.457 106.594 310.621 106.424C310.785 106.254 310.983 106.12 311.201 106.03C311.419 105.94 311.654 105.896 311.89 105.9C312.125 105.895 312.358 105.94 312.575 106.03C312.792 106.12 312.988 106.255 313.149 106.425C313.311 106.596 313.436 106.798 313.515 107.019C313.594 107.24 313.627 107.476 313.61 107.71L313.63 107.86ZM310.63 107.5H313.15C313.15 107.166 313.017 106.845 312.781 106.609C312.545 106.373 312.224 106.24 311.89 106.24C311.556 106.24 311.235 106.373 310.999 106.609C310.763 106.845 310.63 107.166 310.63 107.5Z" fill="white"/>
<path d="M271.64 128.05V129.72H270.15V128.1C268.826 128.058 267.541 127.645 266.44 126.91L267.26 125.09C268.117 125.683 269.112 126.048 270.15 126.15V123.66C268.5 123.25 266.65 122.66 266.65 120.57C266.65 118.99 267.8 117.63 270.15 117.36V115.71H271.64V117.33C272.697 117.395 273.725 117.706 274.64 118.24L273.9 120.08C273.195 119.673 272.417 119.408 271.61 119.3V121.84C273.27 122.22 275.09 122.78 275.09 124.84C275.12 126.43 274 127.77 271.64 128.05ZM270.15 121.46V119.35C269.36 119.53 269.05 119.96 269.05 120.45C269.05 120.94 269.5 121.26 270.15 121.46ZM272.72 125.06C272.72 124.54 272.29 124.25 271.64 124.06V126.12C272.39 125.92 272.72 125.53 272.72 125.06Z" fill="white"/>
<path d="M280 117.5V127.93H277.58V119.44H275.5V117.5H280Z" fill="white"/>
<path d="M289.69 124.65C289.69 126.5 288.33 128.11 285.35 128.11C283.937 128.136 282.547 127.75 281.35 127L282.35 125.15C283.223 125.778 284.275 126.107 285.35 126.09C286.56 126.09 287.35 125.58 287.35 124.73C287.35 123.88 286.81 123.37 284.92 123.37H282.25L282.78 117.5H289.15V119.44H284.7L284.53 121.44H285.38C288.47 121.42 289.69 122.81 289.69 124.65Z" fill="white"/>
<path d="M293.49 126.59C293.47 127.112 293.329 127.622 293.08 128.08L292.23 130.23H290.76L291.42 127.86C291.169 127.76 290.956 127.583 290.81 127.356C290.665 127.128 290.595 126.86 290.61 126.59C290.604 126.399 290.638 126.209 290.709 126.031C290.78 125.854 290.887 125.693 291.023 125.559C291.159 125.425 291.322 125.32 291.5 125.252C291.678 125.183 291.869 125.152 292.06 125.16C292.25 125.152 292.44 125.183 292.617 125.252C292.794 125.32 292.956 125.425 293.09 125.56C293.225 125.694 293.33 125.856 293.398 126.033C293.467 126.21 293.498 126.4 293.49 126.59Z" fill="white"/>
<path d="M294.38 122.72C294.38 119.27 296.29 117.32 298.85 117.32C301.41 117.32 303.33 119.32 303.33 122.72C303.33 126.12 301.43 128.11 298.85 128.11C296.27 128.11 294.38 126.16 294.38 122.72ZM300.9 122.72C300.9 120.35 300.06 119.36 298.9 119.36C297.74 119.36 296.9 120.36 296.9 122.72C296.9 125.08 297.73 126.07 298.9 126.07C300.07 126.07 300.9 125.09 300.9 122.72Z" fill="white"/>
<path d="M304.5 122.72C304.5 119.27 306.41 117.32 308.97 117.32C311.53 117.32 313.44 119.32 313.44 122.72C313.44 126.12 311.55 128.11 308.97 128.11C306.39 128.11 304.5 126.16 304.5 122.72ZM311.01 122.72C311.01 120.35 310.18 119.36 309.01 119.36C307.84 119.36 307.01 120.36 307.01 122.72C307.01 125.08 307.85 126.07 309.01 126.07C310.17 126.07 311 125.09 311 122.72H311.01Z" fill="white"/>
<path d="M314.61 122.72C314.61 119.27 316.52 117.32 319.09 117.32C321.66 117.32 323.56 119.32 323.56 122.72C323.56 126.12 321.67 128.11 319.09 128.11C316.51 128.11 314.61 126.16 314.61 122.72ZM321.13 122.72C321.13 120.35 320.3 119.36 319.13 119.36C317.96 119.36 317.13 120.36 317.13 122.72C317.13 125.08 317.97 126.07 319.13 126.07C320.29 126.07 321.13 125.09 321.13 122.72Z" fill="white"/>
<path d="M389.14 274.77H389.67C390.188 274.743 390.703 274.676 391.21 274.57C393.395 274.126 395.369 272.965 396.818 271.271C398.268 269.577 399.11 267.447 399.21 265.22C399.27 264.31 399.21 263.36 399.21 262.37C399.21 258.417 399.21 253.873 399.21 248.74C399.21 238.48 399.21 225.93 399.21 211.36C399.21 204.08 399.21 196.3 399.21 188.02C399.21 183.893 399.21 179.647 399.21 175.28C399.21 173.1 399.21 170.89 399.21 168.65C399.21 167.54 399.21 166.4 399.16 165.3C399.041 164.184 398.737 163.096 398.26 162.08C397.293 159.995 395.627 158.315 393.55 157.33C392.505 156.829 391.382 156.511 390.23 156.39C389.07 156.3 387.86 156.39 386.67 156.39H340.65H271.79H114.01C112.298 156.393 110.614 156.834 109.12 157.67C107.639 158.512 106.399 159.721 105.52 161.18C104.639 162.637 104.153 164.298 104.11 166C104.11 167.72 104.11 169.46 104.11 171.18C104.11 178.087 104.11 184.95 104.11 191.77V263.7C104.086 264.485 104.123 265.271 104.22 266.05C104.439 267.593 105.025 269.061 105.93 270.33C106.817 271.598 107.992 272.638 109.358 273.364C110.724 274.091 112.243 274.483 113.79 274.51H141.56L270.43 274.57L357.31 274.65L380.93 274.7L357.31 274.75L270.43 274.83L141.54 275H113.76C112.141 274.97 110.551 274.559 109.12 273.8C107.684 273.034 106.445 271.946 105.5 270.62C104.55 269.286 103.936 267.742 103.71 266.12C103.601 265.318 103.56 264.509 103.59 263.7V261.3C103.59 258.087 103.59 254.863 103.59 251.63V171.16C103.59 169.43 103.59 167.71 103.59 165.96C103.635 164.173 104.145 162.429 105.07 160.9C105.997 159.358 107.308 158.082 108.875 157.197C110.442 156.313 112.211 155.848 114.01 155.85H271.79H340.65H386.57C387.77 155.85 388.95 155.85 390.16 155.91C391.941 156.096 393.644 156.737 395.104 157.772C396.565 158.807 397.735 160.201 398.5 161.82C398.988 162.875 399.299 164.004 399.42 165.16C399.51 166.32 399.42 167.43 399.47 168.55V175.18C399.47 179.54 399.47 183.787 399.47 187.92C399.47 196.193 399.47 203.973 399.47 211.26C399.47 225.83 399.47 238.38 399.42 248.64C399.42 253.773 399.42 258.317 399.42 262.27C399.42 263.27 399.42 264.21 399.42 265.12C399.368 265.997 399.207 266.863 398.94 267.7C398.461 269.148 397.669 270.473 396.62 271.58C395.186 273.072 393.335 274.096 391.31 274.52C390.795 274.616 390.274 274.676 389.75 274.7L389.14 274.77Z" fill="#E0E0E0"/>
<path d="M203.77 229.97H194.17V268.08H203.77V229.97Z" fill="#EBEBEB"/>
<path d="M218.15 241.5H208.55V268.08H218.15V241.5Z" fill="#EBEBEB"/>
<path d="M189.99 241.5H180.39V268.08H189.99V241.5Z" fill="#EBEBEB"/>
<path d="M161.83 264.54H152.23V268.08H161.83V264.54Z" fill="#EBEBEB"/>
<path d="M176.1 259.2H166.5V268.08H176.1V259.2Z" fill="#EBEBEB"/>
<path d="M148.08 265.13H138.48V268.08H148.08V265.13Z" fill="#EBEBEB"/>
<path d="M133.66 265.13H124.06V268.08H133.66V265.13Z" fill="#EBEBEB"/>
<path d="M233.29 246.85H223.69V268.08H233.29V246.85Z" fill="#EBEBEB"/>
<path d="M248.44 252.68H238.84V268.08H248.44V252.68Z" fill="#EBEBEB"/>
<path d="M263.58 241.5H253.98V268.08H263.58V241.5Z" fill="#EBEBEB"/>
<path d="M278.72 224.9H269.12V268.08H278.72V224.9Z" fill="#EBEBEB"/>
<path d="M293.86 212.12H284.26V268.08H293.86V212.12Z" fill="#EBEBEB"/>
<path d="M309.01 229.97H299.41V268.08H309.01V229.97Z" fill="#EBEBEB"/>
<path d="M324.15 195.76H314.55V268.08H324.15V195.76Z" fill="#EBEBEB"/>
<path d="M339.29 229.97H329.69V268.08H339.29V229.97Z" fill="#EBEBEB"/>
<path d="M354.43 241.5H344.83V268.08H354.43V241.5Z" fill="#EBEBEB"/>
<path d="M369.58 246.49H359.98V268.08H369.58V246.49Z" fill="#EBEBEB"/>
<path d="M384.72 252.68H375.12V268.08H384.72V252.68Z" fill="#EBEBEB"/>
<path d="M132 268.08H132.94H135.71H146.35H150C151.337 268.102 152.673 268.032 154 267.87C157.019 267.505 159.921 266.481 162.5 264.87C163.923 263.968 165.198 262.851 166.28 261.56C167.346 260.116 168.227 258.544 168.9 256.88C170.4 253.48 171.76 249.79 173.15 245.88C174.54 241.97 175.93 237.88 177.42 233.63C178.17 231.5 178.93 229.33 179.81 227.15C180.696 224.917 181.795 222.774 183.09 220.75C184.441 218.607 186.095 216.67 188 215C189.965 213.328 192.21 212.014 194.63 211.12C197.132 210.22 199.771 209.757 202.43 209.75C205.154 209.702 207.87 210.038 210.5 210.75C211.839 211.119 213.138 211.618 214.38 212.24C215.631 212.894 216.808 213.682 217.89 214.59C220.053 216.476 221.823 218.77 223.1 221.34C224.328 223.97 225.332 226.7 226.1 229.5C226.98 232.28 227.86 235.09 228.84 237.89C230.681 243.635 233.252 249.12 236.49 254.21C238.151 256.784 240.322 258.989 242.87 260.69C244.166 261.51 245.604 262.08 247.11 262.37C247.865 262.517 248.631 262.594 249.4 262.6C250.18 262.6 250.96 262.6 251.73 262.48C253.823 262.326 255.864 261.751 257.73 260.79C259.544 259.751 261.1 258.315 262.28 256.59C263.49 254.88 264.5 253.04 265.53 251.23C266.546 249.422 267.467 247.563 268.29 245.66C271.57 238.09 273.61 230.2 276.67 222.92C278.037 219.275 279.651 215.726 281.5 212.3C283.326 208.97 285.646 205.936 288.38 203.3C289.697 201.998 291.164 200.857 292.75 199.9C294.322 198.964 296.001 198.218 297.75 197.68C301.129 196.664 304.656 196.234 308.18 196.41C311.549 196.549 314.877 197.2 318.05 198.34C321.069 199.453 323.851 201.126 326.25 203.27C330.94 207.41 334.34 212.27 338.25 216.11C341.905 219.659 346.366 222.271 351.25 223.72C355.299 225 359.484 225.799 363.72 226.1L381.29 226.16H385.82C386.82 226.16 387.36 226.16 387.36 226.16H385.82H381.29L363.72 226.22C359.456 225.942 355.24 225.16 351.16 223.89C346.237 222.482 341.724 219.914 338 216.4C334.08 212.53 330.66 207.69 326 203.61C323.629 201.505 320.885 199.864 317.91 198.77C314.779 197.648 311.494 197.014 308.17 196.89C304.7 196.719 301.226 197.146 297.9 198.15C294.451 199.229 291.312 201.122 288.75 203.67C286.059 206.277 283.77 209.269 281.96 212.55C280.13 215.962 278.533 219.493 277.18 223.12C274.13 230.38 272.1 238.25 268.8 245.88C267.976 247.797 267.051 249.67 266.03 251.49C265.029 253.35 263.93 255.155 262.74 256.9C261.517 258.69 259.903 260.177 258.02 261.25C256.086 262.257 253.965 262.856 251.79 263.01C251 263.12 250.2 263.09 249.41 263.13C248.608 263.125 247.807 263.045 247.02 262.89C245.453 262.589 243.957 261.995 242.61 261.14C239.995 259.406 237.768 257.148 236.07 254.51C232.809 249.381 230.218 243.856 228.36 238.07C227.36 235.26 226.5 232.44 225.63 229.66C224.856 226.888 223.853 224.185 222.63 221.58C221.386 219.065 219.656 216.822 217.54 214.98C216.492 214.089 215.348 213.318 214.13 212.68C212.917 212.072 211.648 211.583 210.34 211.22C207.754 210.511 205.081 210.175 202.4 210.22C199.796 210.223 197.212 210.673 194.76 211.55C190.08 213.348 186.104 216.606 183.42 220.84C180.76 224.84 179.29 229.39 177.77 233.62C176.25 237.85 174.84 241.97 173.47 245.87C172.1 249.77 170.69 253.45 169.17 256.87C168.477 258.555 167.577 260.147 166.49 261.61C165.38 262.922 164.075 264.055 162.62 264.97C160.002 266.584 157.064 267.608 154.01 267.97C152.683 268.125 151.346 268.185 150.01 268.15H146.3L135.66 268.1H132.89C132.27 268.1 132 268.08 132 268.08Z" fill="#1D3557"/>
<path d="M225 179.58H171C170.594 179.58 170.205 179.741 169.918 180.028C169.631 180.315 169.47 180.704 169.47 181.11V199.68C169.469 199.881 169.507 200.081 169.584 200.267C169.66 200.453 169.773 200.623 169.915 200.765C170.058 200.907 170.227 201.02 170.413 201.096C170.599 201.173 170.799 201.211 171 201.21H198.32C198.533 201.21 198.743 201.254 198.938 201.34C199.133 201.426 199.307 201.552 199.45 201.71C200.31 202.66 201.45 203.89 202.29 204.79C202.434 204.946 202.609 205.07 202.803 205.155C202.998 205.24 203.208 205.284 203.42 205.284C203.632 205.284 203.842 205.24 204.037 205.155C204.231 205.07 204.406 204.946 204.55 204.79L207.33 201.72C207.473 201.562 207.647 201.436 207.842 201.35C208.037 201.264 208.247 201.22 208.46 201.22H225C225.406 201.22 225.795 201.059 226.082 200.772C226.369 200.485 226.53 200.096 226.53 199.69V181.11C226.527 180.705 226.365 180.317 226.079 180.031C225.793 179.745 225.405 179.583 225 179.58Z" fill="#1D3557"/>
<path d="M165.78 232.46H120.78C120.539 232.46 120.307 232.556 120.137 232.726C119.966 232.897 119.87 233.129 119.87 233.37V244.37C119.87 244.611 119.966 244.843 120.137 245.013C120.307 245.184 120.539 245.28 120.78 245.28H137C137.127 245.279 137.252 245.306 137.367 245.358C137.483 245.409 137.586 245.485 137.67 245.58C138.18 246.14 138.86 246.88 139.36 247.41C139.445 247.503 139.549 247.577 139.664 247.627C139.779 247.678 139.904 247.704 140.03 247.704C140.156 247.704 140.281 247.678 140.396 247.627C140.511 247.577 140.615 247.503 140.7 247.41L142.36 245.59C142.444 245.495 142.547 245.419 142.663 245.368C142.778 245.316 142.903 245.289 143.03 245.29H165.74C165.981 245.29 166.213 245.194 166.383 245.023C166.554 244.853 166.65 244.621 166.65 244.38V233.38C166.653 233.144 166.564 232.916 166.401 232.744C166.239 232.572 166.016 232.47 165.78 232.46Z" fill="#F5F5F5"/>
<path d="M205.23 209.83C205.23 210.245 205.107 210.651 204.876 210.997C204.645 211.342 204.317 211.611 203.934 211.77C203.55 211.929 203.128 211.971 202.72 211.89C202.313 211.809 201.939 211.609 201.645 211.315C201.351 211.021 201.151 210.647 201.07 210.24C200.989 209.832 201.031 209.41 201.19 209.026C201.349 208.643 201.618 208.315 201.963 208.084C202.309 207.853 202.715 207.73 203.13 207.73C203.687 207.73 204.221 207.951 204.615 208.345C205.009 208.739 205.23 209.273 205.23 209.83Z" fill="#1D3557"/>
<path d="M203.13 212C202.709 212 202.297 211.875 201.947 211.641C201.596 211.407 201.323 211.074 201.162 210.685C201.001 210.296 200.959 209.868 201.041 209.454C201.123 209.041 201.326 208.662 201.624 208.364C201.922 208.066 202.301 207.863 202.714 207.781C203.128 207.699 203.556 207.741 203.945 207.902C204.334 208.063 204.667 208.336 204.901 208.687C205.135 209.037 205.26 209.449 205.26 209.87C205.257 210.434 205.032 210.974 204.633 211.373C204.234 211.772 203.694 211.997 203.13 212ZM203.13 207.79C202.719 207.79 202.316 207.912 201.974 208.141C201.632 208.369 201.366 208.694 201.208 209.074C201.051 209.454 201.01 209.872 201.09 210.276C201.17 210.679 201.368 211.05 201.659 211.341C201.95 211.632 202.321 211.83 202.724 211.91C203.128 211.99 203.546 211.949 203.926 211.792C204.306 211.634 204.631 211.368 204.859 211.026C205.088 210.684 205.21 210.281 205.21 209.87C205.215 209.593 205.165 209.319 205.063 209.062C204.961 208.805 204.809 208.571 204.615 208.373C204.421 208.176 204.19 208.019 203.935 207.912C203.68 207.805 203.407 207.75 203.13 207.75V207.79Z" fill="#263238"/>
<path d="M183.52 193.87V194.87H182.61V193.87C181.792 193.844 180.998 193.587 180.32 193.13L180.82 192.01C181.35 192.379 181.967 192.607 182.61 192.67V191.13C181.61 190.88 180.45 190.54 180.45 189.23C180.45 188.23 181.15 187.42 182.61 187.23V186.23H183.52V187.23C184.18 187.259 184.822 187.452 185.39 187.79L184.93 188.92C184.498 188.665 184.018 188.501 183.52 188.44V190C184.52 190.24 185.66 190.58 185.66 191.87C185.66 192.87 185 193.7 183.52 193.87ZM182.61 189.81V188.51C182.12 188.62 181.93 188.88 181.93 189.19C181.93 189.5 182.2 189.68 182.61 189.81ZM184.19 192.02C184.19 191.7 183.92 191.53 183.52 191.39V192.66C184 192.56 184.19 192.32 184.19 192V192.02Z" fill="white"/>
<path d="M188.67 187.37V193.8H187.18V188.56H185.89V187.37H188.67Z" fill="white"/>
<path d="M194.65 191.78C194.65 192.92 193.81 193.91 191.97 193.91C191.104 193.923 190.252 193.683 189.52 193.22L190.11 192.08C190.643 192.463 191.284 192.666 191.94 192.66C192.68 192.66 193.14 192.35 193.14 191.82C193.14 191.29 192.81 190.99 191.64 190.99H190L190.33 187.37H194.25V188.56H191.57L191.47 189.78H192C193.89 189.78 194.65 190.64 194.65 191.78Z" fill="white"/>
<path d="M197 193C196.986 193.321 196.9 193.636 196.75 193.92L196.22 195.24H195.32L195.72 193.78C195.566 193.718 195.435 193.61 195.346 193.47C195.256 193.33 195.212 193.166 195.22 193C195.217 192.882 195.239 192.765 195.283 192.655C195.328 192.546 195.394 192.447 195.479 192.364C195.563 192.282 195.663 192.217 195.774 192.175C195.884 192.133 196.002 192.115 196.12 192.12C196.237 192.116 196.353 192.136 196.462 192.179C196.57 192.221 196.669 192.286 196.752 192.368C196.834 192.451 196.899 192.55 196.942 192.658C196.984 192.767 197.004 192.883 197 193Z" fill="white"/>
<path d="M197.54 190.58C197.54 188.46 198.71 187.26 200.29 187.26C201.87 187.26 203.05 188.46 203.05 190.58C203.05 192.7 201.88 193.91 200.29 193.91C198.7 193.91 197.54 192.7 197.54 190.58ZM201.54 190.58C201.54 189.12 201.03 188.52 200.28 188.52C199.53 188.52 199.03 189.12 199.03 190.58C199.03 192.04 199.55 192.65 200.28 192.65C201.01 192.65 201.55 192 201.55 190.58H201.54Z" fill="white"/>
<path d="M203.77 190.58C203.77 188.46 204.95 187.26 206.53 187.26C208.11 187.26 209.29 188.46 209.29 190.58C209.29 192.7 208.12 193.91 206.53 193.91C204.94 193.91 203.77 192.7 203.77 190.58ZM207.77 190.58C207.77 189.12 207.25 188.52 206.51 188.52C205.77 188.52 205.26 189.12 205.26 190.58C205.26 192.04 205.77 192.65 206.51 192.65C207.25 192.65 207.79 192 207.79 190.58H207.77Z" fill="white"/>
<path d="M210 190.58C210 188.46 211.17 187.26 212.75 187.26C214.33 187.26 215.51 188.46 215.51 190.58C215.51 192.7 214.34 193.91 212.75 193.91C211.16 193.91 210 192.7 210 190.58ZM214 190.58C214 189.12 213.49 188.52 212.74 188.52C211.99 188.52 211.49 189.12 211.49 190.58C211.49 192.04 212.01 192.65 212.74 192.65C213.47 192.65 214 192 214 190.58Z" fill="white"/>
<path d="M90.68 41.53H409.32C410.911 41.53 412.437 42.1622 413.563 43.2874C414.688 44.4126 415.32 45.9387 415.32 47.53V60.16H84.71V47.5C84.7178 45.9191 85.3494 44.4052 86.4672 43.2873C87.5851 42.1694 89.0991 41.5379 90.68 41.53Z" fill="#263238"/>
<path d="M96.6899 53.7599C98.159 53.7599 99.3499 52.569 99.3499 51.0999C99.3499 49.6309 98.159 48.4399 96.6899 48.4399C95.2208 48.4399 94.0299 49.6309 94.0299 51.0999C94.0299 52.569 95.2208 53.7599 96.6899 53.7599Z" fill="#F5F5F5"/>
<path d="M104.98 53.7599C106.449 53.7599 107.64 52.569 107.64 51.0999C107.64 49.6309 106.449 48.4399 104.98 48.4399C103.511 48.4399 102.32 49.6309 102.32 51.0999C102.32 52.569 103.511 53.7599 104.98 53.7599Z" fill="#F5F5F5"/>
<path d="M113.27 53.7599C114.739 53.7599 115.93 52.569 115.93 51.0999C115.93 49.6309 114.739 48.4399 113.27 48.4399C111.801 48.4399 110.61 49.6309 110.61 51.0999C110.61 52.569 111.801 53.7599 113.27 53.7599Z" fill="#F5F5F5"/>
<path d="M440.86 453.36C445.368 453.397 449.747 451.858 453.242 449.01C456.736 446.162 459.126 442.183 460 437.76C463.18 421.62 467.27 399.04 467.4 373.68C467.48 358.13 464 338.44 459.19 323.68C452.19 302.08 437.13 283.05 415.29 276.82C386.92 268.72 376.65 271.82 356.53 282.38C334.65 293.85 328.73 315.38 305.95 324.96C283.84 334.25 257.17 331.08 237.01 344.08C219.28 355.52 210.63 377.49 209.93 398.58C209.405 409.787 210.493 421.012 213.16 431.91C215.91 443.42 226.3 453.29 238.16 453.39L440.86 453.36Z" fill="#1D3557"/>
<g opacity="0.4">
<path d="M440.86 453.36C445.368 453.397 449.747 451.858 453.242 449.01C456.736 446.162 459.126 442.183 460 437.76C463.18 421.62 467.27 399.04 467.4 373.68C467.48 358.13 464 338.44 459.19 323.68C452.19 302.08 437.13 283.05 415.29 276.82C386.92 268.72 376.65 271.82 356.53 282.38C334.65 293.85 328.73 315.38 305.95 324.96C283.84 334.25 257.17 331.08 237.01 344.08C219.28 355.52 210.63 377.49 209.93 398.58C209.405 409.787 210.493 421.012 213.16 431.91C215.91 443.42 226.3 453.29 238.16 453.39L440.86 453.36Z" fill="black"/>
</g>
<path d="M426.28 280.64C426.361 280.767 426.431 280.901 426.49 281.04C426.63 281.34 426.82 281.74 427.07 282.25C427.58 283.35 428.3 284.92 429.23 286.92L430.78 290.3C431.34 291.55 431.78 292.94 432.41 294.42C433.04 295.9 433.59 297.49 434.24 299.16C434.89 300.83 435.49 302.65 436.1 304.55C436.71 306.45 437.34 308.46 438 310.55C438.36 311.55 438.63 312.67 438.91 313.77C439.19 314.87 439.48 315.98 439.77 317.12L440.66 320.6C440.81 321.18 440.97 321.78 441.12 322.37C441.27 322.96 441.37 323.59 441.49 324.2C441.99 326.66 442.49 329.2 443.01 331.78C444.99 343.089 446.163 354.525 446.52 366C446.75 377.467 446.296 388.937 445.16 400.35C444.53 405.6 444.02 410.6 443.16 415.23C442.79 417.55 442.48 419.8 442.09 421.94C441.7 424.08 441.28 426.14 440.9 428.1C440.19 432.04 439.32 435.55 438.62 438.64C438.26 440.19 437.93 441.64 437.62 442.95L436.62 446.55C436.04 448.68 435.62 450.35 435.28 451.55L434.91 452.84C434.88 452.988 434.833 453.133 434.77 453.27C434.787 453.118 434.817 452.967 434.86 452.82C434.93 452.5 435.04 452.07 435.17 451.52C435.46 450.35 435.87 448.67 436.4 446.52C436.67 445.44 436.98 444.23 437.31 442.92C437.64 441.61 437.92 440.15 438.31 438.6C438.98 435.5 439.82 431.99 440.5 428.05C440.873 426.09 441.26 424.04 441.66 421.9C442.03 419.75 442.33 417.5 442.66 415.19C443.44 410.56 443.93 405.56 444.55 400.33C445.655 388.935 446.089 377.486 445.85 366.04C445.499 354.603 444.346 343.205 442.4 331.93C441.9 329.337 441.403 326.817 440.91 324.37L440.55 322.55L440.1 320.77C439.8 319.6 439.51 318.44 439.22 317.3C438.93 316.16 438.65 315.05 438.38 313.95C438.11 312.85 437.84 311.77 437.49 310.74L435.62 304.74C435.04 302.84 434.49 301.02 433.81 299.35C433.13 297.68 432.58 296.08 432.03 294.6C431.48 293.12 430.98 291.72 430.45 290.47L429 287C428.12 285 427.43 283.4 426.94 282.29L426.42 281.06C426.358 280.926 426.311 280.785 426.28 280.64Z" fill="#263238"/>
<path d="M239.86 453.2L220.94 482.83L183.94 459.47C186.39 456.08 210 461.07 210 461.07L221.35 441.59L239.86 453.2Z" fill="#455A64"/>
<g opacity="0.6">
<path d="M222.47 466.69C222.755 467.024 222.907 467.451 222.898 467.89C222.889 468.328 222.719 468.749 222.42 469.07C222.102 469.373 221.679 469.543 221.24 469.543C220.801 469.543 220.378 469.373 220.06 469.07C219.755 468.716 219.593 468.261 219.604 467.794C219.615 467.326 219.799 466.88 220.12 466.54C220.488 466.264 220.949 466.141 221.405 466.197C221.862 466.252 222.28 466.483 222.57 466.84" fill="white"/>
</g>
<g opacity="0.6">
<path d="M220.94 482.83L222.73 479.77L186.61 458.52C186.61 458.52 184.51 458.2 183.96 459.52L220.94 482.83Z" fill="white"/>
</g>
<path d="M209.54 460.5C209.43 460.69 210.28 461.34 210.8 462.5C211.32 463.66 211.32 464.7 211.53 464.73C211.74 464.76 212.13 463.55 211.48 462.18C210.83 460.81 209.6 460.31 209.54 460.5Z" fill="#263238"/>
<path d="M204.65 459.66C204.5 459.81 205.08 460.61 205.21 461.76C205.34 462.91 205.01 463.83 205.21 463.93C205.41 464.03 206.15 463.09 205.96 461.66C205.77 460.23 204.76 459.49 204.65 459.66Z" fill="#263238"/>
<path d="M199.51 462.91C199.65 463.05 200.51 462.31 200.63 461.02C200.75 459.73 200.2 458.81 200.03 458.92C199.86 459.03 200.03 459.92 199.9 460.92C199.77 461.92 199.34 462.78 199.51 462.91Z" fill="#263238"/>
<path d="M212.62 456.35C212.62 456.56 213.57 456.84 214.55 457.55C215.53 458.26 216.12 459.09 216.31 458.99C216.5 458.89 216.15 457.77 214.98 456.99C213.81 456.21 212.62 456.15 212.62 456.35Z" fill="#263238"/>
<path d="M216.27 452.52C216.22 452.59 216.86 453.15 218.13 453.68C218.871 453.985 219.647 454.196 220.44 454.31C220.911 454.375 221.385 454.408 221.86 454.41C222.139 454.43 222.42 454.403 222.69 454.33C222.89 454.277 223.066 454.158 223.191 453.994C223.316 453.829 223.383 453.627 223.38 453.42C223.37 453.237 223.316 453.06 223.224 452.902C223.132 452.743 223.004 452.609 222.85 452.51C222.618 452.362 222.365 452.247 222.1 452.17C220.871 451.757 219.558 451.658 218.28 451.88C217.548 451.945 216.851 452.227 216.28 452.69C216.28 452.81 217.1 452.5 218.39 452.4C219.138 452.341 219.891 452.378 220.63 452.51C221.062 452.592 221.487 452.709 221.9 452.86C222.36 453 222.69 453.21 222.68 453.45C222.67 453.69 222.68 453.57 222.51 453.63C222.31 453.674 222.105 453.694 221.9 453.69C221.44 453.69 220.99 453.69 220.57 453.63C219.814 453.551 219.067 453.4 218.34 453.18C217.667 452.91 216.975 452.689 216.27 452.52Z" fill="#263238"/>
<path d="M216.34 452.93C216.34 452.99 217.15 452.57 217.96 451.45C218.414 450.781 218.752 450.041 218.96 449.26C219.084 448.795 219.164 448.32 219.2 447.84C219.253 447.532 219.225 447.216 219.12 446.922C219.015 446.627 218.836 446.365 218.6 446.16C218.437 446.053 218.245 445.995 218.05 445.995C217.854 445.995 217.663 446.053 217.5 446.16C217.272 446.318 217.067 446.507 216.89 446.72C216.019 447.733 215.585 449.048 215.68 450.38C215.8 451.8 216.41 452.49 216.47 452.44C216.345 451.755 216.255 451.064 216.2 450.37C216.216 449.637 216.394 448.917 216.72 448.26C216.907 447.894 217.146 447.557 217.43 447.26C217.73 446.9 218.08 446.68 218.2 446.81C218.32 446.94 218.51 447.42 218.47 447.81C218.452 448.245 218.392 448.677 218.29 449.1C218.122 449.826 217.849 450.523 217.48 451.17C216.88 452.28 216.26 452.84 216.34 452.93Z" fill="#263238"/>
<path d="M266.33 361L255 394.25L213.53 380.36C215.1 376.48 239.22 375.71 239.22 375.71L245.6 354.09L266.33 361Z" fill="#455A64"/>
<g opacity="0.6">
<path d="M252.64 378.21C252.997 378.465 253.248 378.841 253.346 379.269C253.444 379.697 253.381 380.146 253.17 380.53C252.93 380.899 252.556 381.16 252.128 381.261C251.7 381.362 251.249 381.293 250.87 381.07C250.49 380.801 250.223 380.4 250.121 379.946C250.02 379.491 250.091 379.015 250.32 378.61C250.611 378.25 251.03 378.018 251.489 377.962C251.948 377.906 252.411 378.031 252.78 378.31" fill="white"/>
</g>
<g opacity="0.6">
<path d="M255 394.25L256 390.85L215.87 378.8C215.87 378.8 213.75 378.98 213.53 380.36L255 394.25Z" fill="white"/>
</g>
<path d="M238.61 375.27C238.55 375.48 239.54 375.91 240.31 376.89C241.08 377.87 241.31 378.89 241.55 378.89C241.79 378.89 241.85 377.6 240.89 376.42C239.93 375.24 238.63 375.07 238.61 375.27Z" fill="#263238"/>
<path d="M233.66 375.61C233.55 375.79 234.31 376.43 234.71 377.52C235.11 378.61 235.01 379.58 235.21 379.64C235.41 379.7 235.93 378.59 235.41 377.25C234.89 375.91 233.73 375.42 233.66 375.61Z" fill="#263238"/>
<path d="M229.45 380C229.62 380.11 230.24 379.19 230.09 377.91C229.94 376.63 229.09 375.91 229 376C228.91 376.09 229.25 376.93 229.35 378C229.45 379.07 229.25 379.91 229.45 380Z" fill="#263238"/>
<path d="M240.62 370.51C240.62 370.72 241.62 370.75 242.78 371.21C243.94 371.67 244.67 372.33 244.83 372.21C244.99 372.09 244.38 371.06 243.06 370.53C241.74 370 240.57 370.31 240.62 370.51Z" fill="#263238"/>
<path d="M243.25 365.92C243.871 366.327 244.589 366.562 245.33 366.6C246.124 366.723 246.931 366.743 247.73 366.66C248.201 366.615 248.669 366.538 249.13 366.43C249.41 366.379 249.679 366.284 249.93 366.15C250.101 366.053 250.237 365.903 250.318 365.723C250.399 365.544 250.421 365.343 250.38 365.15C250.322 364.977 250.227 364.819 250.101 364.688C249.974 364.557 249.82 364.455 249.65 364.39C249.385 364.302 249.109 364.252 248.83 364.24C248.351 364.2 247.869 364.2 247.39 364.24C246.586 364.325 245.8 364.534 245.06 364.86C243.8 365.43 243.21 366.07 243.27 366.14C243.33 366.21 244.02 365.76 245.27 365.35C245.983 365.118 246.722 364.973 247.47 364.92C247.906 364.886 248.344 364.886 248.78 364.92C249.26 364.92 249.64 365.07 249.68 365.3C249.72 365.53 249.68 365.42 249.56 365.52C249.377 365.614 249.182 365.681 248.98 365.72C248.549 365.833 248.111 365.92 247.67 365.98C246.921 366.084 246.165 366.118 245.41 366.08C244.695 365.973 243.973 365.919 243.25 365.92Z" fill="#263238"/>
<path d="M243.42 366.3C243.48 366.35 244.13 365.76 244.64 364.47C244.933 363.713 245.095 362.912 245.12 362.1C245.132 361.621 245.095 361.142 245.01 360.67C244.987 360.355 244.883 360.051 244.708 359.789C244.532 359.526 244.292 359.313 244.01 359.17C243.824 359.11 243.625 359.105 243.437 359.157C243.248 359.208 243.079 359.314 242.95 359.46C242.764 359.669 242.606 359.901 242.48 360.15C242.252 360.59 242.094 361.062 242.01 361.55C241.861 362.365 241.92 363.204 242.18 363.99C242.63 365.34 243.39 365.86 243.43 365.8C243.143 365.168 242.893 364.521 242.68 363.86C242.524 363.142 242.524 362.399 242.68 361.68C242.772 361.268 242.92 360.871 243.12 360.5C243.33 360.08 243.62 359.78 243.77 359.88C243.92 359.98 244.21 360.39 244.27 360.8C244.352 361.229 244.395 361.664 244.4 362.1C244.407 362.847 244.309 363.591 244.11 364.31C243.79 365.54 243.32 366.23 243.42 366.3Z" fill="#263238"/>
<path d="M335 351.48C335 351.48 303.79 301.39 295.23 287.48C285.31 271.41 264.97 273.48 260.09 287.96C261.18 284.7 256.29 299.06 239.82 352.69L267.57 360.63L285.42 345.47L292.5 365.72L335 351.48Z" fill="#263238"/>
<path d="M330.9 295.67L319.54 334.53L277.51 339.04V346.5L339.27 347.35L347.68 296.75L330.9 295.67Z" fill="#FFBE9D"/>
<path d="M340.91 348.86H283.54C279.073 348.86 274.658 349.807 270.584 351.639C266.511 353.472 262.873 356.147 259.91 359.49C257.923 361.774 256.45 364.458 255.59 367.36L213.59 445.72L240.42 460.54L290.58 389L318.58 389.34L381 350.37L340.91 348.86Z" fill="#263238"/>
<path d="M283.94 373.68C284.521 374.258 285.019 374.915 285.42 375.63C286.477 377.3 287.377 379.065 288.11 380.9C288.838 382.733 289.4 384.627 289.79 386.56C289.989 387.354 290.083 388.171 290.07 388.99C289.9 388.99 289.34 385.33 287.62 381.09C285.9 376.85 283.8 373.77 283.94 373.68Z" fill="#455A64"/>
<path d="M224.67 302.94L248 348.86H321.66L318.66 342.86L297.32 342.22L280 303.52C279.472 302.331 278.612 301.321 277.522 300.611C276.432 299.901 275.16 299.522 273.86 299.52H226.76C226.357 299.518 225.96 299.619 225.607 299.816C225.255 300.012 224.959 300.296 224.749 300.64C224.539 300.984 224.421 301.377 224.407 301.78C224.393 302.183 224.484 302.582 224.67 302.94Z" fill="#E0E0E0"/>
<path d="M262.36 323.26C262.36 323.853 262.184 324.433 261.854 324.927C261.525 325.42 261.056 325.805 260.508 326.032C259.96 326.259 259.357 326.318 258.775 326.202C258.193 326.087 257.658 325.801 257.239 325.381C256.819 324.962 256.533 324.427 256.418 323.845C256.302 323.263 256.361 322.66 256.588 322.112C256.815 321.564 257.2 321.095 257.693 320.766C258.187 320.436 258.767 320.26 259.36 320.26C260.156 320.26 260.919 320.576 261.481 321.139C262.044 321.701 262.36 322.464 262.36 323.26Z" fill="#263238"/>
<path d="M411.67 270.19C409.22 259.1 392.67 254.89 385.21 254.87C374.8 254.87 375.74 254.21 365.51 256.05H364.16C333.06 254.79 329.48 297.51 329.48 297.51L343.66 298.66L339.91 328.09L329.06 348.92L388.79 348.83L392.13 300.2L417.13 299.54C417.13 299.54 414.15 281.4 411.67 270.19Z" fill="#1D3557"/>
<path d="M345.38 279.42C345.54 279.42 344.49 289.81 343.03 302.59C341.57 315.37 340.27 325.7 340.11 325.69C339.95 325.68 341 315.3 342.46 302.52C343.92 289.74 345.22 279.4 345.38 279.42Z" fill="#263238"/>
<g opacity="0.2">
<path d="M391 279.42C388.45 291.6 385.13 304.11 382.59 316.29C382.04 318.88 381.46 321.56 379.88 323.67C378.837 324.955 377.614 326.083 376.25 327.02C371.25 330.78 365.94 334.31 360.04 336.46C368.563 335.74 377.005 334.271 385.27 332.07C386.714 331.824 388.042 331.123 389.06 330.07C389.766 328.991 390.161 327.739 390.2 326.45C392.03 310.84 391.5 295.1 391 279.38" fill="black"/>
</g>
<path d="M308.5 333.6L327 331.38L340.05 339.93L390 328L391.46 300.16L413.86 299.6L413.33 332.28C413.273 334.779 412.723 337.242 411.713 339.528C410.702 341.814 409.251 343.878 407.441 345.602C405.632 347.326 403.5 348.676 401.167 349.575C398.835 350.474 396.349 350.904 393.85 350.84L320.77 348.84L317.66 342.62L302 342.1L308.5 333.6Z" fill="#FFBE9D"/>
<path d="M390 328C389.695 328.121 389.38 328.218 389.06 328.29L386.35 328.99L376.35 331.49L343.27 339.49L340.19 340.22H340.07L339.96 340.15L326.96 331.58H327.13L308.61 333.72L308.73 333.65L303.84 339.86L302.52 341.5C302.377 341.697 302.213 341.878 302.03 342.04C302.15 341.829 302.287 341.628 302.44 341.44L303.68 339.74L308.44 333.43L308.49 333.37H308.56L327 331.11H327.1H327.18L340.24 339.65H340.01L343.09 338.91L376.22 331.06L386.27 328.74L389.01 328.14C389.336 328.066 389.667 328.019 390 328Z" fill="#EB996E"/>
<path d="M319.25 338.91C316.865 339.199 314.461 339.296 312.06 339.2H310.74L310.93 339.13C309.48 340.455 307.921 341.656 306.27 342.72C307.58 341.263 309.015 339.925 310.56 338.72L310.64 338.65H312.06C314.46 338.544 316.864 338.631 319.25 338.91Z" fill="#EB996E"/>
<path d="M398.69 332.63C397.74 331.135 396.503 329.843 395.05 328.83C392.57 327.23 390.05 327.38 390.05 327.2C390.564 327.01 391.121 326.965 391.66 327.07C392.972 327.204 394.236 327.64 395.353 328.342C396.47 329.045 397.41 329.995 398.1 331.12C398.428 331.562 398.632 332.083 398.69 332.63Z" fill="#EB996E"/>
<path d="M417.14 299.73L411.69 299.93C407.09 300.07 400.69 300.23 393.69 300.37L391.44 300.42H391.15V300.14C390.9 293.62 391.01 287.81 391.15 283.64C391.21 281.55 391.29 279.88 391.36 278.72C391.365 278.12 391.422 277.521 391.53 276.93C391.594 277.528 391.61 278.13 391.58 278.73C391.58 279.98 391.58 281.63 391.58 283.65C391.58 287.82 391.51 293.65 391.78 300.11L391.48 299.84H393.74C400.74 299.7 407.14 299.61 411.74 299.57H417.2C418.43 299.51 415.14 299.65 417.14 299.73Z" fill="#263238"/>
<path d="M378.66 299.9C378.459 300.399 378.218 300.88 377.94 301.34C377.7 301.8 377.4 302.34 377 302.97C376.6 303.6 376.19 304.32 375.65 305.07C374.423 306.858 373.087 308.567 371.65 310.19C369.875 312.168 367.967 314.022 365.94 315.74C363.89 317.43 361.728 318.98 359.47 320.38C357.618 321.499 355.697 322.501 353.72 323.38C352.88 323.78 352.09 324.07 351.41 324.38C350.73 324.69 350.13 324.87 349.64 325.02C349.143 325.222 348.627 325.373 348.1 325.47C348.572 325.218 349.064 325.004 349.57 324.83C350.05 324.65 350.64 324.42 351.3 324.12C351.96 323.82 352.74 323.51 353.56 323.12C355.499 322.192 357.385 321.157 359.21 320.02C363.69 317.236 367.756 313.836 371.29 309.92C372.733 308.328 374.088 306.659 375.35 304.92C375.9 304.18 376.35 303.48 376.76 302.87C377.17 302.26 377.5 301.74 377.76 301.3C378.02 300.809 378.321 300.341 378.66 299.9Z" fill="#263238"/>
<path d="M410.58 268.13C410.337 268.154 410.093 268.154 409.85 268.13L407.76 268.06L400.09 267.76C393.61 267.54 384.66 267.37 374.78 267.5C364.9 267.63 355.95 268.07 349.48 268.5L341.82 269L339.74 269.13C339.497 269.152 339.253 269.152 339.01 269.13C339.245 269.064 339.486 269.027 339.73 269.02L341.8 268.79C343.61 268.6 346.22 268.37 349.45 268.12C355.92 267.62 364.87 267.12 374.77 267C384.67 266.88 393.63 267.1 400.11 267.42C403.34 267.57 405.96 267.73 407.77 267.87L409.85 268.04C410.096 268.047 410.34 268.077 410.58 268.13Z" fill="#FAFAFA"/>
<path d="M344.12 288.47C339.754 288.817 335.366 288.817 331 288.47C335.366 288.124 339.754 288.124 344.12 288.47Z" fill="#FAFAFA"/>
<path d="M390.9 290.73C390.753 290.787 390.597 290.821 390.44 290.83L389.09 291.03C387.92 291.19 386.23 291.39 384.09 291.61C379.89 292.04 374.09 292.51 367.63 292.76C361.17 293.01 355.36 293 351.14 292.89C349.03 292.84 347.32 292.77 346.14 292.7L344.79 292.61C344.631 292.61 344.472 292.587 344.32 292.54C344.476 292.517 344.634 292.517 344.79 292.54H346.15H351.15C355.37 292.54 361.2 292.54 367.62 292.26C374.04 291.98 379.86 291.6 384.06 291.26L389.06 290.85L390.42 290.75C390.577 290.716 390.74 290.709 390.9 290.73Z" fill="#FAFAFA"/>
<path d="M415 286.64C415 286.78 409.68 287.38 403.09 287.97C396.5 288.56 391.15 288.91 391.09 288.77C391.03 288.63 396.41 288.03 403 287.45C409.59 286.87 414.94 286.5 415 286.64Z" fill="#FAFAFA"/>
<path d="M363.09 317.08C362.053 317.261 361.002 317.345 359.95 317.33C358 317.41 355.31 317.45 352.33 317.38C349.35 317.31 346.67 317.14 344.73 316.97C343.677 316.93 342.629 316.797 341.6 316.57C342.648 316.487 343.702 316.487 344.75 316.57C346.7 316.65 349.38 316.75 352.35 316.82C355.32 316.89 358 316.92 359.94 316.94C360.992 316.905 362.045 316.952 363.09 317.08Z" fill="#FAFAFA"/>
<path d="M390.56 317.94C390.194 318.063 389.815 318.144 389.43 318.18C388.7 318.31 387.64 318.46 386.32 318.63C383.69 318.95 380.03 319.29 375.98 319.45C371.93 319.61 368.26 319.55 365.61 319.45C364.28 319.39 363.21 319.32 362.47 319.25C362.085 319.245 361.702 319.191 361.33 319.09C361.712 319.047 362.098 319.047 362.48 319.09H365.62C368.27 319.09 371.93 319.09 375.96 318.96C379.99 318.83 383.64 318.52 386.28 318.29L389.41 318.01C389.789 317.938 390.175 317.915 390.56 317.94Z" fill="#FAFAFA"/>
<path d="M347.22 337.08C345.452 336.976 343.718 336.542 342.11 335.8C340.434 335.21 338.881 334.315 337.53 333.16C337.62 333.03 339.63 334.25 342.3 335.32C344.97 336.39 347.25 336.93 347.22 337.08Z" fill="#FAFAFA"/>
<path d="M372.16 200.78H371.16C366.624 200.758 362.243 202.435 358.882 205.482C355.521 208.528 353.422 212.723 353 217.24C352.3 225.87 351.65 235.41 351.72 240.04C351.86 249.63 361.72 251.1 361.72 251.1L361.35 259.61C361.248 262.663 362.339 265.635 364.393 267.897C366.447 270.158 369.301 271.529 372.35 271.72C373.898 271.81 375.448 271.593 376.911 271.08C378.374 270.567 379.72 269.769 380.873 268.732C382.025 267.695 382.96 266.439 383.624 265.038C384.288 263.637 384.667 262.119 384.74 260.57L386.74 220.08C387.63 210.12 382.4 201.34 372.16 200.78Z" fill="#FFBE9D"/>
<path d="M361.59 251.08C366.148 251.078 370.614 249.796 374.48 247.38C374.48 247.38 371.48 254.29 361.63 253.44L361.59 251.08Z" fill="#EB996E"/>
<path d="M356.45 223.19C356.452 223.552 356.596 223.898 356.85 224.156C357.104 224.414 357.448 224.562 357.81 224.57C357.987 224.585 358.165 224.565 358.334 224.51C358.503 224.456 358.659 224.369 358.794 224.253C358.929 224.138 359.04 223.997 359.12 223.838C359.2 223.68 359.247 223.507 359.26 223.33C359.242 222.978 359.093 222.645 358.841 222.399C358.588 222.152 358.252 222.01 357.9 222C357.551 221.969 357.203 222.077 356.932 222.299C356.661 222.522 356.488 222.841 356.45 223.19Z" fill="#263238"/>
<path d="M355.09 221.92C355.26 222.1 356.32 221.33 357.84 221.33C359.36 221.33 360.46 222.07 360.62 221.89C360.78 221.71 360.53 221.49 360.04 221.14C359.385 220.706 358.616 220.474 357.83 220.474C357.044 220.474 356.275 220.706 355.62 221.14C355.16 221.52 355 221.84 355.09 221.92Z" fill="#263238"/>
<path d="M370.57 223.64C370.575 224.001 370.719 224.346 370.973 224.603C371.226 224.86 371.569 225.01 371.93 225.02C372.107 225.035 372.285 225.015 372.454 224.96C372.623 224.906 372.779 224.819 372.914 224.703C373.049 224.588 373.16 224.447 373.24 224.288C373.32 224.13 373.367 223.957 373.38 223.78C373.375 223.416 373.228 223.068 372.97 222.81C372.712 222.552 372.364 222.405 372 222.4C371.646 222.375 371.297 222.492 371.028 222.724C370.76 222.957 370.595 223.286 370.57 223.64Z" fill="#263238"/>
<path d="M369.21 222.17C369.38 222.35 370.45 221.58 371.96 221.58C373.47 221.58 374.58 222.31 374.75 222.13C374.92 221.95 374.65 221.73 374.16 221.39C373.502 220.946 372.724 220.716 371.93 220.73C371.146 220.723 370.379 220.965 369.74 221.42C369.28 221.77 369.12 222.09 369.21 222.17Z" fill="#263238"/>
<path d="M364.49 233.1C363.69 232.86 362.864 232.719 362.03 232.68C361.65 232.68 361.28 232.57 361.21 232.31C361.178 231.919 361.268 231.527 361.47 231.19L362.61 228.33C364.18 224.25 365.32 220.89 365.16 220.83C365 220.77 363.57 224.03 361.99 228.11C361.61 229.11 361.25 230.11 360.9 230.99C360.663 231.445 360.595 231.97 360.71 232.47C360.769 232.602 360.856 232.719 360.965 232.814C361.073 232.909 361.201 232.979 361.34 233.02C361.556 233.076 361.777 233.106 362 233.11C362.827 233.212 363.664 233.208 364.49 233.1Z" fill="#263238"/>
<path d="M368.94 234.11C368.7 234.11 368.7 235.7 367.29 236.84C365.88 237.98 364.14 237.84 364.13 238.03C364.12 238.22 364.52 238.34 365.26 238.35C366.218 238.368 367.152 238.049 367.9 237.45C368.609 236.887 369.068 236.068 369.18 235.17C369.24 234.5 369.06 234.1 368.94 234.11Z" fill="#263238"/>
<path d="M369.55 216.4C369.7 216.8 371.21 216.61 372.99 216.81C374.77 217.01 376.2 217.48 376.43 217.12C376.54 216.95 376.29 216.58 375.71 216.19C374.933 215.713 374.059 215.415 373.152 215.32C372.246 215.225 371.329 215.334 370.47 215.64C369.82 215.89 369.49 216.21 369.55 216.4Z" fill="#263238"/>
<path d="M355.63 217.66C355.9 217.99 356.94 217.66 358.19 217.66C359.44 217.66 360.51 217.88 360.75 217.53C360.86 217.36 360.69 217.02 360.23 216.71C359.603 216.329 358.879 216.138 358.146 216.161C357.412 216.184 356.702 216.42 356.1 216.84C355.66 217.15 355.52 217.5 355.63 217.66Z" fill="#263238"/>
<path d="M385.3 227.18C385.47 227.11 392.06 225.18 391.86 231.77C391.66 238.36 384.94 236.77 384.94 236.59C384.94 236.41 385.3 227.18 385.3 227.18Z" fill="#FFBE9D"/>
<path d="M386.48 234.16C386.48 234.16 386.59 234.25 386.79 234.34C387.07 234.45 387.38 234.45 387.66 234.34C388.099 234.091 388.463 233.729 388.713 233.291C388.963 232.852 389.09 232.355 389.08 231.85C389.119 231.286 389.023 230.72 388.8 230.2C388.743 229.992 388.635 229.801 388.487 229.644C388.339 229.487 388.154 229.369 387.95 229.3C387.818 229.262 387.676 229.271 387.549 229.323C387.422 229.376 387.317 229.47 387.25 229.59C387.15 229.77 387.19 229.91 387.15 229.92C387.11 229.93 387.01 229.8 387.08 229.53C387.12 229.369 387.215 229.227 387.35 229.13C387.545 229.014 387.775 228.968 388 229C388.265 229.055 388.513 229.176 388.721 229.35C388.929 229.525 389.09 229.748 389.19 230C389.458 230.575 389.578 231.207 389.54 231.84C389.546 232.429 389.378 233.007 389.058 233.501C388.738 233.995 388.28 234.385 387.74 234.62C387.559 234.667 387.371 234.674 387.187 234.639C387.004 234.605 386.831 234.53 386.68 234.42C386.48 234.32 386.45 234.17 386.48 234.16Z" fill="#EB996E"/>
<path d="M380.89 207.7L352.82 208.3C353.79 206.432 355.209 204.834 356.95 203.65C360.628 200.895 365.066 199.341 369.66 199.2C374.23 199.12 383.55 204.55 386.86 207.62C389.52 210.08 389.5 212.21 389.5 212.21C389.92 215.76 387.89 219.78 387.08 223.21C386.66 225.01 385.85 230.43 385.85 230.43C384.3 230.43 383.73 229.23 383.97 227.74L384.25 221.9C382.714 220.732 381.609 219.086 381.109 217.222C380.61 215.358 380.744 213.38 381.49 211.6C381.89 211.12 382.74 208.69 380.89 207.7Z" fill="#263238"/>
<path d="M375 228.42C375.022 228.425 375.044 228.424 375.066 228.419C375.087 228.415 375.108 228.405 375.126 228.392C375.144 228.379 375.159 228.362 375.17 228.343C375.181 228.324 375.188 228.302 375.19 228.28C375.196 228.259 375.198 228.236 375.195 228.214C375.192 228.191 375.185 228.17 375.174 228.15C375.163 228.131 375.148 228.113 375.13 228.1C375.112 228.086 375.092 228.076 375.07 228.07C375.024 228.064 374.977 228.077 374.94 228.105C374.902 228.133 374.877 228.174 374.87 228.22C374.861 228.264 374.87 228.309 374.894 228.347C374.918 228.384 374.956 228.411 375 228.42Z" fill="#EB996E"/>
<path d="M372.1 227.79C372.125 227.793 372.15 227.791 372.174 227.784C372.199 227.776 372.221 227.765 372.241 227.749C372.26 227.733 372.276 227.714 372.288 227.691C372.3 227.669 372.308 227.645 372.31 227.62C372.323 227.574 372.318 227.524 372.295 227.481C372.273 227.439 372.235 227.406 372.19 227.39C372.165 227.387 372.14 227.39 372.116 227.397C372.092 227.404 372.069 227.415 372.05 227.431C372.03 227.447 372.014 227.467 372.002 227.489C371.99 227.511 371.983 227.535 371.98 227.56C371.967 227.606 371.972 227.656 371.995 227.699C372.017 227.741 372.055 227.774 372.1 227.79Z" fill="#EB996E"/>
<path d="M370.16 227.75C370.25 227.75 370.34 227.65 370.36 227.5C370.38 227.35 370.36 227.23 370.22 227.22C370.08 227.21 370.04 227.32 370.03 227.46C370.02 227.6 370.07 227.74 370.16 227.75Z" fill="#EB996E"/>
<path d="M373.58 230.19C373.67 230.19 373.75 230.14 373.74 230.09C373.73 230.04 373.67 229.98 373.58 229.98C373.49 229.98 373.41 230.03 373.41 230.09C373.41 230.15 373.49 230.19 373.58 230.19Z" fill="#EB996E"/>
<path d="M370.93 229.6C370.976 229.6 371.02 229.582 371.054 229.551C371.087 229.519 371.107 229.476 371.11 229.43C371.116 229.384 371.103 229.337 371.075 229.3C371.047 229.262 371.006 229.237 370.96 229.23C370.914 229.23 370.87 229.248 370.836 229.279C370.803 229.311 370.782 229.354 370.78 229.4C370.776 229.423 370.776 229.447 370.782 229.47C370.787 229.493 370.797 229.514 370.811 229.533C370.825 229.552 370.843 229.567 370.863 229.579C370.884 229.59 370.907 229.598 370.93 229.6Z" fill="#EB996E"/>
<path d="M357.13 228C357.165 228.009 357.202 228.008 357.236 227.996C357.27 227.984 357.299 227.962 357.321 227.934C357.342 227.905 357.355 227.87 357.356 227.834C357.358 227.798 357.348 227.762 357.329 227.731C357.31 227.701 357.283 227.677 357.25 227.662C357.217 227.647 357.18 227.643 357.145 227.649C357.109 227.655 357.076 227.672 357.051 227.697C357.025 227.723 357.007 227.755 357 227.79C356.991 227.835 356.999 227.882 357.023 227.921C357.047 227.96 357.086 227.988 357.13 228Z" fill="#EB996E"/>
<path d="M355.16 227.85C355.25 227.85 355.33 227.77 355.35 227.66C355.346 227.629 355.333 227.599 355.313 227.574C355.293 227.549 355.266 227.531 355.236 227.521C355.206 227.51 355.174 227.509 355.143 227.516C355.112 227.523 355.083 227.539 355.061 227.561C355.039 227.584 355.023 227.612 355.016 227.643C355.008 227.674 355.01 227.706 355.02 227.737C355.031 227.767 355.049 227.793 355.074 227.813C355.099 227.833 355.128 227.846 355.16 227.85Z" fill="#EB996E"/>
<path d="M358.87 228.07C358.91 228.077 358.95 228.07 358.985 228.05C359.02 228.03 359.046 227.998 359.06 227.96C359.064 227.94 359.064 227.92 359.06 227.9C359.056 227.88 359.047 227.861 359.034 227.845C359.022 227.829 359.006 227.815 358.988 227.806C358.97 227.797 358.95 227.791 358.93 227.79C358.89 227.78 358.848 227.784 358.811 227.803C358.774 227.821 358.746 227.852 358.73 227.89C358.727 227.932 358.739 227.974 358.765 228.007C358.791 228.04 358.828 228.063 358.87 228.07Z" fill="#EB996E"/>
<path d="M357.41 230C357.455 230.013 357.504 230.01 357.546 229.989C357.589 229.969 357.622 229.934 357.64 229.89C357.652 229.87 357.66 229.847 357.663 229.824C357.666 229.801 357.664 229.777 357.658 229.755C357.651 229.732 357.64 229.711 357.625 229.693C357.61 229.675 357.591 229.66 357.57 229.65C357.548 229.642 357.524 229.639 357.5 229.64C357.477 229.641 357.454 229.647 357.432 229.657C357.411 229.667 357.392 229.682 357.376 229.699C357.36 229.717 357.348 229.738 357.34 229.76C357.318 229.801 357.313 229.849 357.327 229.894C357.34 229.939 357.37 229.977 357.41 230Z" fill="#EB996E"/>
<path d="M355.73 229.66C355.75 229.658 355.768 229.651 355.785 229.641C355.802 229.631 355.817 229.618 355.828 229.602C355.839 229.586 355.847 229.568 355.851 229.548C355.855 229.529 355.854 229.509 355.85 229.49C355.834 229.452 355.805 229.422 355.768 229.405C355.731 229.389 355.689 229.387 355.65 229.4C355.612 229.407 355.578 229.429 355.556 229.461C355.533 229.493 355.524 229.532 355.53 229.57C355.537 229.59 355.547 229.607 355.561 229.623C355.575 229.638 355.592 229.65 355.61 229.659C355.629 229.667 355.65 229.672 355.67 229.672C355.691 229.672 355.711 229.668 355.73 229.66Z" fill="#EB996E"/>
<path d="M387.05 208C387.364 206.792 387.385 205.526 387.11 204.308C386.835 203.09 386.273 201.956 385.47 201C384.656 200.019 383.628 199.238 382.465 198.718C381.301 198.198 380.034 197.952 378.76 198C377.462 198.193 376.152 198.286 374.84 198.28C372.41 198.02 370.54 196.13 368.29 195.21C366.518 194.528 364.571 194.446 362.749 194.977C360.926 195.508 359.328 196.623 358.2 198.15C357.34 199.39 356.78 200.93 355.48 201.71C354.35 202.39 352.92 202.33 351.65 202.71C350.395 203.121 349.307 203.928 348.549 205.01C347.792 206.092 347.406 207.39 347.45 208.71C347.575 210.026 348.061 211.282 348.853 212.34C349.645 213.399 350.713 214.219 351.94 214.71C353.192 215.194 354.535 215.398 355.874 215.306C357.213 215.215 358.516 214.83 359.69 214.18C361.81 213.03 363.69 211.08 366.13 211.18C368.57 211.28 370.83 213.56 373.29 213.08C374.543 212.693 375.662 211.962 376.52 210.97C377.38 209.975 378.562 209.313 379.86 209.1C381.18 209.02 381.86 210.78 381.39 211.98L387.05 208.06" fill="#263238"/>
<path d="M353.37 204.83V204.93C353.37 204.99 353.46 205.08 353.54 205.19C353.762 205.524 354.032 205.823 354.34 206.08C355.32 206.915 356.585 207.339 357.87 207.264C359.155 207.19 360.362 206.622 361.24 205.68C361.936 204.754 362.583 203.793 363.18 202.8C363.535 202.301 364.001 201.891 364.54 201.6C365.121 201.325 365.757 201.188 366.4 201.2C367.067 201.22 367.721 201.395 368.31 201.71C368.907 202.033 369.397 202.523 369.72 203.12C370.022 203.75 370.355 204.364 370.72 204.96C370.915 205.265 371.178 205.519 371.489 205.703C371.8 205.887 372.149 205.996 372.51 206.02C373.217 206.041 373.913 205.85 374.51 205.47C375.06 205.142 375.562 204.738 376 204.27C376.733 203.385 377.694 202.717 378.78 202.34C379.269 202.249 379.772 202.259 380.258 202.371C380.743 202.483 381.2 202.694 381.6 202.99C382.27 203.464 382.805 204.105 383.15 204.85C383.414 205.411 383.609 206.002 383.73 206.61C383.83 207.11 383.88 207.51 383.92 207.77C383.921 207.909 383.941 208.047 383.98 208.18V208.07C383.98 208.01 383.98 207.9 383.98 207.77C383.954 207.375 383.907 206.981 383.84 206.59C383.737 205.97 383.556 205.365 383.3 204.79C382.95 204.018 382.41 203.346 381.73 202.84C381.307 202.519 380.822 202.29 380.305 202.167C379.788 202.045 379.252 202.032 378.73 202.13C377.594 202.509 376.588 203.203 375.83 204.13C375.399 204.579 374.912 204.969 374.38 205.29C373.837 205.627 373.209 205.804 372.57 205.8C372.245 205.771 371.931 205.666 371.654 205.492C371.378 205.318 371.147 205.081 370.98 204.8C370.6 204.26 370.35 203.6 369.98 202.98C369.632 202.342 369.108 201.818 368.47 201.47C367.854 201.139 367.169 200.958 366.47 200.94C365.778 200.921 365.092 201.068 364.47 201.37C363.896 201.678 363.403 202.117 363.03 202.65C362.29 203.65 361.85 204.74 361.13 205.52C360.443 206.253 359.551 206.762 358.57 206.98C357.754 207.159 356.906 207.121 356.11 206.87C355.51 206.681 354.951 206.383 354.46 205.99C354.049 205.652 353.682 205.262 353.37 204.83Z" fill="#455A64"/>
<path d="M348.28 204.93C348.21 205.095 348.172 205.271 348.17 205.45C348.128 205.945 348.175 206.443 348.31 206.92C348.517 207.632 348.875 208.29 349.36 208.85C349.975 209.531 350.733 210.067 351.58 210.42C353.137 211.03 354.828 211.216 356.48 210.96C356.975 210.892 357.466 210.795 357.95 210.67C358.132 210.643 358.308 210.586 358.47 210.5C358.47 210.5 357.7 210.64 356.47 210.77C354.856 210.973 353.216 210.77 351.7 210.18C350.888 209.842 350.159 209.334 349.56 208.69C349.088 208.162 348.731 207.543 348.51 206.87C348.323 206.241 348.245 205.585 348.28 204.93Z" fill="#455A64"/>
<path d="M421.49 302C421.32 314.86 413.49 326.71 403.25 334.52C393.01 342.33 380.61 346.66 368.25 350.22C355.89 353.78 343.25 356.73 331.61 362.22C315.51 369.84 300.61 380.29 291.49 395.61C282.37 410.93 279.15 431.06 280.17 448.84L417 435.18L424.49 357.43L421.49 302Z" fill="#1D3557"/>
<path d="M298.91 384.71C298.811 384.907 298.694 385.095 298.56 385.27L297.47 386.81C296.99 387.47 296.39 388.27 295.78 389.25C295.17 390.23 294.39 391.3 293.69 392.59C292.99 393.88 292.13 395.21 291.38 396.76C290.63 398.31 289.82 399.94 289.04 401.7C287.414 405.556 286.077 409.526 285.04 413.58C284.086 417.647 283.404 421.773 283 425.93C282.82 427.85 282.66 429.68 282.61 431.39C282.56 433.1 282.51 434.7 282.49 436.16C282.47 437.62 282.49 438.94 282.55 440.1C282.61 441.26 282.62 442.26 282.67 443.1C282.72 443.94 282.73 444.5 282.75 444.98C282.777 445.199 282.777 445.421 282.75 445.64C282.692 445.428 282.659 445.21 282.65 444.99C282.6 444.51 282.54 443.89 282.47 443.12C282.4 442.35 282.3 441.31 282.26 440.12C282.22 438.93 282.11 437.64 282.12 436.17C282.13 434.7 282.12 433.11 282.17 431.38C282.22 429.65 282.36 427.83 282.52 425.89C282.922 421.703 283.617 417.55 284.6 413.46C285.626 409.384 286.963 405.392 288.6 401.52C289.4 399.76 290.16 398.08 291 396.57C291.84 395.06 292.62 393.66 293.37 392.4C294.12 391.14 294.9 390.07 295.54 389.1C296.18 388.13 296.8 387.34 297.31 386.69L298.47 385.22C298.598 385.035 298.745 384.864 298.91 384.71Z" fill="#263238"/>
<g opacity="0.4">
<path d="M421.49 302C421.32 314.86 413.49 326.71 403.25 334.52C393.01 342.33 380.61 346.66 368.25 350.22C355.89 353.78 343.25 356.73 331.61 362.22C315.51 369.84 300.61 380.29 291.49 395.61C282.37 410.93 279.15 431.06 280.17 448.84L417 435.18L424.49 357.43L421.49 302Z" fill="black"/>
</g>
<path d="M105.79 359.85C99.7913 353.855 92.3368 349.523 84.1583 347.279C75.9797 345.035 67.3582 344.956 59.14 347.05C73.0631 356.536 89.4929 361.667 106.34 361.79" fill="#1D3557"/>
<path d="M90.0001 303.82C92.0001 290.07 86.6001 274.61 76.3101 264.62C75.9701 278.24 81.7201 293.57 90.0001 303.82Z" fill="#1D3557"/>
<path d="M98.19 329.79C90.7561 315.67 78.9215 304.358 64.48 297.57C66.7384 305.483 71.0637 312.652 77.0112 318.34C82.9587 324.027 90.3138 328.028 98.32 329.93" fill="#1D3557"/>
<path d="M99.9001 334.8C91.5901 335.03 83.1901 334.74 75.1601 332.61C67.1301 330.48 59.4401 326.4 54.1001 320.05C70.3655 320.098 86.254 324.951 99.7701 334" fill="#1D3557"/>
<path d="M95.6801 318.29C99.9001 302.5 106.85 291.57 119.27 282.72C120.221 290.487 118.366 298.339 114.042 304.86C109.717 311.381 103.205 316.144 95.6801 318.29Z" fill="#1D3557"/>
<path d="M127 345.53C127.03 340.924 125.699 336.411 123.172 332.559C120.646 328.707 117.037 325.688 112.8 323.88C113.49 332.03 119.9 341.47 127 345.53Z" fill="#1D3557"/>
<path d="M131 332.22C131.576 325.606 134.03 319.295 138.073 314.03C142.116 308.764 147.579 304.764 153.82 302.5C150.96 315.7 143.32 326.69 131 332.22Z" fill="#1D3557"/>
<path d="M125 355.85C127.93 351.66 132.71 349.06 137.65 347.76C142.59 346.46 147.76 346.35 152.87 346.25C149.387 350.028 145.128 353.007 140.384 354.982C135.64 356.957 130.525 357.881 125.39 357.69" fill="#1D3557"/>
<path d="M119.08 389.52C128.397 386.649 138.451 387.372 147.262 391.546C156.072 395.72 163 403.042 166.68 412.07C149.39 408.79 132.33 401.07 119.08 389.52Z" fill="#1D3557"/>
<path d="M100.1 377.82C102.97 386.31 102.42 396.57 96.0301 403.89C94.76 399.511 94.4662 394.908 95.1694 390.403C95.8727 385.899 97.5558 381.603 100.1 377.82Z" fill="#1D3557"/>
<path d="M88.8801 373.1C88.4074 378.567 86.5366 383.821 83.4474 388.357C80.3582 392.893 76.1545 396.558 71.2401 399C71.0114 399.147 70.7551 399.246 70.4869 399.291C70.2187 399.335 69.9441 399.325 69.6801 399.26C68.9001 398.94 68.8301 397.88 68.9301 397.04C70.1801 386.16 78.2401 375.64 88.8801 373.04" fill="#1D3557"/>
<path d="M81.55 372C79.113 374.633 76.1612 376.736 72.8776 378.181C69.5939 379.625 66.0486 380.38 62.4613 380.398C58.874 380.416 55.3213 379.696 52.0235 378.284C48.7257 376.873 45.7531 374.798 43.29 372.19C55.45 370.86 69.49 369.97 81.55 372Z" fill="#1D3557"/>
<path d="M79.73 274.75C79.7633 274.869 79.8034 274.986 79.85 275.1C79.94 275.36 80.06 275.7 80.22 276.1C80.56 277.03 81.05 278.35 81.68 280.04C82.31 281.73 83.09 283.85 83.97 286.29L85.38 290.19C85.86 291.58 86.38 293.05 86.9 294.59C89.05 300.75 91.44 308.15 94.03 316.38C96.62 324.61 99.23 333.73 101.85 343.33C104.47 352.93 106.73 362.16 108.68 370.57C110.63 378.98 112.21 386.57 113.38 393C113.69 394.6 113.97 396.13 114.25 397.57C114.53 399.01 114.72 400.39 114.94 401.67C115.38 404.22 115.76 406.42 116.01 408.23C116.26 410.04 116.5 411.41 116.65 412.38C116.73 412.84 116.78 413.2 116.83 413.46C116.88 413.72 116.9 413.83 116.9 413.83C116.911 413.707 116.911 413.583 116.9 413.46C116.9 413.19 116.82 412.83 116.76 412.37C116.63 411.37 116.45 409.99 116.21 408.2C115.97 406.41 115.63 404.2 115.21 401.62C115 400.34 114.78 398.97 114.55 397.52L113.72 392.94C112.58 386.51 110.98 378.94 109.11 370.47C107.24 362 104.9 352.84 102.31 343.21C99.72 333.58 97.01 324.5 94.45 316.21C91.89 307.92 89.45 300.59 87.22 294.45C86.67 292.91 86.16 291.45 85.67 290.05C85.18 288.65 84.67 287.38 84.22 286.16C83.32 283.73 82.54 281.63 81.86 279.94C81.18 278.25 80.68 276.94 80.31 276.03C80.14 275.6 80 275.27 79.9 275.03C79.8504 274.933 79.7936 274.839 79.73 274.75Z" fill="#263238"/>
<path d="M146.55 309.54L146.34 309.74L145.76 310.35C145.25 310.89 144.52 311.7 143.6 312.77C140.993 315.782 138.6 318.973 136.44 322.32C133.216 327.281 130.695 332.666 128.95 338.32C126.95 344.69 125.69 351.94 124.45 359.52C121.98 374.69 118.95 388.27 116.75 398.1L114.11 409.73C113.81 411.08 113.58 412.15 113.41 412.9C113.34 413.24 113.29 413.51 113.24 413.73C113.231 413.823 113.231 413.917 113.24 414.01C113.282 413.924 113.312 413.834 113.33 413.74C113.33 413.53 113.45 413.26 113.54 412.92L114.33 409.77C114.99 407 115.94 403.05 117.11 398.17C119.39 388.36 122.48 374.78 124.95 359.6C126.19 352.02 127.42 344.79 129.4 338.44C131.108 332.796 133.581 327.413 136.75 322.44C138.875 319.09 141.213 315.88 143.75 312.83C144.64 311.74 145.36 310.92 145.84 310.36L146.39 309.71C146.5 309.63 146.56 309.55 146.55 309.54Z" fill="#263238"/>
<path d="M77.92 371.48C78.0622 371.527 78.2103 371.554 78.36 371.56L79.62 371.7L80.53 371.79L81.6 371.95C82.38 372.06 83.26 372.18 84.22 372.39L85.73 372.69L87.34 373.1C88.47 373.35 89.63 373.77 90.87 374.1C93.5265 375.022 96.1047 376.156 98.58 377.49C101.029 378.865 103.339 380.473 105.48 382.29C106.411 383.09 107.296 383.941 108.13 384.84C108.874 385.604 109.575 386.409 110.23 387.25C110.87 387.99 111.32 388.76 111.78 389.39C112.168 389.935 112.522 390.502 112.84 391.09L113.49 392.17C113.557 392.304 113.641 392.428 113.74 392.54C113.74 392.54 113.74 392.39 113.57 392.13C113.4 391.87 113.23 391.45 113 391C112.707 390.395 112.373 389.81 112 389.25C111.536 388.491 111.032 387.756 110.49 387.05C109.847 386.182 109.153 385.354 108.41 384.57C107.576 383.654 106.692 382.786 105.76 381.97C103.599 380.11 101.253 378.474 98.76 377.09C96.2637 375.74 93.6578 374.602 90.97 373.69C89.71 373.33 88.54 372.93 87.4 372.69L85.76 372.3L84.23 372.03C83.23 371.83 82.38 371.74 81.6 371.65L80.51 371.53L79.59 371.48H78.32C78.1875 371.46 78.0526 371.46 77.92 371.48Z" fill="#263238"/>
<path d="M74.4601 309.84C74.7236 310.146 75.0149 310.427 75.3301 310.68L77.8401 312.85C79.9601 314.67 82.9201 317.16 86.2101 319.85C89.5001 322.54 92.4901 325.03 94.6701 326.78L97.2701 328.84C97.5757 329.111 97.9112 329.346 98.2701 329.54C98.0043 329.233 97.7096 328.951 97.3901 328.7L94.8901 326.53C92.7601 324.71 89.8001 322.22 86.5201 319.53C83.2401 316.84 80.2401 314.35 78.0601 312.6L75.4601 310.54C75.1544 310.27 74.8189 310.035 74.4601 309.84Z" fill="#263238"/>
<path d="M71.4701 325.93C71.4701 326.05 77.8201 328.05 85.7301 330.38C93.6401 332.71 100.09 334.52 100.13 334.38C100.17 334.24 93.7801 332.26 85.8601 329.92C77.9401 327.58 71.5001 325.8 71.4701 325.93Z" fill="#263238"/>
<path d="M95.05 319.52C95.3042 319.24 95.5256 318.931 95.71 318.6L97.39 316C98.82 313.84 100.85 310.89 103.25 307.75C105.65 304.61 107.96 301.88 109.66 299.93L111.66 297.62C111.928 297.353 112.166 297.058 112.37 296.74C112.063 296.962 111.781 297.217 111.53 297.5C111.01 298 110.28 298.76 109.39 299.71C107.63 301.61 105.27 304.32 102.86 307.47C100.45 310.62 98.46 313.61 97.1 315.82C96.42 316.93 95.88 317.82 95.53 318.47C95.33 318.801 95.169 319.153 95.05 319.52Z" fill="#263238"/>
<path d="M117.23 328.45C117.677 329.305 118.178 330.13 118.73 330.92C119.73 332.42 120.98 334.5 122.32 336.86C123.66 339.22 124.79 341.39 125.59 342.98C125.984 343.86 126.439 344.712 126.95 345.53C126.679 344.603 126.325 343.703 125.89 342.84C125.16 341.21 124.07 339 122.73 336.63C121.39 334.26 120.03 332.19 119 330.73C118.485 329.915 117.892 329.151 117.23 328.45Z" fill="#263238"/>
<path d="M124.82 356.29C124.82 356.35 126.07 355.76 128.07 354.86C130.07 353.96 132.85 352.79 135.99 351.68C139.13 350.57 142.05 349.76 144.17 349.22C146.29 348.68 147.61 348.39 147.6 348.32C147.28 348.304 146.96 348.338 146.65 348.42C146.04 348.51 145.17 348.67 144.09 348.9C141.295 349.516 138.54 350.301 135.84 351.25C133.138 352.191 130.497 353.296 127.93 354.56C126.93 355.05 126.16 355.47 125.63 355.77C125.34 355.909 125.067 356.084 124.82 356.29Z" fill="#263238"/>
<path d="M118.85 389.57C118.973 389.631 119.105 389.675 119.24 389.7L120.39 389.99L124.64 390.99C129.322 391.979 133.952 393.204 138.51 394.66C143.067 396.17 147.43 398.211 151.51 400.74C153.06 401.74 154.26 402.59 155.07 403.22C155.481 403.562 155.912 403.879 156.36 404.17C156.278 404.06 156.184 403.959 156.08 403.87C155.87 403.69 155.59 403.41 155.19 403.08C154.074 402.142 152.905 401.267 151.69 400.46C147.639 397.837 143.271 395.74 138.69 394.22C134.103 392.743 129.427 391.557 124.69 390.67L120.41 389.84C119.897 389.713 119.376 389.622 118.85 389.57Z" fill="#263238"/>
<path d="M97.2401 397.77C97.3701 397.77 98.1301 393.31 98.9401 387.77C99.7501 382.23 100.31 377.72 100.18 377.7C100.05 377.68 99.2901 382.16 98.4801 387.7C97.6701 393.24 97.1101 397.75 97.2401 397.77Z" fill="#263238"/>
<path d="M74.75 389.6C75.4708 388.843 76.139 388.038 76.75 387.19C77.97 385.68 79.65 383.6 81.56 381.33C83.47 379.06 85.23 377.05 86.56 375.59C87.278 374.831 87.9461 374.026 88.56 373.18C88.56 373.18 88.31 373.35 87.92 373.73C87.53 374.11 86.92 374.66 86.3 375.36C84.95 376.77 83.14 378.76 81.23 381.03C79.32 383.3 77.68 385.43 76.52 387.03C75.95 387.82 75.52 388.46 75.19 388.91C75.0106 389.118 74.8623 389.35 74.75 389.6Z" fill="#263238"/>
<path d="M134.28 410.46V421.58H131.5L121.62 452.76H99.7101L90.1401 421.89L86.4301 421.58V410.46H134.28Z" fill="#455A64"/>
<path d="M88.28 421.89C88.28 422.02 97.96 422.12 109.89 422.12C121.82 422.12 131.5 422.02 131.5 421.89C131.5 421.76 121.82 421.66 109.89 421.66C97.96 421.66 88.28 421.76 88.28 421.89Z" fill="#263238"/>
<path d="M72.53 350.39C72.9823 350.565 73.4515 350.692 73.93 350.77L77.78 351.7C81.02 352.5 85.47 353.7 90.3 355.34C95.13 356.98 99.41 358.69 102.47 360.01L106.1 361.59C106.533 361.813 106.985 361.997 107.45 362.14C107.047 361.87 106.622 361.632 106.18 361.43C105.35 361 104.13 360.43 102.61 359.71C98.64 357.896 94.5777 356.29 90.44 354.9C86.3065 353.512 82.1043 352.337 77.85 351.38C76.22 351.02 74.85 350.75 73.97 350.6C73.4959 350.495 73.0146 350.424 72.53 350.39Z" fill="#263238"/>
<path d="M95.5601 439.2C95.5601 439.33 102.35 439.44 110.72 439.44C119.09 439.44 125.88 439.33 125.88 439.2C125.88 439.07 119.09 438.97 110.72 438.97C102.35 438.97 95.5601 439.08 95.5601 439.2Z" fill="#FAFAFA"/>
<path d="M94.7101 436.63C94.7101 436.75 101.9 436.86 110.77 436.86C119.64 436.86 126.84 436.75 126.84 436.63C126.84 436.51 119.64 436.39 110.77 436.39C101.9 436.39 94.7101 436.5 94.7101 436.63Z" fill="#FAFAFA"/>
</svg>
