<svg width="293" height="243" viewBox="0 0 293 243" fill="none" xmlns="http://www.w3.org/2000/svg">
<path d="M143.775 219.852C195.373 219.852 237.201 217.141 237.201 213.796C237.201 210.452 195.373 207.741 143.775 207.741C92.1774 207.741 50.3491 210.452 50.3491 213.796C50.3491 217.141 92.1774 219.852 143.775 219.852Z" fill="#F5F5F5"/>
<path d="M232.589 78.5328L220.102 110.842C219.959 111.213 219.703 111.546 219.359 111.81C219.014 112.073 218.593 112.258 218.136 112.347C217.68 112.435 217.203 112.423 216.754 112.313C216.304 112.202 215.897 111.997 215.572 111.717L209.079 106.142C208.588 105.723 207.921 105.479 207.217 105.46C206.513 105.441 205.828 105.649 205.305 106.04L151.083 146.864C150.598 147.229 149.972 147.435 149.318 147.447C148.665 147.459 148.028 147.274 147.526 146.928L113.098 123.186C112.6 122.847 111.973 122.666 111.329 122.674C110.685 122.683 110.066 122.882 109.582 123.235L41.9517 172.943L44.5184 153.017C44.5843 152.455 44.9047 151.934 45.415 151.559L109.236 104.65C109.721 104.299 110.341 104.102 110.985 104.094C111.628 104.086 112.255 104.268 112.752 104.607L147.039 128.304C147.542 128.651 148.178 128.835 148.832 128.823C149.485 128.812 150.112 128.605 150.596 128.241L193.374 96.0142C193.643 95.8118 193.86 95.5665 194.013 95.293C194.165 95.0196 194.249 94.7234 194.261 94.4223C194.272 94.1212 194.211 93.8213 194.079 93.5404C193.948 93.2595 193.75 93.0033 193.497 92.7872L187.11 87.2759C186.776 86.9897 186.539 86.6351 186.425 86.2484C186.31 85.8616 186.321 85.4565 186.457 85.0745C186.593 84.6924 186.849 84.3472 187.198 84.0739C187.547 83.8007 187.978 83.6092 188.446 83.5192L229.396 75.6557C229.863 75.5649 230.35 75.5787 230.809 75.6956C231.267 75.8125 231.68 76.0283 232.005 76.321C232.33 76.6137 232.555 76.9727 232.658 77.3614C232.761 77.75 232.737 78.1543 232.589 78.5328Z" fill="#A8DADC"/>
<path opacity="0.1" d="M232.572 78.5861L220.125 110.808C219.979 111.183 219.718 111.52 219.367 111.787C219.017 112.054 218.59 112.241 218.127 112.33C217.664 112.419 217.181 112.407 216.725 112.295C216.269 112.183 215.855 111.976 215.525 111.692L209.079 106.181C208.581 105.755 207.904 105.506 207.189 105.486C206.474 105.466 205.777 105.677 205.247 106.074L151.083 146.864C150.548 147.269 149.842 147.482 149.119 147.457C148.513 147.441 147.931 147.256 147.467 146.932L113.116 123.22C112.608 122.875 111.969 122.69 111.313 122.698C110.656 122.706 110.024 122.906 109.529 123.264L41.9517 172.943L44.6298 152.176L109.213 104.709C109.707 104.349 110.339 104.147 110.996 104.139C111.653 104.131 112.293 104.318 112.799 104.665L127.396 114.74L147.01 128.304C147.521 128.654 148.166 128.84 148.829 128.828C149.491 128.817 150.127 128.608 150.62 128.241L193.38 96.0335C193.654 95.8286 193.875 95.58 194.031 95.3025C194.186 95.0249 194.273 94.7243 194.285 94.4184C194.297 94.1126 194.234 93.8079 194.101 93.5226C193.968 93.2373 193.766 92.9772 193.509 92.7579L187.174 87.3195C186.836 87.0288 186.597 86.6688 186.482 86.2765C186.366 85.8841 186.378 85.4734 186.516 85.0861C186.654 84.6988 186.914 84.3488 187.268 84.0718C187.623 83.7948 188.059 83.6007 188.534 83.5093L229.343 75.6653C229.816 75.5771 230.308 75.594 230.771 75.7142C231.234 75.8345 231.65 76.0539 231.977 76.3502C232.305 76.6465 232.532 77.0093 232.637 77.4019C232.741 77.7945 232.719 78.203 232.572 78.5861Z" fill="black"/>
<path d="M161.918 199.765H111.926V209.174H161.918V199.765Z" fill="#A8DADC"/>
<path opacity="0.2" d="M118.255 199.765H116.901V209.174H118.255V199.765Z" fill="black"/>
<path opacity="0.2" d="M125.211 199.765H123.857V209.174H125.211V199.765Z" fill="black"/>
<path opacity="0.2" d="M132.161 209.174H130.807V199.765L132.161 199.931V209.174Z" fill="black"/>
<path opacity="0.2" d="M139.116 199.765H137.763V209.174H139.116V199.765Z" fill="black"/>
<path opacity="0.2" d="M146.072 199.765H144.719V209.174H146.072V199.765Z" fill="black"/>
<path opacity="0.2" d="M153.022 199.765H151.669V209.174H153.022V199.765Z" fill="black"/>
<path opacity="0.2" d="M159.978 199.765H158.624V209.174H159.978V199.765Z" fill="black"/>
<path opacity="0.09" d="M161.918 199.765H111.926V201.705H161.918V199.765Z" fill="black"/>
<path d="M169.711 190.352H119.72V199.761H169.711V190.352Z" fill="#A8DADC"/>
<path opacity="0.2" d="M126.049 190.352H124.695V199.761H126.049V190.352Z" fill="black"/>
<path opacity="0.2" d="M133.004 190.352H131.651V199.761H133.004V190.352Z" fill="black"/>
<path opacity="0.2" d="M139.96 190.352H138.607V199.761H139.96V190.352Z" fill="black"/>
<path opacity="0.2" d="M146.91 190.352H145.557V199.761H146.91V190.352Z" fill="black"/>
<path opacity="0.2" d="M153.866 190.352H152.512V199.761H153.866V190.352Z" fill="black"/>
<path opacity="0.2" d="M160.816 190.352H159.462V199.761H160.816V190.352Z" fill="black"/>
<path opacity="0.2" d="M167.772 190.352H166.418V199.761H167.772V190.352Z" fill="black"/>
<path opacity="0.09" d="M169.711 190.352H119.72V192.291H169.711V190.352Z" fill="black"/>
<path d="M162.762 180.943H112.77V190.352H162.762V180.943Z" fill="#A8DADC"/>
<path opacity="0.2" d="M119.099 180.943H117.745V190.352H119.099V180.943Z" fill="black"/>
<path opacity="0.2" d="M126.049 190.356H124.695V180.952L126.049 180.943V190.356Z" fill="black"/>
<path opacity="0.2" d="M133.004 180.943H131.651V190.352H133.004V180.943Z" fill="black"/>
<path opacity="0.2" d="M139.96 180.943H138.607V190.352H139.96V180.943Z" fill="black"/>
<path opacity="0.2" d="M146.91 190.356H145.557V180.943L146.91 180.952V190.356Z" fill="black"/>
<path opacity="0.2" d="M153.866 180.943H152.512V190.352H153.866V180.943Z" fill="black"/>
<path opacity="0.2" d="M160.816 180.943H159.462V190.352H160.816V180.943Z" fill="black"/>
<path opacity="0.09" d="M162.762 180.943H112.77V183.261H162.762V180.943Z" fill="black"/>
<path d="M169.711 171.539H119.72V180.948H169.711V171.539Z" fill="#A8DADC"/>
<path opacity="0.2" d="M126.049 171.539H124.695V180.948H126.049V171.539Z" fill="black"/>
<path opacity="0.2" d="M133.004 171.539H131.651V180.948H133.004V171.539Z" fill="black"/>
<path opacity="0.2" d="M139.96 171.539H138.607V180.948H139.96V171.539Z" fill="black"/>
<path opacity="0.2" d="M146.91 171.539H145.557V180.948H146.91V171.539Z" fill="black"/>
<path opacity="0.2" d="M153.866 171.539H152.512V180.948H153.866V171.539Z" fill="black"/>
<path opacity="0.2" d="M160.816 180.943L159.462 180.952V171.539L160.816 171.709V180.943Z" fill="black"/>
<path opacity="0.2" d="M167.772 171.539H166.418V180.948H167.772V171.539Z" fill="black"/>
<path opacity="0.09" d="M169.711 171.539H119.72V173.478H169.711V171.539Z" fill="black"/>
<path d="M171.909 162.13H121.917V171.539H171.909V162.13Z" fill="#A8DADC"/>
<path opacity="0.2" d="M128.246 162.13H126.892V171.539H128.246V162.13Z" fill="black"/>
<path opacity="0.2" d="M135.196 162.13H133.842V171.539H135.196V162.13Z" fill="black"/>
<path opacity="0.2" d="M142.152 162.13H140.798V171.539H142.152V162.13Z" fill="black"/>
<path opacity="0.2" d="M149.108 162.13H147.754V171.539H149.108V162.13Z" fill="black"/>
<path opacity="0.2" d="M156.058 162.13H154.704V171.539H156.058V162.13Z" fill="black"/>
<path opacity="0.2" d="M163.013 162.13H161.66V171.539H163.013V162.13Z" fill="black"/>
<path opacity="0.2" d="M169.963 162.13H168.61V171.539H169.963V162.13Z" fill="black"/>
<path opacity="0.09" d="M171.909 162.13H121.917V164.069H171.909V162.13Z" fill="black"/>
<path d="M165.961 152.721H115.969V162.13H165.961V152.721Z" fill="#A8DADC"/>
<path opacity="0.2" d="M122.298 152.721H120.945V162.13H122.298V152.721Z" fill="black"/>
<path opacity="0.2" d="M129.254 152.721H127.9V162.13H129.254V152.721Z" fill="black"/>
<path opacity="0.2" d="M136.204 152.721H134.85V162.13H136.204V152.721Z" fill="black"/>
<path opacity="0.2" d="M143.16 152.721H141.806V162.13H143.16V152.721Z" fill="black"/>
<path opacity="0.2" d="M150.11 152.721H148.756V162.13H150.11V152.721Z" fill="black"/>
<path opacity="0.2" d="M157.066 152.721H155.712V162.13H157.066V152.721Z" fill="black"/>
<path opacity="0.2" d="M164.021 152.721H162.668V162.13H164.021V152.721Z" fill="black"/>
<path opacity="0.09" d="M165.961 152.721H115.969V154.66H165.961V152.721Z" fill="black"/>
<path d="M99.409 199.906H49.4174V209.315H99.409V199.906Z" fill="#A8DADC"/>
<path opacity="0.2" d="M55.7462 199.906H54.3925V209.315H55.7462V199.906Z" fill="black"/>
<path opacity="0.2" d="M62.702 199.906H61.3483V209.315H62.702V199.906Z" fill="black"/>
<path opacity="0.2" d="M69.6578 199.906H68.3042V209.315H69.6578V199.906Z" fill="black"/>
<path opacity="0.2" d="M76.6078 199.906H75.2541V209.315H76.6078V199.906Z" fill="black"/>
<path opacity="0.2" d="M83.5636 199.906H82.2099V209.315H83.5636V199.906Z" fill="black"/>
<path opacity="0.2" d="M90.5136 199.906H89.1599V209.315H90.5136V199.906Z" fill="black"/>
<path opacity="0.2" d="M97.4694 199.906H96.1157V209.315H97.4694V199.906Z" fill="black"/>
<path opacity="0.09" d="M99.409 199.906H49.4174V201.846H99.409V199.906Z" fill="black"/>
<path d="M101.771 190.498H51.779V199.907H101.771V190.498Z" fill="#A8DADC"/>
<path opacity="0.2" d="M58.1078 190.498H56.7541V199.907H58.1078V190.498Z" fill="black"/>
<path opacity="0.2" d="M65.0636 190.498H63.7099V199.907H65.0636V190.498Z" fill="black"/>
<path opacity="0.2" d="M72.0135 190.498H70.6599V199.907H72.0135V190.498Z" fill="black"/>
<path opacity="0.2" d="M78.9694 190.498H77.6157V199.907H78.9694V190.498Z" fill="black"/>
<path opacity="0.2" d="M85.9193 190.498H84.5657V199.907H85.9193V190.498Z" fill="black"/>
<path opacity="0.2" d="M92.8751 190.498H91.5215V199.907H92.8751V190.498Z" fill="black"/>
<path opacity="0.2" d="M99.831 190.498H98.4773V199.907H99.831V190.498Z" fill="black"/>
<path opacity="0.09" d="M101.771 190.498H51.779V192.271H101.771V190.498Z" fill="black"/>
<path d="M98.7058 181.084H48.7142V190.493H98.7058V181.084Z" fill="#A8DADC"/>
<path opacity="0.2" d="M55.043 181.084H53.6893V190.493H55.043V181.084Z" fill="black"/>
<path opacity="0.2" d="M61.9988 181.084H60.6451V190.493H61.9988V181.084Z" fill="black"/>
<path opacity="0.2" d="M68.9488 181.084H67.5951V190.493H68.9488V181.084Z" fill="black"/>
<path opacity="0.2" d="M75.9046 181.084H74.5509V190.493H75.9046V181.084Z" fill="black"/>
<path opacity="0.2" d="M82.8604 181.084H81.5067V190.493H82.8604V181.084Z" fill="black"/>
<path opacity="0.2" d="M89.8104 181.084H88.4567V190.493H89.8104V181.084Z" fill="black"/>
<path opacity="0.2" d="M96.7662 181.084H95.4125V190.493H96.7662V181.084Z" fill="black"/>
<path opacity="0.09" d="M98.7058 181.084H48.7142V182.858H98.7058V181.084Z" fill="black"/>
<path d="M208.522 176.365H197.57V209.568H208.522V176.365Z" fill="#A8DADC"/>
<g opacity="0.4">
<path d="M208.522 185.2V191.95L197.57 201.034V193.773L208.522 185.2Z" fill="white"/>
<path d="M208.522 180.262V181.409L197.57 190.497V189.35L208.522 180.262Z" fill="white"/>
</g>
<path d="M222.006 187.062H211.054V209.568H222.006V187.062Z" fill="#A8DADC"/>
<g opacity="0.4">
<path d="M222.006 193.695V200.378L211.054 209.456V202.273L222.006 193.695Z" fill="white"/>
<path d="M222.006 190.546V191.829L211.054 200.917V199.625L222.006 190.546Z" fill="white"/>
</g>
<path d="M195.033 160.409H184.08V209.568H195.033V160.409Z" fill="#A8DADC"/>
<g opacity="0.4">
<path d="M195.038 169.638V176.355L184.08 185.438V178.216L195.038 169.638Z" fill="white"/>
<path d="M195.038 165.945V167.199L184.08 176.292V175.028L195.038 165.945Z" fill="white"/>
</g>
<path d="M190.89 164.521C190.725 164.739 190.486 164.913 190.203 165.018C189.919 165.124 189.605 165.158 189.298 165.116C188.992 165.073 188.707 164.956 188.481 164.78C188.255 164.603 188.097 164.375 188.027 164.123C187.957 163.872 187.979 163.61 188.089 163.369C188.199 163.128 188.393 162.919 188.647 162.77C188.9 162.621 189.201 162.537 189.511 162.529C189.822 162.522 190.128 162.591 190.391 162.727C190.743 162.912 190.992 163.203 191.085 163.539C191.179 163.875 191.108 164.228 190.89 164.521Z" fill="#263238"/>
<path d="M204.373 180.306C204.209 180.523 203.97 180.695 203.688 180.799C203.406 180.904 203.093 180.937 202.788 180.894C202.483 180.851 202.201 180.735 201.976 180.559C201.751 180.383 201.594 180.156 201.525 179.906C201.455 179.656 201.477 179.395 201.586 179.155C201.695 178.916 201.888 178.708 202.139 178.559C202.391 178.41 202.69 178.326 202.999 178.318C203.308 178.31 203.613 178.377 203.875 178.513C204.05 178.603 204.202 178.721 204.322 178.86C204.442 178.999 204.528 179.157 204.574 179.323C204.62 179.49 204.626 179.663 204.592 179.831C204.557 180 204.483 180.161 204.373 180.306Z" fill="#263238"/>
<path d="M217.857 190.998C217.693 191.216 217.455 191.388 217.173 191.493C216.891 191.599 216.577 191.633 216.272 191.59C215.967 191.548 215.684 191.431 215.458 191.256C215.233 191.08 215.076 190.852 215.006 190.602C214.936 190.352 214.958 190.091 215.067 189.851C215.177 189.611 215.37 189.403 215.622 189.254C215.873 189.105 216.173 189.021 216.482 189.013C216.791 189.005 217.097 189.074 217.359 189.21C217.534 189.299 217.686 189.417 217.806 189.556C217.925 189.695 218.011 189.852 218.057 190.018C218.104 190.184 218.11 190.356 218.075 190.525C218.041 190.693 217.967 190.854 217.857 190.998Z" fill="#263238"/>
<path d="M216.533 190.298L202.633 201.034L203.043 179.616L189.559 186.532V163.831" stroke="#263238" stroke-miterlimit="10"/>
</svg>
